{
	"patcher" : 	{
		"fileversion" : 1,
		"appversion" : 		{
			"major" : 8,
			"minor" : 6,
			"revision" : 2,
			"architecture" : "x64",
			"modernui" : 1
		}
,
		"classnamespace" : "box",
		"rect" : [ 100.0, 100.0, 641.0, 889.0 ],
		"bglocked" : 0,
		"openinpresentation" : 0,
		"default_fontsize" : 11.0,
		"default_fontface" : 0,
		"default_fontname" : "Lato",
		"gridonopen" : 1,
		"gridsize" : [ 15.0, 15.0 ],
		"gridsnaponopen" : 1,
		"objectsnaponopen" : 1,
		"statusbarvisible" : 2,
		"toolbarvisible" : 1,
		"lefttoolbarpinned" : 0,
		"toptoolbarpinned" : 0,
		"righttoolbarpinned" : 0,
		"bottomtoolbarpinned" : 0,
		"toolbars_unpinned_last_save" : 0,
		"tallnewobj" : 0,
		"boxanimatetime" : 200,
		"enablehscroll" : 1,
		"enablevscroll" : 1,
		"devicewidth" : 0.0,
		"description" : "",
		"digest" : "",
		"tags" : "",
		"style" : "Minimal",
		"subpatcher_template" : "minimal",
		"showrootpatcherontab" : 0,
		"showontab" : 0,
		"assistshowspatchername" : 0,
		"boxes" : [ 			{
				"box" : 				{
					"id" : "obj-2",
					"maxclass" : "newobj",
					"numinlets" : 0,
					"numoutlets" : 0,
					"patcher" : 					{
						"fileversion" : 1,
						"appversion" : 						{
							"major" : 8,
							"minor" : 6,
							"revision" : 2,
							"architecture" : "x64",
							"modernui" : 1
						}
,
						"classnamespace" : "box",
						"rect" : [ 100.0, 126.0, 641.0, 863.0 ],
						"bglocked" : 0,
						"openinpresentation" : 0,
						"default_fontsize" : 10.0,
						"default_fontface" : 0,
						"default_fontname" : "Futura Medium",
						"gridonopen" : 1,
						"gridsize" : [ 15.0, 15.0 ],
						"gridsnaponopen" : 1,
						"objectsnaponopen" : 1,
						"statusbarvisible" : 2,
						"toolbarvisible" : 1,
						"lefttoolbarpinned" : 0,
						"toptoolbarpinned" : 0,
						"righttoolbarpinned" : 0,
						"bottomtoolbarpinned" : 0,
						"toolbars_unpinned_last_save" : 0,
						"tallnewobj" : 0,
						"boxanimatetime" : 200,
						"enablehscroll" : 1,
						"enablevscroll" : 1,
						"devicewidth" : 0.0,
						"description" : "",
						"digest" : "",
						"tags" : "",
						"style" : "Minimal",
						"subpatcher_template" : "minimal",
						"showontab" : 1,
						"assistshowspatchername" : 0,
						"boxes" : [ 							{
								"box" : 								{
									"buffername" : "_gf.wf.help2",
									"id" : "obj-1",
									"maxclass" : "grainflow.waveform~",
									"numinlets" : 1,
									"numoutlets" : 2,
									"outlettype" : [ "", "" ],
									"patching_rect" : [ 95.0, 271.0, 300.0, 100.0 ]
								}

							}
, 							{
								"box" : 								{
									"bubble" : 1,
									"bubblepoint" : 0.0,
									"bubbleside" : 0,
									"id" : "obj-51",
									"linecount" : 5,
									"maxclass" : "comment",
									"numinlets" : 1,
									"numoutlets" : 0,
									"patching_rect" : [ 411.0, 208.0, 191.0, 86.0 ],
									"text" : "You can change the quality of the displayed buffer using maxBufferDrawSamples.  This sets the maximum number of samples used to represent the buffer."
								}

							}
, 							{
								"box" : 								{
									"bubble" : 1,
									"id" : "obj-46",
									"linecount" : 6,
									"maxclass" : "comment",
									"numinlets" : 1,
									"numoutlets" : 0,
									"patching_rect" : [ 426.0, 86.0, 146.0, 83.0 ],
									"text" : "A bang can be used to tell grainflow to redraw the buffer image. This should only be used in live granulation and is rather expensive."
								}

							}
, 							{
								"box" : 								{
									"id" : "obj-45",
									"maxclass" : "newobj",
									"numinlets" : 1,
									"numoutlets" : 2,
									"outlettype" : [ "multichannelsignal", "list" ],
									"patcher" : 									{
										"fileversion" : 1,
										"appversion" : 										{
											"major" : 8,
											"minor" : 6,
											"revision" : 2,
											"architecture" : "x64",
											"modernui" : 1
										}
,
										"classnamespace" : "box",
										"rect" : [ 1472.0, 642.0, 1085.0, 597.0 ],
										"bglocked" : 0,
										"openinpresentation" : 0,
										"default_fontsize" : 10.0,
										"default_fontface" : 0,
										"default_fontname" : "Futura Medium",
										"gridonopen" : 1,
										"gridsize" : [ 15.0, 15.0 ],
										"gridsnaponopen" : 1,
										"objectsnaponopen" : 1,
										"statusbarvisible" : 2,
										"toolbarvisible" : 1,
										"lefttoolbarpinned" : 0,
										"toptoolbarpinned" : 0,
										"righttoolbarpinned" : 0,
										"bottomtoolbarpinned" : 0,
										"toolbars_unpinned_last_save" : 0,
										"tallnewobj" : 0,
										"boxanimatetime" : 200,
										"enablehscroll" : 1,
										"enablevscroll" : 1,
										"devicewidth" : 0.0,
										"description" : "",
										"digest" : "",
										"tags" : "",
										"style" : "Minimal",
										"subpatcher_template" : "minimal",
										"assistshowspatchername" : 0,
										"boxes" : [ 											{
												"box" : 												{
													"id" : "obj-41",
													"maxclass" : "newobj",
													"numinlets" : 2,
													"numoutlets" : 1,
													"outlettype" : [ "multichannelsignal" ],
													"patching_rect" : [ 51.0, 332.0, 61.0, 21.0 ],
													"text" : "mc.*~ 0.3"
												}

											}
, 											{
												"box" : 												{
													"id" : "obj-40",
													"maxclass" : "newobj",
													"numinlets" : 2,
													"numoutlets" : 2,
													"outlettype" : [ "multichannelsignal", "" ],
													"patching_rect" : [ 50.0, 294.0, 151.0, 21.0 ],
													"text" : "grainflow.util.stereoPan~ 50"
												}

											}
, 											{
												"box" : 												{
													"id" : "obj-36",
													"maxclass" : "newobj",
													"numinlets" : 6,
													"numoutlets" : 1,
													"outlettype" : [ "signal" ],
													"patching_rect" : [ 739.0, 269.0, 106.0, 21.0 ],
													"text" : "scale~ -1 1 0.2 0.5"
												}

											}
, 											{
												"box" : 												{
													"id" : "obj-32",
													"maxclass" : "newobj",
													"numinlets" : 2,
													"numoutlets" : 1,
													"outlettype" : [ "signal" ],
													"patching_rect" : [ 674.0, 256.0, 29.5, 21.0 ],
													"text" : "*~"
												}

											}
, 											{
												"box" : 												{
													"id" : "obj-31",
													"maxclass" : "newobj",
													"numinlets" : 2,
													"numoutlets" : 1,
													"outlettype" : [ "signal" ],
													"patching_rect" : [ 752.0, 238.0, 68.0, 21.0 ],
													"text" : "cycle~ 0.32"
												}

											}
, 											{
												"box" : 												{
													"id" : "obj-29",
													"maxclass" : "newobj",
													"numinlets" : 6,
													"numoutlets" : 1,
													"outlettype" : [ "signal" ],
													"patching_rect" : [ 670.0, 194.0, 111.0, 21.0 ],
													"text" : "scale~ -1 1 200 800"
												}

											}
, 											{
												"box" : 												{
													"id" : "obj-28",
													"maxclass" : "newobj",
													"numinlets" : 2,
													"numoutlets" : 1,
													"outlettype" : [ "signal" ],
													"patching_rect" : [ 653.0, 167.0, 62.0, 21.0 ],
													"text" : "cycle~ 0.1"
												}

											}
, 											{
												"box" : 												{
													"id" : "obj-26",
													"maxclass" : "newobj",
													"numinlets" : 2,
													"numoutlets" : 2,
													"outlettype" : [ "signal", "" ],
													"patching_rect" : [ 678.5, 318.0, 182.0, 21.0 ],
													"text" : "grainflow.util.record~ _gf.wf.help2"
												}

											}
, 											{
												"box" : 												{
													"id" : "obj-25",
													"maxclass" : "newobj",
													"numinlets" : 2,
													"numoutlets" : 1,
													"outlettype" : [ "signal" ],
													"patching_rect" : [ 673.0, 225.0, 42.0, 21.0 ],
													"text" : "cycle~"
												}

											}
, 											{
												"box" : 												{
													"id" : "obj-10",
													"maxclass" : "newobj",
													"numinlets" : 2,
													"numoutlets" : 1,
													"outlettype" : [ "signal" ],
													"patching_rect" : [ 116.0, 147.0, 67.0, 21.0 ],
													"text" : "phasor~ 10"
												}

											}
, 											{
												"box" : 												{
													"id" : "obj-1",
													"maxclass" : "newobj",
													"numinlets" : 4,
													"numoutlets" : 9,
													"outlettype" : [ "multichannelsignal", "list", "multichannelsignal", "multichannelsignal", "multichannelsignal", "multichannelsignal", "multichannelsignal", "multichannelsignal", "multichannelsignal" ],
													"patching_rect" : [ 50.0, 194.0, 248.0, 21.0 ],
													"text" : "grainflow~ _gf.wf.help2 50 @delayRandom 900"
												}

											}
, 											{
												"box" : 												{
													"comment" : "",
													"id" : "obj-42",
													"index" : 1,
													"maxclass" : "inlet",
													"numinlets" : 0,
													"numoutlets" : 1,
													"outlettype" : [ "int" ],
													"patching_rect" : [ 50.0, 40.0, 30.0, 30.0 ]
												}

											}
, 											{
												"box" : 												{
													"comment" : "",
													"id" : "obj-43",
													"index" : 1,
													"maxclass" : "outlet",
													"numinlets" : 1,
													"numoutlets" : 0,
													"patching_rect" : [ 51.0, 413.0, 30.0, 30.0 ]
												}

											}
, 											{
												"box" : 												{
													"comment" : "",
													"id" : "obj-44",
													"index" : 2,
													"maxclass" : "outlet",
													"numinlets" : 1,
													"numoutlets" : 0,
													"patching_rect" : [ 126.0, 413.0, 30.0, 30.0 ]
												}

											}
 ],
										"lines" : [ 											{
												"patchline" : 												{
													"destination" : [ "obj-40", 1 ],
													"order" : 0,
													"source" : [ "obj-1", 1 ]
												}

											}
, 											{
												"patchline" : 												{
													"destination" : [ "obj-40", 0 ],
													"source" : [ "obj-1", 0 ]
												}

											}
, 											{
												"patchline" : 												{
													"destination" : [ "obj-44", 0 ],
													"order" : 1,
													"source" : [ "obj-1", 1 ]
												}

											}
, 											{
												"patchline" : 												{
													"destination" : [ "obj-1", 0 ],
													"source" : [ "obj-10", 0 ]
												}

											}
, 											{
												"patchline" : 												{
													"destination" : [ "obj-32", 0 ],
													"source" : [ "obj-25", 0 ]
												}

											}
, 											{
												"patchline" : 												{
													"destination" : [ "obj-1", 1 ],
													"source" : [ "obj-26", 0 ]
												}

											}
, 											{
												"patchline" : 												{
													"destination" : [ "obj-44", 0 ],
													"source" : [ "obj-26", 1 ]
												}

											}
, 											{
												"patchline" : 												{
													"destination" : [ "obj-29", 0 ],
													"source" : [ "obj-28", 0 ]
												}

											}
, 											{
												"patchline" : 												{
													"destination" : [ "obj-25", 0 ],
													"source" : [ "obj-29", 0 ]
												}

											}
, 											{
												"patchline" : 												{
													"destination" : [ "obj-36", 0 ],
													"source" : [ "obj-31", 0 ]
												}

											}
, 											{
												"patchline" : 												{
													"destination" : [ "obj-26", 0 ],
													"source" : [ "obj-32", 0 ]
												}

											}
, 											{
												"patchline" : 												{
													"destination" : [ "obj-32", 1 ],
													"source" : [ "obj-36", 0 ]
												}

											}
, 											{
												"patchline" : 												{
													"destination" : [ "obj-41", 0 ],
													"source" : [ "obj-40", 0 ]
												}

											}
, 											{
												"patchline" : 												{
													"destination" : [ "obj-43", 0 ],
													"source" : [ "obj-41", 0 ]
												}

											}
, 											{
												"patchline" : 												{
													"destination" : [ "obj-1", 0 ],
													"order" : 1,
													"source" : [ "obj-42", 0 ]
												}

											}
, 											{
												"patchline" : 												{
													"destination" : [ "obj-26", 0 ],
													"order" : 0,
													"source" : [ "obj-42", 0 ]
												}

											}
 ],
										"styles" : [ 											{
												"name" : "Minimal",
												"default" : 												{
													"accentcolor" : [ 0.0, 0.0, 0.0, 1.0 ],
													"bgcolor" : [ 0.999999, 0.999974, 0.999991, 1.0 ],
													"bgfillcolor" : 													{
														"angle" : 270.0,
														"autogradient" : 0.0,
														"color" : [ 0.65098, 0.666667, 0.662745, 1.0 ],
														"color1" : [ 0.65098, 0.666667, 0.662745, 1.0 ],
														"color2" : [ 0.290196, 0.309804, 0.301961, 1.0 ],
														"proportion" : 0.39,
														"type" : "color"
													}
,
													"color" : [ 0.0, 0.0, 0.0, 1.0 ],
													"editing_bgcolor" : [ 0.956862745098039, 0.956862745098039, 0.956862745098039, 1.0 ],
													"elementcolor" : [ 0.647058823529412, 0.647058823529412, 0.647058823529412, 1.0 ],
													"fontface" : [ 0 ],
													"fontname" : [ "Futura Medium" ],
													"fontsize" : [ 10.0 ],
													"selectioncolor" : [ 0.0, 0.0, 0.0, 1.0 ],
													"textcolor_inverse" : [ 0.0, 0.0, 0.0, 1.0 ]
												}
,
												"parentstyle" : "",
												"multi" : 0
											}
 ]
									}
,
									"patching_rect" : [ 20.0, 200.0, 49.0, 21.0 ],
									"saved_object_attributes" : 									{
										"description" : "",
										"digest" : "",
										"fontname" : "Futura Medium",
										"fontsize" : 10.0,
										"globalpatchername" : "",
										"style" : "Minimal",
										"tags" : ""
									}
,
									"text" : "p grains"
								}

							}
, 							{
								"box" : 								{
									"id" : "obj-38",
									"local" : 1,
									"maxclass" : "mc.ezdac~",
									"numinlets" : 1,
									"numoutlets" : 0,
									"patching_rect" : [ 20.0, 334.0, 45.0, 45.0 ]
								}

							}
, 							{
								"box" : 								{
									"id" : "obj-34",
									"maxclass" : "toggle",
									"numinlets" : 1,
									"numoutlets" : 1,
									"outlettype" : [ "int" ],
									"parameter_enable" : 1,
									"patching_rect" : [ 352.0, 109.0, 24.0, 24.0 ],
									"saved_attribute_attributes" : 									{
										"valueof" : 										{
											"parameter_enum" : [ "off", "on" ],
											"parameter_initial" : [ 1.0 ],
											"parameter_initial_enable" : 1,
											"parameter_longname" : "toggle",
											"parameter_mmax" : 1,
											"parameter_modmode" : 0,
											"parameter_shortname" : "toggle",
											"parameter_type" : 2
										}

									}
,
									"varname" : "toggle"
								}

							}
, 							{
								"box" : 								{
									"id" : "obj-24",
									"maxclass" : "newobj",
									"numinlets" : 2,
									"numoutlets" : 1,
									"outlettype" : [ "bang" ],
									"patching_rect" : [ 352.0, 137.0, 61.0, 21.0 ],
									"text" : "qmetro 33"
								}

							}
, 							{
								"box" : 								{
									"bubble" : 1,
									"bubblepoint" : 0.0,
									"bubbleside" : 0,
									"id" : "obj-16",
									"linecount" : 3,
									"maxclass" : "comment",
									"numinlets" : 1,
									"numoutlets" : 0,
									"patching_rect" : [ 123.0, 141.0, 156.0, 62.0 ],
									"text" : "Adjusting the frame rate will reduce the frequency of drawing calls"
								}

							}
, 							{
								"box" : 								{
									"id" : "obj-6",
									"maxclass" : "toggle",
									"numinlets" : 1,
									"numoutlets" : 1,
									"outlettype" : [ "int" ],
									"parameter_enable" : 0,
									"patching_rect" : [ 20.0, 130.0, 24.0, 24.0 ]
								}

							}
, 							{
								"box" : 								{
									"id" : "obj-139",
									"linecount" : 2,
									"maxclass" : "comment",
									"numinlets" : 1,
									"numoutlets" : 0,
									"patching_rect" : [ 12.0, 47.0, 428.0, 31.0 ],
									"text" : "grainflow.waveform~ can strain your CPU as the jsui api is not incredibly efficent.  There are some tools to help you though! "
								}

							}
, 							{
								"box" : 								{
									"fontsize" : 30.0,
									"id" : "obj-137",
									"maxclass" : "comment",
									"numinlets" : 1,
									"numoutlets" : 0,
									"patching_rect" : [ 12.0, -1.0, 549.0, 43.0 ],
									"text" : "grainflow.waveform~ Performance"
								}

							}
, 							{
								"box" : 								{
									"id" : "obj-35",
									"maxclass" : "newobj",
									"numinlets" : 1,
									"numoutlets" : 0,
									"patching_rect" : [ 95.0, 442.5, 105.0, 21.0 ],
									"text" : "s _gf.wf.help.select"
								}

							}
, 							{
								"box" : 								{
									"id" : "obj-5",
									"maxclass" : "newobj",
									"numinlets" : 2,
									"numoutlets" : 2,
									"outlettype" : [ "", "" ],
									"patching_rect" : [ 95.0, 412.0, 83.0, 21.0 ],
									"text" : "route selection"
								}

							}
, 							{
								"box" : 								{
									"id" : "obj-3",
									"maxclass" : "newobj",
									"numinlets" : 1,
									"numoutlets" : 2,
									"outlettype" : [ "float", "bang" ],
									"patching_rect" : [ 327.0, 400.0, 173.0, 21.0 ],
									"text" : "buffer~ _gf.wf.help2 @size 1000"
								}

							}
, 							{
								"box" : 								{
									"attr" : "fps",
									"id" : "obj-2",
									"maxclass" : "attrui",
									"numinlets" : 1,
									"numoutlets" : 1,
									"outlettype" : [ "" ],
									"parameter_enable" : 0,
									"patching_rect" : [ 95.0, 112.0, 138.0, 21.0 ]
								}

							}
, 							{
								"box" : 								{
									"attr" : "maxBufferDrawSamples",
									"id" : "obj-4",
									"maxclass" : "attrui",
									"numinlets" : 1,
									"numoutlets" : 1,
									"outlettype" : [ "" ],
									"parameter_enable" : 0,
									"patching_rect" : [ 346.0, 177.0, 150.0, 21.0 ]
								}

							}
 ],
						"lines" : [ 							{
								"patchline" : 								{
									"destination" : [ "obj-5", 0 ],
									"source" : [ "obj-1", 0 ]
								}

							}
, 							{
								"patchline" : 								{
									"destination" : [ "obj-1", 0 ],
									"source" : [ "obj-2", 0 ]
								}

							}
, 							{
								"patchline" : 								{
									"destination" : [ "obj-1", 0 ],
									"source" : [ "obj-24", 0 ]
								}

							}
, 							{
								"patchline" : 								{
									"destination" : [ "obj-24", 0 ],
									"source" : [ "obj-34", 0 ]
								}

							}
, 							{
								"patchline" : 								{
									"destination" : [ "obj-1", 0 ],
									"source" : [ "obj-4", 0 ]
								}

							}
, 							{
								"patchline" : 								{
									"destination" : [ "obj-1", 0 ],
									"source" : [ "obj-45", 1 ]
								}

							}
, 							{
								"patchline" : 								{
									"destination" : [ "obj-38", 0 ],
									"source" : [ "obj-45", 0 ]
								}

							}
, 							{
								"patchline" : 								{
									"destination" : [ "obj-35", 0 ],
									"source" : [ "obj-5", 0 ]
								}

							}
, 							{
								"patchline" : 								{
									"destination" : [ "obj-45", 0 ],
									"source" : [ "obj-6", 0 ]
								}

							}
 ],
						"styles" : [ 							{
								"name" : "Minimal",
								"default" : 								{
									"accentcolor" : [ 0.0, 0.0, 0.0, 1.0 ],
									"bgcolor" : [ 0.999999, 0.999974, 0.999991, 1.0 ],
									"bgfillcolor" : 									{
										"angle" : 270.0,
										"autogradient" : 0.0,
										"color" : [ 0.65098, 0.666667, 0.662745, 1.0 ],
										"color1" : [ 0.65098, 0.666667, 0.662745, 1.0 ],
										"color2" : [ 0.290196, 0.309804, 0.301961, 1.0 ],
										"proportion" : 0.39,
										"type" : "color"
									}
,
									"color" : [ 0.0, 0.0, 0.0, 1.0 ],
									"editing_bgcolor" : [ 0.956862745098039, 0.956862745098039, 0.956862745098039, 1.0 ],
									"elementcolor" : [ 0.647058823529412, 0.647058823529412, 0.647058823529412, 1.0 ],
									"fontface" : [ 0 ],
									"fontname" : [ "Futura Medium" ],
									"fontsize" : [ 10.0 ],
									"selectioncolor" : [ 0.0, 0.0, 0.0, 1.0 ],
									"textcolor_inverse" : [ 0.0, 0.0, 0.0, 1.0 ]
								}
,
								"parentstyle" : "",
								"multi" : 0
							}
 ]
					}
,
					"patching_rect" : [ 13.0, 47.0, 80.0, 22.0 ],
					"saved_object_attributes" : 					{
						"description" : "",
						"digest" : "",
						"fontname" : "Futura Medium",
						"fontsize" : 10.0,
						"globalpatchername" : "",
						"style" : "Minimal",
						"tags" : ""
					}
,
					"text" : "p Performance"
				}

			}
, 			{
				"box" : 				{
					"id" : "obj-1",
					"maxclass" : "newobj",
					"numinlets" : 0,
					"numoutlets" : 0,
					"patcher" : 					{
						"fileversion" : 1,
						"appversion" : 						{
							"major" : 8,
							"minor" : 6,
							"revision" : 2,
							"architecture" : "x64",
							"modernui" : 1
						}
,
						"classnamespace" : "box",
						"rect" : [ 0.0, 26.0, 641.0, 863.0 ],
						"bglocked" : 0,
						"openinpresentation" : 0,
						"default_fontsize" : 10.0,
						"default_fontface" : 0,
						"default_fontname" : "Futura Medium",
						"gridonopen" : 1,
						"gridsize" : [ 15.0, 15.0 ],
						"gridsnaponopen" : 1,
						"objectsnaponopen" : 1,
						"statusbarvisible" : 2,
						"toolbarvisible" : 1,
						"lefttoolbarpinned" : 0,
						"toptoolbarpinned" : 0,
						"righttoolbarpinned" : 0,
						"bottomtoolbarpinned" : 0,
						"toolbars_unpinned_last_save" : 0,
						"tallnewobj" : 0,
						"boxanimatetime" : 200,
						"enablehscroll" : 1,
						"enablevscroll" : 1,
						"devicewidth" : 0.0,
						"description" : "",
						"digest" : "",
						"tags" : "",
						"style" : "Minimal",
						"subpatcher_template" : "minimal",
						"showontab" : 1,
						"assistshowspatchername" : 0,
						"boxes" : [ 							{
								"box" : 								{
									"buffername" : "_gf.wf.help",
									"chan" : 1,
									"id" : "obj-7",
									"maxclass" : "grainflow.waveform~",
									"numinlets" : 1,
									"numoutlets" : 2,
									"outlettype" : [ "", "" ],
									"patching_rect" : [ 8.0, 567.0, 300.0, 100.0 ],
									"selection" : [ 0.579499999976252, 0.483833333357081 ],
									"showTriangles" : 1
								}

							}
, 							{
								"box" : 								{
									"bubble" : 1,
									"id" : "obj-13",
									"linecount" : 2,
									"maxclass" : "comment",
									"numinlets" : 1,
									"numoutlets" : 0,
									"patching_rect" : [ 178.5, 140.5, 150.0, 35.0 ],
									"text" : "Sets the channel of the buffer to draw"
								}

							}
, 							{
								"box" : 								{
									"id" : "obj-12",
									"maxclass" : "number",
									"numinlets" : 1,
									"numoutlets" : 2,
									"outlettype" : [ "", "bang" ],
									"parameter_enable" : 1,
									"patching_rect" : [ 122.0, 140.5, 50.0, 21.0 ],
									"saved_attribute_attributes" : 									{
										"valueof" : 										{
											"parameter_initial" : [ 1 ],
											"parameter_initial_enable" : 1,
											"parameter_invisible" : 1,
											"parameter_longname" : "number[2]",
											"parameter_modmode" : 0,
											"parameter_shortname" : "number[2]",
											"parameter_type" : 3
										}

									}
,
									"varname" : "number"
								}

							}
, 							{
								"box" : 								{
									"id" : "obj-8",
									"maxclass" : "message",
									"numinlets" : 2,
									"numoutlets" : 1,
									"outlettype" : [ "" ],
									"patching_rect" : [ 122.0, 166.0, 49.0, 21.0 ],
									"text" : "chan $1"
								}

							}
, 							{
								"box" : 								{
									"id" : "obj-41",
									"maxclass" : "newobj",
									"numinlets" : 1,
									"numoutlets" : 0,
									"patching_rect" : [ 63.0, 220.0, 91.0, 21.0 ],
									"text" : "s _gf.wf.help.gui"
								}

							}
, 							{
								"box" : 								{
									"id" : "obj-6",
									"lastchannelcount" : 2,
									"maxclass" : "mc.live.gain~",
									"numinlets" : 1,
									"numoutlets" : 4,
									"orientation" : 1,
									"outlettype" : [ "multichannelsignal", "", "float", "list" ],
									"parameter_enable" : 1,
									"patching_rect" : [ 444.5, 631.5, 136.0, 47.0 ],
									"saved_attribute_attributes" : 									{
										"valueof" : 										{
											"parameter_initial" : [ -30.360382638120647 ],
											"parameter_initial_enable" : 1,
											"parameter_longname" : "mc.live.gain~",
											"parameter_mmax" : 6.0,
											"parameter_mmin" : -70.0,
											"parameter_modmode" : 0,
											"parameter_shortname" : "mc.live.gain~",
											"parameter_type" : 0,
											"parameter_unitstyle" : 4
										}

									}
,
									"varname" : "mc.live.gain~"
								}

							}
, 							{
								"box" : 								{
									"id" : "obj-9",
									"maxclass" : "newobj",
									"numinlets" : 1,
									"numoutlets" : 2,
									"outlettype" : [ "multichannelsignal", "list" ],
									"patcher" : 									{
										"fileversion" : 1,
										"appversion" : 										{
											"major" : 8,
											"minor" : 6,
											"revision" : 2,
											"architecture" : "x64",
											"modernui" : 1
										}
,
										"classnamespace" : "box",
										"rect" : [ 696.0, 436.0, 640.0, 480.0 ],
										"bglocked" : 0,
										"openinpresentation" : 0,
										"default_fontsize" : 10.0,
										"default_fontface" : 0,
										"default_fontname" : "Futura Medium",
										"gridonopen" : 1,
										"gridsize" : [ 15.0, 15.0 ],
										"gridsnaponopen" : 1,
										"objectsnaponopen" : 1,
										"statusbarvisible" : 2,
										"toolbarvisible" : 1,
										"lefttoolbarpinned" : 0,
										"toptoolbarpinned" : 0,
										"righttoolbarpinned" : 0,
										"bottomtoolbarpinned" : 0,
										"toolbars_unpinned_last_save" : 0,
										"tallnewobj" : 0,
										"boxanimatetime" : 200,
										"enablehscroll" : 1,
										"enablevscroll" : 1,
										"devicewidth" : 0.0,
										"description" : "",
										"digest" : "",
										"tags" : "",
										"style" : "Minimal",
										"subpatcher_template" : "minimal",
										"assistshowspatchername" : 0,
										"boxes" : [ 											{
												"box" : 												{
													"id" : "obj-92",
													"maxclass" : "newobj",
													"numinlets" : 0,
													"numoutlets" : 1,
													"outlettype" : [ "signal" ],
													"patcher" : 													{
														"fileversion" : 1,
														"appversion" : 														{
															"major" : 8,
															"minor" : 6,
															"revision" : 2,
															"architecture" : "x64",
															"modernui" : 1
														}
,
														"classnamespace" : "box",
														"rect" : [ 165.0, 245.0, 640.0, 480.0 ],
														"bglocked" : 0,
														"openinpresentation" : 0,
														"default_fontsize" : 10.0,
														"default_fontface" : 0,
														"default_fontname" : "Futura Medium",
														"gridonopen" : 1,
														"gridsize" : [ 15.0, 15.0 ],
														"gridsnaponopen" : 1,
														"objectsnaponopen" : 1,
														"statusbarvisible" : 2,
														"toolbarvisible" : 1,
														"lefttoolbarpinned" : 0,
														"toptoolbarpinned" : 0,
														"righttoolbarpinned" : 0,
														"bottomtoolbarpinned" : 0,
														"toolbars_unpinned_last_save" : 0,
														"tallnewobj" : 0,
														"boxanimatetime" : 200,
														"enablehscroll" : 1,
														"enablevscroll" : 1,
														"devicewidth" : 0.0,
														"description" : "",
														"digest" : "",
														"tags" : "",
														"style" : "Minimal",
														"subpatcher_template" : "minimal",
														"assistshowspatchername" : 0,
														"boxes" : [ 															{
																"box" : 																{
																	"id" : "obj-2",
																	"maxclass" : "message",
																	"numinlets" : 2,
																	"numoutlets" : 1,
																	"outlettype" : [ "" ],
																	"patching_rect" : [ 148.0, 355.0, 50.0, 21.0 ],
																	"text" : "1"
																}

															}
, 															{
																"box" : 																{
																	"id" : "obj-88",
																	"maxclass" : "newobj",
																	"numinlets" : 0,
																	"numoutlets" : 1,
																	"outlettype" : [ "" ],
																	"patching_rect" : [ 69.416666666666629, 208.0, 113.0, 21.0 ],
																	"text" : "r _gf.hrlp.wf.clickpos"
																}

															}
, 															{
																"box" : 																{
																	"id" : "obj-84",
																	"maxclass" : "newobj",
																	"numinlets" : 0,
																	"numoutlets" : 1,
																	"outlettype" : [ "" ],
																	"patcher" : 																	{
																		"fileversion" : 1,
																		"appversion" : 																		{
																			"major" : 8,
																			"minor" : 6,
																			"revision" : 2,
																			"architecture" : "x64",
																			"modernui" : 1
																		}
,
																		"classnamespace" : "box",
																		"rect" : [ 86.0, 91.0, 640.0, 480.0 ],
																		"bglocked" : 0,
																		"openinpresentation" : 0,
																		"default_fontsize" : 10.0,
																		"default_fontface" : 0,
																		"default_fontname" : "Futura Medium",
																		"gridonopen" : 1,
																		"gridsize" : [ 15.0, 15.0 ],
																		"gridsnaponopen" : 1,
																		"objectsnaponopen" : 1,
																		"statusbarvisible" : 2,
																		"toolbarvisible" : 1,
																		"lefttoolbarpinned" : 0,
																		"toptoolbarpinned" : 0,
																		"righttoolbarpinned" : 0,
																		"bottomtoolbarpinned" : 0,
																		"toolbars_unpinned_last_save" : 0,
																		"tallnewobj" : 0,
																		"boxanimatetime" : 200,
																		"enablehscroll" : 1,
																		"enablevscroll" : 1,
																		"devicewidth" : 0.0,
																		"description" : "",
																		"digest" : "",
																		"tags" : "",
																		"style" : "Minimal",
																		"subpatcher_template" : "minimal",
																		"assistshowspatchername" : 0,
																		"boxes" : [ 																			{
																				"box" : 																				{
																					"id" : "obj-72",
																					"maxclass" : "newobj",
																					"numinlets" : 2,
																					"numoutlets" : 2,
																					"outlettype" : [ "bang", "" ],
																					"patching_rect" : [ 50.0, 200.0, 32.0, 21.0 ],
																					"text" : "sel 1"
																				}

																			}
, 																			{
																				"box" : 																				{
																					"id" : "obj-71",
																					"maxclass" : "newobj",
																					"numinlets" : 1,
																					"numoutlets" : 3,
																					"outlettype" : [ "", "int", "int" ],
																					"patching_rect" : [ 50.0, 177.0, 45.0, 21.0 ],
																					"text" : "change"
																				}

																			}
, 																			{
																				"box" : 																				{
																					"id" : "obj-70",
																					"maxclass" : "newobj",
																					"numinlets" : 2,
																					"numoutlets" : 1,
																					"outlettype" : [ "int" ],
																					"patching_rect" : [ 57.75, 151.0, 29.5, 21.0 ],
																					"text" : "> 0"
																				}

																			}
, 																			{
																				"box" : 																				{
																					"id" : "obj-69",
																					"maxclass" : "newobj",
																					"numinlets" : 2,
																					"numoutlets" : 2,
																					"outlettype" : [ "", "" ],
																					"patching_rect" : [ 57.75, 123.0, 67.0, 21.0 ],
																					"text" : "route mode"
																				}

																			}
, 																			{
																				"box" : 																				{
																					"id" : "obj-68",
																					"maxclass" : "message",
																					"numinlets" : 2,
																					"numoutlets" : 1,
																					"outlettype" : [ "" ],
																					"patching_rect" : [ 50.0, 223.0, 34.0, 21.0 ],
																					"text" : "reset"
																				}

																			}
, 																			{
																				"box" : 																				{
																					"id" : "obj-8",
																					"maxclass" : "newobj",
																					"numinlets" : 0,
																					"numoutlets" : 1,
																					"outlettype" : [ "" ],
																					"patching_rect" : [ 57.75, 100.0, 90.0, 21.0 ],
																					"text" : "r _gf.wf.help.gui"
																				}

																			}
, 																			{
																				"box" : 																				{
																					"comment" : "",
																					"id" : "obj-83",
																					"index" : 1,
																					"maxclass" : "outlet",
																					"numinlets" : 1,
																					"numoutlets" : 0,
																					"patching_rect" : [ 50.0, 304.0, 30.0, 30.0 ]
																				}

																			}
 ],
																		"lines" : [ 																			{
																				"patchline" : 																				{
																					"destination" : [ "obj-83", 0 ],
																					"source" : [ "obj-68", 0 ]
																				}

																			}
, 																			{
																				"patchline" : 																				{
																					"destination" : [ "obj-70", 0 ],
																					"source" : [ "obj-69", 0 ]
																				}

																			}
, 																			{
																				"patchline" : 																				{
																					"destination" : [ "obj-71", 0 ],
																					"source" : [ "obj-70", 0 ]
																				}

																			}
, 																			{
																				"patchline" : 																				{
																					"destination" : [ "obj-72", 0 ],
																					"source" : [ "obj-71", 0 ]
																				}

																			}
, 																			{
																				"patchline" : 																				{
																					"destination" : [ "obj-68", 0 ],
																					"source" : [ "obj-72", 0 ]
																				}

																			}
, 																			{
																				"patchline" : 																				{
																					"destination" : [ "obj-69", 0 ],
																					"source" : [ "obj-8", 0 ]
																				}

																			}
 ],
																		"styles" : [ 																			{
																				"name" : "Minimal",
																				"default" : 																				{
																					"accentcolor" : [ 0.0, 0.0, 0.0, 1.0 ],
																					"bgcolor" : [ 0.999999, 0.999974, 0.999991, 1.0 ],
																					"bgfillcolor" : 																					{
																						"angle" : 270.0,
																						"autogradient" : 0.0,
																						"color" : [ 0.65098, 0.666667, 0.662745, 1.0 ],
																						"color1" : [ 0.65098, 0.666667, 0.662745, 1.0 ],
																						"color2" : [ 0.290196, 0.309804, 0.301961, 1.0 ],
																						"proportion" : 0.39,
																						"type" : "color"
																					}
,
																					"color" : [ 0.0, 0.0, 0.0, 1.0 ],
																					"elementcolor" : [ 0.999999, 0.999974, 0.999991, 1.0 ],
																					"fontface" : [ 0 ],
																					"fontname" : [ "Futura Medium" ],
																					"fontsize" : [ 10.0 ],
																					"selectioncolor" : [ 0.0, 0.0, 0.0, 1.0 ],
																					"textcolor_inverse" : [ 0.0, 0.0, 0.0, 1.0 ]
																				}
,
																				"parentstyle" : "",
																				"multi" : 0
																			}
 ],
																		"editing_bgcolor" : [ 0.956862745098039, 0.956862745098039, 0.956862745098039, 1.0 ]
																	}
,
																	"patching_rect" : [ 139.0, 74.0, 120.0, 21.0 ],
																	"saved_object_attributes" : 																	{
																		"description" : "",
																		"digest" : "",
																		"editing_bgcolor" : [ 0.956862745098039, 0.956862745098039, 0.956862745098039, 1.0 ],
																		"fontname" : "Futura Medium",
																		"fontsize" : 10.0,
																		"globalpatchername" : "",
																		"style" : "Minimal",
																		"tags" : ""
																	}
,
																	"text" : "p resetonmodechange"
																}

															}
, 															{
																"box" : 																{
																	"format" : 6,
																	"id" : "obj-75",
																	"maxclass" : "flonum",
																	"numinlets" : 1,
																	"numoutlets" : 2,
																	"outlettype" : [ "", "bang" ],
																	"parameter_enable" : 0,
																	"patching_rect" : [ 97.0, 30.0, 50.0, 21.0 ]
																}

															}
, 															{
																"box" : 																{
																	"id" : "obj-73",
																	"maxclass" : "newobj",
																	"numinlets" : 1,
																	"numoutlets" : 3,
																	"outlettype" : [ "", "", "" ],
																	"patching_rect" : [ 162.0, 145.0, 127.0, 21.0 ],
																	"text" : "unjoin"
																}

															}
, 															{
																"box" : 																{
																	"id" : "obj-66",
																	"maxclass" : "newobj",
																	"numinlets" : 3,
																	"numoutlets" : 2,
																	"outlettype" : [ "signal", "signal" ],
																	"patching_rect" : [ 106.0, 185.0, 129.0, 21.0 ],
																	"text" : "grainflow.util.phasor~ 1"
																}

															}
, 															{
																"box" : 																{
																	"id" : "obj-45",
																	"maxclass" : "newobj",
																	"numinlets" : 2,
																	"numoutlets" : 1,
																	"outlettype" : [ "int" ],
																	"patching_rect" : [ 3.0, 208.0, 29.5, 21.0 ],
																	"text" : "+ 1"
																}

															}
, 															{
																"box" : 																{
																	"id" : "obj-44",
																	"maxclass" : "newobj",
																	"numinlets" : 2,
																	"numoutlets" : 1,
																	"outlettype" : [ "int" ],
																	"patching_rect" : [ 3.0, 176.0, 29.5, 21.0 ],
																	"text" : "> 0"
																}

															}
, 															{
																"box" : 																{
																	"id" : "obj-43",
																	"maxclass" : "newobj",
																	"numinlets" : 2,
																	"numoutlets" : 2,
																	"outlettype" : [ "", "" ],
																	"patching_rect" : [ 3.0, 141.0, 67.0, 21.0 ],
																	"text" : "route mode"
																}

															}
, 															{
																"box" : 																{
																	"id" : "obj-41",
																	"maxclass" : "newobj",
																	"numinlets" : 0,
																	"numoutlets" : 1,
																	"outlettype" : [ "" ],
																	"patching_rect" : [ 3.0, 108.0, 90.0, 21.0 ],
																	"text" : "r _gf.wf.help.gui"
																}

															}
, 															{
																"box" : 																{
																	"id" : "obj-39",
																	"maxclass" : "newobj",
																	"numinlets" : 3,
																	"numoutlets" : 1,
																	"outlettype" : [ "signal" ],
																	"patching_rect" : [ 40.916666666666629, 292.0, 76.0, 21.0 ],
																	"text" : "selector~ 2 1"
																}

															}
, 															{
																"box" : 																{
																	"id" : "obj-36",
																	"maxclass" : "newobj",
																	"numinlets" : 0,
																	"numoutlets" : 1,
																	"outlettype" : [ "" ],
																	"patching_rect" : [ 162.0, 108.0, 104.0, 21.0 ],
																	"text" : "r _gf.wf.help.select"
																}

															}
, 															{
																"box" : 																{
																	"id" : "obj-17",
																	"maxclass" : "newobj",
																	"numinlets" : 1,
																	"numoutlets" : 1,
																	"outlettype" : [ "signal" ],
																	"patching_rect" : [ 69.416666666666629, 240.0, 31.0, 21.0 ],
																	"text" : "sig~"
																}

															}
, 															{
																"box" : 																{
																	"comment" : "",
																	"id" : "obj-91",
																	"index" : 1,
																	"maxclass" : "outlet",
																	"numinlets" : 1,
																	"numoutlets" : 0,
																	"patching_rect" : [ 40.916687000000024, 386.949219000000028, 30.0, 30.0 ]
																}

															}
 ],
														"lines" : [ 															{
																"patchline" : 																{
																	"destination" : [ "obj-39", 1 ],
																	"source" : [ "obj-17", 0 ]
																}

															}
, 															{
																"patchline" : 																{
																	"destination" : [ "obj-73", 0 ],
																	"source" : [ "obj-36", 0 ]
																}

															}
, 															{
																"patchline" : 																{
																	"destination" : [ "obj-91", 0 ],
																	"source" : [ "obj-39", 0 ]
																}

															}
, 															{
																"patchline" : 																{
																	"destination" : [ "obj-43", 0 ],
																	"source" : [ "obj-41", 0 ]
																}

															}
, 															{
																"patchline" : 																{
																	"destination" : [ "obj-44", 0 ],
																	"source" : [ "obj-43", 0 ]
																}

															}
, 															{
																"patchline" : 																{
																	"destination" : [ "obj-45", 0 ],
																	"source" : [ "obj-44", 0 ]
																}

															}
, 															{
																"patchline" : 																{
																	"destination" : [ "obj-2", 1 ],
																	"order" : 0,
																	"source" : [ "obj-45", 0 ]
																}

															}
, 															{
																"patchline" : 																{
																	"destination" : [ "obj-39", 0 ],
																	"order" : 1,
																	"source" : [ "obj-45", 0 ]
																}

															}
, 															{
																"patchline" : 																{
																	"destination" : [ "obj-39", 2 ],
																	"source" : [ "obj-66", 0 ]
																}

															}
, 															{
																"patchline" : 																{
																	"destination" : [ "obj-66", 2 ],
																	"source" : [ "obj-73", 1 ]
																}

															}
, 															{
																"patchline" : 																{
																	"destination" : [ "obj-66", 1 ],
																	"source" : [ "obj-73", 0 ]
																}

															}
, 															{
																"patchline" : 																{
																	"destination" : [ "obj-66", 0 ],
																	"source" : [ "obj-75", 0 ]
																}

															}
, 															{
																"patchline" : 																{
																	"destination" : [ "obj-66", 0 ],
																	"source" : [ "obj-84", 0 ]
																}

															}
, 															{
																"patchline" : 																{
																	"destination" : [ "obj-17", 0 ],
																	"source" : [ "obj-88", 0 ]
																}

															}
 ],
														"styles" : [ 															{
																"name" : "Minimal",
																"default" : 																{
																	"accentcolor" : [ 0.0, 0.0, 0.0, 1.0 ],
																	"bgcolor" : [ 0.999999, 0.999974, 0.999991, 1.0 ],
																	"bgfillcolor" : 																	{
																		"angle" : 270.0,
																		"autogradient" : 0.0,
																		"color" : [ 0.65098, 0.666667, 0.662745, 1.0 ],
																		"color1" : [ 0.65098, 0.666667, 0.662745, 1.0 ],
																		"color2" : [ 0.290196, 0.309804, 0.301961, 1.0 ],
																		"proportion" : 0.39,
																		"type" : "color"
																	}
,
																	"color" : [ 0.0, 0.0, 0.0, 1.0 ],
																	"elementcolor" : [ 0.999999, 0.999974, 0.999991, 1.0 ],
																	"fontface" : [ 0 ],
																	"fontname" : [ "Futura Medium" ],
																	"fontsize" : [ 10.0 ],
																	"selectioncolor" : [ 0.0, 0.0, 0.0, 1.0 ],
																	"textcolor_inverse" : [ 0.0, 0.0, 0.0, 1.0 ]
																}
,
																"parentstyle" : "",
																"multi" : 0
															}
 ],
														"editing_bgcolor" : [ 0.956862745098039, 0.956862745098039, 0.956862745098039, 1.0 ]
													}
,
													"patching_rect" : [ 224.666666666666515, 156.0, 62.0, 21.0 ],
													"saved_object_attributes" : 													{
														"description" : "",
														"digest" : "",
														"editing_bgcolor" : [ 0.956862745098039, 0.956862745098039, 0.956862745098039, 1.0 ],
														"fontname" : "Futura Medium",
														"fontsize" : 10.0,
														"globalpatchername" : "",
														"style" : "Minimal",
														"tags" : ""
													}
,
													"text" : "p traversal"
												}

											}
, 											{
												"box" : 												{
													"id" : "obj-90",
													"maxclass" : "newobj",
													"numinlets" : 0,
													"numoutlets" : 1,
													"outlettype" : [ "" ],
													"patching_rect" : [ 51.0, 152.0, 93.0, 21.0 ],
													"text" : "r _gf.hrlp.wf.togf"
												}

											}
, 											{
												"box" : 												{
													"id" : "obj-27",
													"maxclass" : "newobj",
													"numinlets" : 2,
													"numoutlets" : 2,
													"outlettype" : [ "multichannelsignal", "" ],
													"patching_rect" : [ 50.0, 292.0, 151.0, 21.0 ],
													"text" : "grainflow.util.stereoPan~ 25"
												}

											}
, 											{
												"box" : 												{
													"id" : "obj-26",
													"maxclass" : "newobj",
													"numinlets" : 2,
													"numoutlets" : 1,
													"outlettype" : [ "signal" ],
													"patching_rect" : [ 50.0, 113.0, 67.0, 21.0 ],
													"text" : "phasor~ 10"
												}

											}
, 											{
												"box" : 												{
													"id" : "obj-20",
													"maxclass" : "newobj",
													"numinlets" : 4,
													"numoutlets" : 9,
													"outlettype" : [ "multichannelsignal", "list", "multichannelsignal", "multichannelsignal", "multichannelsignal", "multichannelsignal", "multichannelsignal", "multichannelsignal", "multichannelsignal" ],
													"patching_rect" : [ 51.0, 213.0, 138.0, 21.0 ],
													"text" : "grainflow~ _gf.wf.help 25"
												}

											}
, 											{
												"box" : 												{
													"comment" : "",
													"id" : "obj-6",
													"index" : 1,
													"maxclass" : "inlet",
													"numinlets" : 0,
													"numoutlets" : 1,
													"outlettype" : [ "int" ],
													"patching_rect" : [ 50.0, 40.0, 30.0, 30.0 ]
												}

											}
, 											{
												"box" : 												{
													"comment" : "",
													"id" : "obj-7",
													"index" : 1,
													"maxclass" : "outlet",
													"numinlets" : 1,
													"numoutlets" : 0,
													"patching_rect" : [ 50.0, 374.0, 30.0, 30.0 ]
												}

											}
, 											{
												"box" : 												{
													"comment" : "",
													"id" : "obj-8",
													"index" : 2,
													"maxclass" : "outlet",
													"numinlets" : 1,
													"numoutlets" : 0,
													"patching_rect" : [ 90.0, 374.0, 30.0, 30.0 ]
												}

											}
 ],
										"lines" : [ 											{
												"patchline" : 												{
													"destination" : [ "obj-27", 1 ],
													"order" : 0,
													"source" : [ "obj-20", 1 ]
												}

											}
, 											{
												"patchline" : 												{
													"destination" : [ "obj-27", 0 ],
													"source" : [ "obj-20", 0 ]
												}

											}
, 											{
												"patchline" : 												{
													"destination" : [ "obj-8", 0 ],
													"order" : 1,
													"source" : [ "obj-20", 1 ]
												}

											}
, 											{
												"patchline" : 												{
													"destination" : [ "obj-20", 0 ],
													"source" : [ "obj-26", 0 ]
												}

											}
, 											{
												"patchline" : 												{
													"destination" : [ "obj-7", 0 ],
													"source" : [ "obj-27", 0 ]
												}

											}
, 											{
												"patchline" : 												{
													"destination" : [ "obj-20", 0 ],
													"source" : [ "obj-6", 0 ]
												}

											}
, 											{
												"patchline" : 												{
													"destination" : [ "obj-20", 0 ],
													"source" : [ "obj-90", 0 ]
												}

											}
, 											{
												"patchline" : 												{
													"destination" : [ "obj-20", 1 ],
													"source" : [ "obj-92", 0 ]
												}

											}
 ],
										"styles" : [ 											{
												"name" : "Minimal",
												"default" : 												{
													"accentcolor" : [ 0.0, 0.0, 0.0, 1.0 ],
													"bgcolor" : [ 0.999999, 0.999974, 0.999991, 1.0 ],
													"bgfillcolor" : 													{
														"angle" : 270.0,
														"autogradient" : 0.0,
														"color" : [ 0.65098, 0.666667, 0.662745, 1.0 ],
														"color1" : [ 0.65098, 0.666667, 0.662745, 1.0 ],
														"color2" : [ 0.290196, 0.309804, 0.301961, 1.0 ],
														"proportion" : 0.39,
														"type" : "color"
													}
,
													"color" : [ 0.0, 0.0, 0.0, 1.0 ],
													"elementcolor" : [ 0.999999, 0.999974, 0.999991, 1.0 ],
													"fontface" : [ 0 ],
													"fontname" : [ "Futura Medium" ],
													"fontsize" : [ 10.0 ],
													"selectioncolor" : [ 0.0, 0.0, 0.0, 1.0 ],
													"textcolor_inverse" : [ 0.0, 0.0, 0.0, 1.0 ]
												}
,
												"parentstyle" : "",
												"multi" : 0
											}
 ],
										"editing_bgcolor" : [ 0.956862745098039, 0.956862745098039, 0.956862745098039, 1.0 ]
									}
,
									"patching_rect" : [ 443.0, 596.5, 70.0, 21.0 ],
									"saved_object_attributes" : 									{
										"description" : "",
										"digest" : "",
										"editing_bgcolor" : [ 0.956862745098039, 0.956862745098039, 0.956862745098039, 1.0 ],
										"fontname" : "Futura Medium",
										"fontsize" : 10.0,
										"globalpatchername" : "",
										"style" : "Minimal",
										"tags" : ""
									}
,
									"text" : "p granulator"
								}

							}
, 							{
								"box" : 								{
									"id" : "obj-1",
									"maxclass" : "newobj",
									"numinlets" : 1,
									"numoutlets" : 1,
									"outlettype" : [ "" ],
									"patching_rect" : [ 5.0, 113.5, 66.0, 21.0 ],
									"text" : "loadmess 0"
								}

							}
, 							{
								"box" : 								{
									"bubble" : 1,
									"id" : "obj-155",
									"linecount" : 2,
									"maxclass" : "comment",
									"numinlets" : 1,
									"numoutlets" : 0,
									"patching_rect" : [ 461.0, 456.5, 107.0, 35.0 ],
									"text" : "Set the triangle colors"
								}

							}
, 							{
								"box" : 								{
									"bubble" : 1,
									"id" : "obj-154",
									"linecount" : 2,
									"maxclass" : "comment",
									"numinlets" : 1,
									"numoutlets" : 0,
									"patching_rect" : [ 34.0, 473.0, 117.0, 35.0 ],
									"text" : "Show guiding triangles"
								}

							}
, 							{
								"box" : 								{
									"id" : "obj-152",
									"maxclass" : "newobj",
									"numinlets" : 1,
									"numoutlets" : 1,
									"outlettype" : [ "" ],
									"patching_rect" : [ 8.0, 445.5, 66.0, 21.0 ],
									"text" : "loadmess 1"
								}

							}
, 							{
								"box" : 								{
									"bubble" : 1,
									"id" : "obj-151",
									"maxclass" : "comment",
									"numinlets" : 1,
									"numoutlets" : 0,
									"patching_rect" : [ 63.0, 379.5, 95.0, 23.0 ],
									"text" : "Set dot scale"
								}

							}
, 							{
								"box" : 								{
									"bubble" : 1,
									"id" : "obj-150",
									"maxclass" : "comment",
									"numinlets" : 1,
									"numoutlets" : 0,
									"patching_rect" : [ 445.0, 379.5, 150.0, 23.0 ],
									"text" : "Set the dot colors"
								}

							}
, 							{
								"box" : 								{
									"bubble" : 1,
									"id" : "obj-149",
									"maxclass" : "comment",
									"numinlets" : 1,
									"numoutlets" : 0,
									"patching_rect" : [ 307.0, 328.0, 150.0, 23.0 ],
									"text" : "Set the waveform color"
								}

							}
, 							{
								"box" : 								{
									"bubble" : 1,
									"bubbleside" : 2,
									"id" : "obj-148",
									"maxclass" : "comment",
									"numinlets" : 1,
									"numoutlets" : 0,
									"patching_rect" : [ 8.0, 245.5, 150.0, 38.0 ],
									"text" : "Set the background color"
								}

							}
, 							{
								"box" : 								{
									"id" : "obj-144",
									"maxclass" : "swatch",
									"numinlets" : 3,
									"numoutlets" : 2,
									"outlettype" : [ "", "float" ],
									"parameter_enable" : 0,
									"patching_rect" : [ 152.0, 287.0, 128.0, 32.0 ],
									"saturation" : 1.0
								}

							}
, 							{
								"box" : 								{
									"id" : "obj-139",
									"linecount" : 3,
									"maxclass" : "comment",
									"numinlets" : 1,
									"numoutlets" : 0,
									"patching_rect" : [ 5.0, 54.0, 428.0, 43.0 ],
									"text" : "grainflow.waveform is a jsui gui that visualizes grains to aid in designing sounds. grainflow.waveform~ has various visual customizations as well as performance optimization features."
								}

							}
, 							{
								"box" : 								{
									"fontsize" : 30.0,
									"id" : "obj-137",
									"maxclass" : "comment",
									"numinlets" : 1,
									"numoutlets" : 0,
									"patching_rect" : [ 5.0, 6.0, 430.0, 43.0 ],
									"text" : "grainflow.waveform~"
								}

							}
, 							{
								"box" : 								{
									"format" : 6,
									"id" : "obj-135",
									"maxclass" : "flonum",
									"numinlets" : 1,
									"numoutlets" : 2,
									"outlettype" : [ "", "bang" ],
									"parameter_enable" : 0,
									"patching_rect" : [ 8.0, 378.5, 50.0, 21.0 ]
								}

							}
, 							{
								"box" : 								{
									"id" : "obj-133",
									"maxclass" : "message",
									"numinlets" : 2,
									"numoutlets" : 1,
									"outlettype" : [ "" ],
									"patching_rect" : [ 8.0, 408.0, 68.0, 21.0 ],
									"text" : "dotScale $1"
								}

							}
, 							{
								"box" : 								{
									"id" : "obj-130",
									"maxclass" : "swatch",
									"numinlets" : 3,
									"numoutlets" : 2,
									"outlettype" : [ "", "float" ],
									"parameter_enable" : 0,
									"patching_rect" : [ 313.0, 450.5, 128.0, 32.0 ],
									"saturation" : 1.0
								}

							}
, 							{
								"box" : 								{
									"id" : "obj-129",
									"maxclass" : "message",
									"numinlets" : 2,
									"numoutlets" : 1,
									"outlettype" : [ "" ],
									"patching_rect" : [ 313.0, 495.5, 156.0, 21.0 ],
									"text" : "triangleOutColor $1 $2 $3 $4"
								}

							}
, 							{
								"box" : 								{
									"id" : "obj-128",
									"maxclass" : "swatch",
									"numinlets" : 3,
									"numoutlets" : 2,
									"outlettype" : [ "", "float" ],
									"parameter_enable" : 0,
									"patching_rect" : [ 166.0, 450.0, 128.0, 32.0 ],
									"saturation" : 1.0
								}

							}
, 							{
								"box" : 								{
									"id" : "obj-126",
									"maxclass" : "message",
									"numinlets" : 2,
									"numoutlets" : 1,
									"outlettype" : [ "" ],
									"patching_rect" : [ 166.0, 499.5, 138.0, 21.0 ],
									"text" : "triangleColor $1 $2 $3 $4"
								}

							}
, 							{
								"box" : 								{
									"id" : "obj-125",
									"maxclass" : "toggle",
									"numinlets" : 1,
									"numoutlets" : 1,
									"outlettype" : [ "int" ],
									"parameter_enable" : 0,
									"patching_rect" : [ 8.0, 479.5, 24.0, 24.0 ],
									"uncheckedcolor" : [ 0.694117647058824, 0.694117647058824, 0.694117647058824, 1.0 ]
								}

							}
, 							{
								"box" : 								{
									"id" : "obj-123",
									"maxclass" : "message",
									"numinlets" : 2,
									"numoutlets" : 1,
									"outlettype" : [ "" ],
									"patching_rect" : [ 9.0, 513.5, 95.0, 21.0 ],
									"text" : "showTriangles $1"
								}

							}
, 							{
								"box" : 								{
									"id" : "obj-121",
									"maxclass" : "swatch",
									"numinlets" : 3,
									"numoutlets" : 2,
									"outlettype" : [ "", "float" ],
									"parameter_enable" : 0,
									"patching_rect" : [ 301.5, 379.5, 128.0, 32.0 ],
									"saturation" : 1.0
								}

							}
, 							{
								"box" : 								{
									"id" : "obj-119",
									"maxclass" : "message",
									"numinlets" : 2,
									"numoutlets" : 1,
									"outlettype" : [ "" ],
									"patching_rect" : [ 301.5, 416.5, 169.0, 21.0 ],
									"text" : "dotColorSecondary $1 $2 $3 $4"
								}

							}
, 							{
								"box" : 								{
									"id" : "obj-115",
									"maxclass" : "swatch",
									"numinlets" : 3,
									"numoutlets" : 2,
									"outlettype" : [ "", "float" ],
									"parameter_enable" : 0,
									"patching_rect" : [ 163.5, 379.5, 128.0, 32.0 ],
									"saturation" : 1.0
								}

							}
, 							{
								"box" : 								{
									"id" : "obj-116",
									"maxclass" : "message",
									"numinlets" : 2,
									"numoutlets" : 1,
									"outlettype" : [ "" ],
									"patching_rect" : [ 163.5, 416.5, 116.0, 21.0 ],
									"text" : "dotColor $1 $2 $3 $4"
								}

							}
, 							{
								"box" : 								{
									"id" : "obj-113",
									"maxclass" : "message",
									"numinlets" : 2,
									"numoutlets" : 1,
									"outlettype" : [ "" ],
									"patching_rect" : [ 152.0, 328.0, 149.0, 21.0 ],
									"text" : "waveformColor $1 $2 $3 $4"
								}

							}
, 							{
								"box" : 								{
									"id" : "obj-107",
									"maxclass" : "swatch",
									"numinlets" : 3,
									"numoutlets" : 2,
									"outlettype" : [ "", "float" ],
									"parameter_enable" : 0,
									"patching_rect" : [ 7.0, 287.0, 128.0, 32.0 ],
									"saturation" : 1.0
								}

							}
, 							{
								"box" : 								{
									"id" : "obj-106",
									"maxclass" : "message",
									"numinlets" : 2,
									"numoutlets" : 1,
									"outlettype" : [ "" ],
									"patching_rect" : [ 7.0, 324.0, 112.0, 21.0 ],
									"text" : "bgColor $1 $2 $3 $4"
								}

							}
, 							{
								"box" : 								{
									"id" : "obj-98",
									"maxclass" : "newobj",
									"numinlets" : 1,
									"numoutlets" : 1,
									"outlettype" : [ "bang" ],
									"patching_rect" : [ 500.0, 498.0, 54.0, 21.0 ],
									"text" : "loadbang"
								}

							}
, 							{
								"box" : 								{
									"bubble" : 1,
									"id" : "obj-97",
									"maxclass" : "comment",
									"numinlets" : 1,
									"numoutlets" : 0,
									"patching_rect" : [ 469.0, 563.5, 150.0, 23.0 ],
									"text" : "Turn on the granulator"
								}

							}
, 							{
								"box" : 								{
									"id" : "obj-95",
									"maxclass" : "newobj",
									"numinlets" : 1,
									"numoutlets" : 0,
									"patcher" : 									{
										"fileversion" : 1,
										"appversion" : 										{
											"major" : 8,
											"minor" : 6,
											"revision" : 2,
											"architecture" : "x64",
											"modernui" : 1
										}
,
										"classnamespace" : "box",
										"rect" : [ 1182.0, 407.0, 640.0, 480.0 ],
										"bglocked" : 0,
										"openinpresentation" : 0,
										"default_fontsize" : 10.0,
										"default_fontface" : 0,
										"default_fontname" : "Futura Medium",
										"gridonopen" : 1,
										"gridsize" : [ 15.0, 15.0 ],
										"gridsnaponopen" : 1,
										"objectsnaponopen" : 1,
										"statusbarvisible" : 2,
										"toolbarvisible" : 1,
										"lefttoolbarpinned" : 0,
										"toptoolbarpinned" : 0,
										"righttoolbarpinned" : 0,
										"bottomtoolbarpinned" : 0,
										"toolbars_unpinned_last_save" : 0,
										"tallnewobj" : 0,
										"boxanimatetime" : 200,
										"enablehscroll" : 1,
										"enablevscroll" : 1,
										"devicewidth" : 0.0,
										"description" : "",
										"digest" : "",
										"tags" : "",
										"style" : "Minimal",
										"subpatcher_template" : "minimal",
										"assistshowspatchername" : 0,
										"boxes" : [ 											{
												"box" : 												{
													"id" : "obj-2",
													"maxclass" : "message",
													"numinlets" : 2,
													"numoutlets" : 1,
													"outlettype" : [ "" ],
													"patching_rect" : [ 107.0, 264.0, 50.0, 33.0 ],
													"text" : "0.35"
												}

											}
, 											{
												"box" : 												{
													"id" : "obj-89",
													"maxclass" : "newobj",
													"numinlets" : 1,
													"numoutlets" : 0,
													"patching_rect" : [ 211.0, 229.0, 94.0, 21.0 ],
													"text" : "s _gf.hrlp.wf.togf"
												}

											}
, 											{
												"box" : 												{
													"id" : "obj-87",
													"maxclass" : "newobj",
													"numinlets" : 1,
													"numoutlets" : 0,
													"patching_rect" : [ 166.0, 277.0, 114.0, 21.0 ],
													"text" : "s _gf.hrlp.wf.clickpos"
												}

											}
, 											{
												"box" : 												{
													"id" : "obj-34",
													"maxclass" : "newobj",
													"numinlets" : 2,
													"numoutlets" : 2,
													"outlettype" : [ "", "" ],
													"patching_rect" : [ 50.0, 142.0, 67.0, 21.0 ],
													"text" : "route mode"
												}

											}
, 											{
												"box" : 												{
													"id" : "obj-33",
													"maxclass" : "newobj",
													"numinlets" : 2,
													"numoutlets" : 1,
													"outlettype" : [ "int" ],
													"patching_rect" : [ 50.0, 176.0, 35.0, 21.0 ],
													"text" : "== 0"
												}

											}
, 											{
												"box" : 												{
													"id" : "obj-32",
													"maxclass" : "newobj",
													"numinlets" : 2,
													"numoutlets" : 1,
													"outlettype" : [ "" ],
													"patching_rect" : [ 166.0, 132.0, 50.0, 21.0 ],
													"text" : "gate 1 1"
												}

											}
, 											{
												"box" : 												{
													"id" : "obj-31",
													"maxclass" : "newobj",
													"numinlets" : 0,
													"numoutlets" : 1,
													"outlettype" : [ "" ],
													"patching_rect" : [ 50.0, 107.0, 90.0, 21.0 ],
													"text" : "r _gf.wf.help.gui"
												}

											}
, 											{
												"box" : 												{
													"id" : "obj-22",
													"maxclass" : "message",
													"numinlets" : 2,
													"numoutlets" : 1,
													"outlettype" : [ "" ],
													"patching_rect" : [ 205.0, 199.0, 47.0, 21.0 ],
													"text" : "amp $1"
												}

											}
, 											{
												"box" : 												{
													"id" : "obj-18",
													"maxclass" : "newobj",
													"numinlets" : 1,
													"numoutlets" : 3,
													"outlettype" : [ "", "", "" ],
													"patching_rect" : [ 166.0, 157.0, 97.0, 21.0 ],
													"text" : "unjoin"
												}

											}
, 											{
												"box" : 												{
													"id" : "obj-9",
													"maxclass" : "newobj",
													"numinlets" : 3,
													"numoutlets" : 3,
													"outlettype" : [ "", "", "" ],
													"patching_rect" : [ 166.0, 100.0, 97.0, 21.0 ],
													"text" : "route clicking idle"
												}

											}
, 											{
												"box" : 												{
													"comment" : "",
													"id" : "obj-94",
													"index" : 1,
													"maxclass" : "inlet",
													"numinlets" : 0,
													"numoutlets" : 1,
													"outlettype" : [ "" ],
													"patching_rect" : [ 166.0, 40.0, 30.0, 30.0 ]
												}

											}
 ],
										"lines" : [ 											{
												"patchline" : 												{
													"destination" : [ "obj-2", 1 ],
													"order" : 1,
													"source" : [ "obj-18", 0 ]
												}

											}
, 											{
												"patchline" : 												{
													"destination" : [ "obj-22", 0 ],
													"source" : [ "obj-18", 1 ]
												}

											}
, 											{
												"patchline" : 												{
													"destination" : [ "obj-87", 0 ],
													"order" : 0,
													"source" : [ "obj-18", 0 ]
												}

											}
, 											{
												"patchline" : 												{
													"destination" : [ "obj-89", 0 ],
													"source" : [ "obj-22", 0 ]
												}

											}
, 											{
												"patchline" : 												{
													"destination" : [ "obj-34", 0 ],
													"source" : [ "obj-31", 0 ]
												}

											}
, 											{
												"patchline" : 												{
													"destination" : [ "obj-18", 0 ],
													"source" : [ "obj-32", 0 ]
												}

											}
, 											{
												"patchline" : 												{
													"destination" : [ "obj-32", 0 ],
													"source" : [ "obj-33", 0 ]
												}

											}
, 											{
												"patchline" : 												{
													"destination" : [ "obj-33", 0 ],
													"source" : [ "obj-34", 0 ]
												}

											}
, 											{
												"patchline" : 												{
													"destination" : [ "obj-32", 1 ],
													"source" : [ "obj-9", 0 ]
												}

											}
, 											{
												"patchline" : 												{
													"destination" : [ "obj-9", 0 ],
													"source" : [ "obj-94", 0 ]
												}

											}
 ],
										"styles" : [ 											{
												"name" : "Minimal",
												"default" : 												{
													"accentcolor" : [ 0.0, 0.0, 0.0, 1.0 ],
													"bgcolor" : [ 0.999999, 0.999974, 0.999991, 1.0 ],
													"bgfillcolor" : 													{
														"angle" : 270.0,
														"autogradient" : 0.0,
														"color" : [ 0.65098, 0.666667, 0.662745, 1.0 ],
														"color1" : [ 0.65098, 0.666667, 0.662745, 1.0 ],
														"color2" : [ 0.290196, 0.309804, 0.301961, 1.0 ],
														"proportion" : 0.39,
														"type" : "color"
													}
,
													"color" : [ 0.0, 0.0, 0.0, 1.0 ],
													"elementcolor" : [ 0.999999, 0.999974, 0.999991, 1.0 ],
													"fontface" : [ 0 ],
													"fontname" : [ "Futura Medium" ],
													"fontsize" : [ 10.0 ],
													"selectioncolor" : [ 0.0, 0.0, 0.0, 1.0 ],
													"textcolor_inverse" : [ 0.0, 0.0, 0.0, 1.0 ]
												}
,
												"parentstyle" : "",
												"multi" : 0
											}
 ],
										"editing_bgcolor" : [ 0.956862745098039, 0.956862745098039, 0.956862745098039, 1.0 ]
									}
,
									"patching_rect" : [ 289.0, 677.0, 68.0, 21.0 ],
									"saved_object_attributes" : 									{
										"description" : "",
										"digest" : "",
										"editing_bgcolor" : [ 0.956862745098039, 0.956862745098039, 0.956862745098039, 1.0 ],
										"fontname" : "Futura Medium",
										"fontsize" : 10.0,
										"globalpatchername" : "",
										"style" : "Minimal",
										"tags" : ""
									}
,
									"text" : "p parseclick"
								}

							}
, 							{
								"box" : 								{
									"id" : "obj-86",
									"maxclass" : "number",
									"numinlets" : 1,
									"numoutlets" : 2,
									"outlettype" : [ "", "bang" ],
									"parameter_enable" : 0,
									"patching_rect" : [ 5.0, 171.5, 50.0, 21.0 ]
								}

							}
, 							{
								"box" : 								{
									"id" : "obj-35",
									"maxclass" : "newobj",
									"numinlets" : 1,
									"numoutlets" : 0,
									"patching_rect" : [ 8.0, 703.0, 105.0, 21.0 ],
									"text" : "s _gf.wf.help.select"
								}

							}
, 							{
								"box" : 								{
									"id" : "obj-30",
									"items" : [ "scrub", ",", "select", ",", "loop" ],
									"maxclass" : "umenu",
									"numinlets" : 1,
									"numoutlets" : 3,
									"outlettype" : [ "int", "", "" ],
									"parameter_enable" : 0,
									"patching_rect" : [ 5.0, 141.5, 100.0, 21.0 ]
								}

							}
, 							{
								"box" : 								{
									"bubble" : 1,
									"id" : "obj-29",
									"maxclass" : "comment",
									"numinlets" : 1,
									"numoutlets" : 0,
									"patching_rect" : [ 99.0, 111.5, 150.0, 23.0 ],
									"text" : "Interaction mode"
								}

							}
, 							{
								"box" : 								{
									"elementcolor" : [ 0.847058823529412, 0.847058823529412, 0.847058823529412, 1.0 ],
									"id" : "obj-24",
									"local" : 1,
									"maxclass" : "mc.ezdac~",
									"numinlets" : 1,
									"numoutlets" : 0,
									"patching_rect" : [ 444.5, 688.5, 45.0, 45.0 ]
								}

							}
, 							{
								"box" : 								{
									"id" : "obj-4",
									"maxclass" : "message",
									"numinlets" : 2,
									"numoutlets" : 1,
									"outlettype" : [ "" ],
									"patching_rect" : [ 500.0, 528.0, 83.0, 21.0 ],
									"text" : "buf _gf.wf.help"
								}

							}
, 							{
								"box" : 								{
									"id" : "obj-10",
									"maxclass" : "message",
									"numinlets" : 2,
									"numoutlets" : 1,
									"outlettype" : [ "" ],
									"patching_rect" : [ 5.0, 206.0, 53.0, 21.0 ],
									"text" : "mode $1"
								}

							}
, 							{
								"box" : 								{
									"id" : "obj-5",
									"maxclass" : "newobj",
									"numinlets" : 2,
									"numoutlets" : 2,
									"outlettype" : [ "", "" ],
									"patching_rect" : [ 8.0, 677.0, 83.0, 21.0 ],
									"text" : "route selection"
								}

							}
, 							{
								"box" : 								{
									"id" : "obj-25",
									"maxclass" : "toggle",
									"numinlets" : 1,
									"numoutlets" : 1,
									"outlettype" : [ "int" ],
									"parameter_enable" : 0,
									"patching_rect" : [ 443.0, 563.5, 24.0, 24.0 ],
									"uncheckedcolor" : [ 0.694117647058824, 0.694117647058824, 0.694117647058824, 1.0 ]
								}

							}
, 							{
								"box" : 								{
									"id" : "obj-3",
									"maxclass" : "newobj",
									"numinlets" : 1,
									"numoutlets" : 2,
									"outlettype" : [ "float", "bang" ],
									"patching_rect" : [ 210.0, 712.5, 153.0, 21.0 ],
									"text" : "buffer~ _gf.wf.help anton.aif"
								}

							}
 ],
						"lines" : [ 							{
								"patchline" : 								{
									"destination" : [ "obj-30", 0 ],
									"source" : [ "obj-1", 0 ]
								}

							}
, 							{
								"patchline" : 								{
									"destination" : [ "obj-41", 0 ],
									"order" : 0,
									"source" : [ "obj-10", 0 ]
								}

							}
, 							{
								"patchline" : 								{
									"destination" : [ "obj-7", 0 ],
									"order" : 1,
									"source" : [ "obj-10", 0 ]
								}

							}
, 							{
								"patchline" : 								{
									"destination" : [ "obj-7", 0 ],
									"source" : [ "obj-106", 0 ]
								}

							}
, 							{
								"patchline" : 								{
									"destination" : [ "obj-106", 0 ],
									"source" : [ "obj-107", 0 ]
								}

							}
, 							{
								"patchline" : 								{
									"destination" : [ "obj-7", 0 ],
									"source" : [ "obj-113", 0 ]
								}

							}
, 							{
								"patchline" : 								{
									"destination" : [ "obj-116", 0 ],
									"source" : [ "obj-115", 0 ]
								}

							}
, 							{
								"patchline" : 								{
									"destination" : [ "obj-7", 0 ],
									"source" : [ "obj-116", 0 ]
								}

							}
, 							{
								"patchline" : 								{
									"destination" : [ "obj-7", 0 ],
									"source" : [ "obj-119", 0 ]
								}

							}
, 							{
								"patchline" : 								{
									"destination" : [ "obj-8", 0 ],
									"source" : [ "obj-12", 0 ]
								}

							}
, 							{
								"patchline" : 								{
									"destination" : [ "obj-119", 0 ],
									"source" : [ "obj-121", 0 ]
								}

							}
, 							{
								"patchline" : 								{
									"destination" : [ "obj-7", 0 ],
									"source" : [ "obj-123", 0 ]
								}

							}
, 							{
								"patchline" : 								{
									"destination" : [ "obj-123", 0 ],
									"source" : [ "obj-125", 0 ]
								}

							}
, 							{
								"patchline" : 								{
									"destination" : [ "obj-7", 0 ],
									"source" : [ "obj-126", 0 ]
								}

							}
, 							{
								"patchline" : 								{
									"destination" : [ "obj-126", 0 ],
									"source" : [ "obj-128", 0 ]
								}

							}
, 							{
								"patchline" : 								{
									"destination" : [ "obj-7", 0 ],
									"source" : [ "obj-129", 0 ]
								}

							}
, 							{
								"patchline" : 								{
									"destination" : [ "obj-129", 0 ],
									"source" : [ "obj-130", 0 ]
								}

							}
, 							{
								"patchline" : 								{
									"destination" : [ "obj-7", 0 ],
									"source" : [ "obj-133", 0 ]
								}

							}
, 							{
								"patchline" : 								{
									"destination" : [ "obj-133", 0 ],
									"source" : [ "obj-135", 0 ]
								}

							}
, 							{
								"patchline" : 								{
									"destination" : [ "obj-113", 0 ],
									"source" : [ "obj-144", 0 ]
								}

							}
, 							{
								"patchline" : 								{
									"destination" : [ "obj-125", 0 ],
									"source" : [ "obj-152", 0 ]
								}

							}
, 							{
								"patchline" : 								{
									"destination" : [ "obj-9", 0 ],
									"source" : [ "obj-25", 0 ]
								}

							}
, 							{
								"patchline" : 								{
									"destination" : [ "obj-86", 0 ],
									"source" : [ "obj-30", 0 ]
								}

							}
, 							{
								"patchline" : 								{
									"destination" : [ "obj-7", 0 ],
									"source" : [ "obj-4", 0 ]
								}

							}
, 							{
								"patchline" : 								{
									"destination" : [ "obj-35", 0 ],
									"source" : [ "obj-5", 0 ]
								}

							}
, 							{
								"patchline" : 								{
									"destination" : [ "obj-24", 0 ],
									"source" : [ "obj-6", 0 ]
								}

							}
, 							{
								"patchline" : 								{
									"destination" : [ "obj-5", 0 ],
									"source" : [ "obj-7", 0 ]
								}

							}
, 							{
								"patchline" : 								{
									"destination" : [ "obj-95", 0 ],
									"source" : [ "obj-7", 1 ]
								}

							}
, 							{
								"patchline" : 								{
									"destination" : [ "obj-7", 0 ],
									"source" : [ "obj-8", 0 ]
								}

							}
, 							{
								"patchline" : 								{
									"destination" : [ "obj-10", 0 ],
									"source" : [ "obj-86", 0 ]
								}

							}
, 							{
								"patchline" : 								{
									"destination" : [ "obj-6", 0 ],
									"source" : [ "obj-9", 0 ]
								}

							}
, 							{
								"patchline" : 								{
									"destination" : [ "obj-7", 0 ],
									"source" : [ "obj-9", 1 ]
								}

							}
, 							{
								"patchline" : 								{
									"destination" : [ "obj-4", 0 ],
									"source" : [ "obj-98", 0 ]
								}

							}
 ],
						"styles" : [ 							{
								"name" : "Minimal",
								"default" : 								{
									"accentcolor" : [ 0.0, 0.0, 0.0, 1.0 ],
									"bgcolor" : [ 0.999999, 0.999974, 0.999991, 1.0 ],
									"bgfillcolor" : 									{
										"angle" : 270.0,
										"autogradient" : 0.0,
										"color" : [ 0.65098, 0.666667, 0.662745, 1.0 ],
										"color1" : [ 0.65098, 0.666667, 0.662745, 1.0 ],
										"color2" : [ 0.290196, 0.309804, 0.301961, 1.0 ],
										"proportion" : 0.39,
										"type" : "color"
									}
,
									"color" : [ 0.0, 0.0, 0.0, 1.0 ],
									"editing_bgcolor" : [ 0.956862745098039, 0.956862745098039, 0.956862745098039, 1.0 ],
									"elementcolor" : [ 0.647058823529412, 0.647058823529412, 0.647058823529412, 1.0 ],
									"fontface" : [ 0 ],
									"fontname" : [ "Futura Medium" ],
									"fontsize" : [ 10.0 ],
									"selectioncolor" : [ 0.0, 0.0, 0.0, 1.0 ],
									"textcolor_inverse" : [ 0.0, 0.0, 0.0, 1.0 ]
								}
,
								"parentstyle" : "",
								"multi" : 0
							}
 ]
					}
,
					"patching_rect" : [ 13.0, 11.0, 55.0, 22.0 ],
					"saved_object_attributes" : 					{
						"description" : "",
						"digest" : "",
						"fontname" : "Futura Medium",
						"fontsize" : 10.0,
						"globalpatchername" : "",
						"style" : "Minimal",
						"tags" : ""
					}
,
					"text" : "p General"
				}

			}
 ],
		"lines" : [  ],
		"parameters" : 		{
			"obj-1::obj-12" : [ "number[2]", "number[2]", 0 ],
			"obj-1::obj-6" : [ "mc.live.gain~", "mc.live.gain~", 0 ],
			"obj-2::obj-34" : [ "toggle", "toggle", 0 ],
			"parameterbanks" : 			{

			}
,
			"inherited_shortname" : 1
		}
,
		"dependency_cache" : [ 			{
				"name" : "grainflow.record.gendsp",
				"bootpath" : "~/Documents/Max 8/Packages/Grainflow/code",
				"patcherrelativepath" : "../code",
				"type" : "gDSP",
				"implicit" : 1
			}
, 			{
				"name" : "grainflow.sahPhasor.gendsp",
				"bootpath" : "~/Documents/Max 8/Packages/Grainflow/code",
				"patcherrelativepath" : "../code",
				"type" : "gDSP",
				"implicit" : 1
			}
, 			{
				"name" : "grainflow.util.phasor~.maxpat",
				"bootpath" : "~/Documents/Max 8/Packages/Grainflow/patchers/util",
				"patcherrelativepath" : "../patchers/util",
				"type" : "JSON",
				"implicit" : 1
			}
, 			{
				"name" : "grainflow.util.record~.maxpat",
				"bootpath" : "~/Documents/Max 8/Packages/Grainflow/patchers/util",
				"patcherrelativepath" : "../patchers/util",
				"type" : "JSON",
				"implicit" : 1
			}
, 			{
				"name" : "grainflow.util.stereoPan~.maxpat",
				"bootpath" : "~/Documents/Max 8/Packages/Grainflow/patchers",
				"patcherrelativepath" : "../patchers",
				"type" : "JSON",
				"implicit" : 1
			}
, 			{
				"name" : "grainflow.waveform~.mxe64",
				"type" : "mx64"
			}
, 			{
				"name" : "grainflow~.mxe64",
				"type" : "mx64"
			}
 ],
		"autosave" : 0,
		"styles" : [ 			{
				"name" : "Minimal",
				"default" : 				{
					"accentcolor" : [ 0.0, 0.0, 0.0, 1.0 ],
					"bgcolor" : [ 0.999999, 0.999974, 0.999991, 1.0 ],
					"bgfillcolor" : 					{
						"angle" : 270.0,
						"autogradient" : 0.0,
						"color" : [ 0.65098, 0.666667, 0.662745, 1.0 ],
						"color1" : [ 0.65098, 0.666667, 0.662745, 1.0 ],
						"color2" : [ 0.290196, 0.309804, 0.301961, 1.0 ],
						"proportion" : 0.39,
						"type" : "color"
					}
,
					"color" : [ 0.0, 0.0, 0.0, 1.0 ],
					"elementcolor" : [ 0.999999, 0.999974, 0.999991, 1.0 ],
					"fontface" : [ 0 ],
					"fontname" : [ "Futura Medium" ],
					"fontsize" : [ 10.0 ],
					"selectioncolor" : [ 0.0, 0.0, 0.0, 1.0 ],
					"textcolor_inverse" : [ 0.0, 0.0, 0.0, 1.0 ]
				}
,
				"parentstyle" : "",
				"multi" : 0
			}
 ],
		"editing_bgcolor" : [ 0.956862745098039, 0.956862745098039, 0.956862745098039, 1.0 ]
	}

}
