{
	"patcher" : 	{
		"fileversion" : 1,
		"appversion" : 		{
			"major" : 8,
			"minor" : 1,
			"revision" : 8,
			"architecture" : "x64",
			"modernui" : 1
		}
,
		"classnamespace" : "box",
		"rect" : [ 100.0, 100.0, 693.0, 874.0 ],
		"bglocked" : 0,
		"openinpresentation" : 0,
		"default_fontsize" : 11.0,
		"default_fontface" : 0,
		"default_fontname" : "Lato",
		"gridonopen" : 1,
		"gridsize" : [ 15.0, 15.0 ],
		"gridsnaponopen" : 1,
		"objectsnaponopen" : 1,
		"statusbarvisible" : 2,
		"toolbarvisible" : 1,
		"lefttoolbarpinned" : 0,
		"toptoolbarpinned" : 0,
		"righttoolbarpinned" : 0,
		"bottomtoolbarpinned" : 0,
		"toolbars_unpinned_last_save" : 0,
		"tallnewobj" : 0,
		"boxanimatetime" : 200,
		"enablehscroll" : 1,
		"enablevscroll" : 1,
		"devicewidth" : 0.0,
		"description" : "",
		"digest" : "",
		"tags" : "",
		"style" : "Minimal",
		"subpatcher_template" : "minimal",
		"assistshowspatchername" : 0,
		"boxes" : [ 			{
				"box" : 				{
					"id" : "obj-11",
					"lastchannelcount" : 0,
					"maxclass" : "live.gain~",
					"numinlets" : 2,
					"numoutlets" : 5,
					"orientation" : 1,
					"outlettype" : [ "signal", "signal", "", "float", "list" ],
					"parameter_enable" : 1,
					"patching_rect" : [ 17.5, 725.0, 136.0, 47.0 ],
					"saved_attribute_attributes" : 					{
						"valueof" : 						{
							"parameter_longname" : "live.gain~",
							"parameter_mmax" : 6.0,
							"parameter_mmin" : -70.0,
							"parameter_shortname" : "live.gain~",
							"parameter_type" : 0,
							"parameter_unitstyle" : 4
						}

					}
,
					"varname" : "live.gain~"
				}

			}
, 			{
				"box" : 				{
					"bubble" : 1,
					"id" : "obj-40",
					"maxclass" : "comment",
					"numinlets" : 1,
					"numoutlets" : 0,
					"patching_rect" : [ 131.0, 597.0, 141.0, 24.0 ],
					"text" : "grain clock"
				}

			}
, 			{
				"box" : 				{
					"fontface" : 1,
					"fontname" : "Lato",
					"fontsize" : 9.0,
					"id" : "obj-30",
					"maxclass" : "comment",
					"numinlets" : 1,
					"numoutlets" : 0,
					"patching_rect" : [ 351.0, 164.5, 17.0, 17.0 ],
					"text" : "3",
					"textcolor" : [ 1.0, 1.0, 1.0, 1.0 ],
					"textjustification" : 1
				}

			}
, 			{
				"box" : 				{
					"angle" : 270.0,
					"bgcolor" : [ 0.0, 0.0, 0.0, 1.0 ],
					"id" : "obj-31",
					"maxclass" : "panel",
					"mode" : 0,
					"numinlets" : 1,
					"numoutlets" : 0,
					"patching_rect" : [ 351.0, 164.5, 16.0, 17.0 ],
					"proportion" : 0.39,
					"shape" : 1
				}

			}
, 			{
				"box" : 				{
					"bubble" : 1,
					"id" : "obj-37",
					"maxclass" : "comment",
					"numinlets" : 1,
					"numoutlets" : 0,
					"patching_rect" : [ 374.0, 161.0, 237.0, 24.0 ],
					"text" : "Trigger a MIDI note to start a freeze"
				}

			}
, 			{
				"box" : 				{
					"fontface" : 1,
					"fontname" : "Lato",
					"fontsize" : 9.0,
					"id" : "obj-38",
					"maxclass" : "comment",
					"numinlets" : 1,
					"numoutlets" : 0,
					"patching_rect" : [ 172.0, 136.5, 17.0, 17.0 ],
					"text" : "2",
					"textcolor" : [ 1.0, 1.0, 1.0, 1.0 ],
					"textjustification" : 1
				}

			}
, 			{
				"box" : 				{
					"angle" : 270.0,
					"bgcolor" : [ 0.0, 0.0, 0.0, 1.0 ],
					"id" : "obj-39",
					"maxclass" : "panel",
					"mode" : 0,
					"numinlets" : 1,
					"numoutlets" : 0,
					"patching_rect" : [ 172.0, 136.5, 16.0, 17.0 ],
					"proportion" : 0.39,
					"shape" : 1
				}

			}
, 			{
				"box" : 				{
					"fontface" : 1,
					"fontname" : "Lato",
					"fontsize" : 9.0,
					"id" : "obj-35",
					"maxclass" : "comment",
					"numinlets" : 1,
					"numoutlets" : 0,
					"patching_rect" : [ 47.0, 98.5, 17.0, 17.0 ],
					"text" : "1",
					"textcolor" : [ 1.0, 1.0, 1.0, 1.0 ],
					"textjustification" : 1
				}

			}
, 			{
				"box" : 				{
					"angle" : 270.0,
					"bgcolor" : [ 0.0, 0.0, 0.0, 1.0 ],
					"id" : "obj-24",
					"maxclass" : "panel",
					"mode" : 0,
					"numinlets" : 1,
					"numoutlets" : 0,
					"patching_rect" : [ 47.0, 98.5, 16.0, 17.0 ],
					"proportion" : 0.39,
					"shape" : 1
				}

			}
, 			{
				"box" : 				{
					"bubble" : 1,
					"id" : "obj-26",
					"maxclass" : "comment",
					"numinlets" : 1,
					"numoutlets" : 0,
					"patching_rect" : [ 196.0, 130.0, 237.0, 24.0 ],
					"text" : "Play this sound file into grainflow.freeze~"
				}

			}
, 			{
				"box" : 				{
					"bubble" : 1,
					"id" : "obj-28",
					"maxclass" : "comment",
					"numinlets" : 1,
					"numoutlets" : 0,
					"patching_rect" : [ 74.0, 95.0, 255.0, 24.0 ],
					"text" : "Enable recording and playback"
				}

			}
, 			{
				"box" : 				{
					"fontsize" : 11.0,
					"id" : "obj-23",
					"linecount" : 3,
					"maxclass" : "comment",
					"numinlets" : 1,
					"numoutlets" : 0,
					"patching_rect" : [ 158.0, 289.5, 125.0, 46.0 ],
					"text" : "Will not work:\nstate, forceGrainReset, travRandom, rate",
					"textcolor" : [ 0.392156862745098, 0.392156862745098, 0.392156862745098, 1.0 ]
				}

			}
, 			{
				"box" : 				{
					"bubble" : 1,
					"id" : "obj-19",
					"linecount" : 2,
					"maxclass" : "comment",
					"numinlets" : 1,
					"numoutlets" : 0,
					"patching_rect" : [ 420.0, 498.0, 151.0, 37.0 ],
					"text" : "The adsr message will set the voice envelope"
				}

			}
, 			{
				"box" : 				{
					"id" : "obj-13",
					"linecount" : 6,
					"maxclass" : "comment",
					"numinlets" : 1,
					"numoutlets" : 0,
					"patching_rect" : [ 187.0, 635.0, 150.0, 86.0 ],
					"text" : "The freeze can last the duration of the freeze buffer in this case 600000 ms. If it does over the duration the buffer loops and the freeze will be overwritten.",
					"textcolor" : [ 0.392156862745098, 0.392156862745098, 0.392156862745098, 1.0 ]
				}

			}
, 			{
				"box" : 				{
					"id" : "obj-4",
					"linecount" : 2,
					"maxclass" : "comment",
					"numinlets" : 1,
					"numoutlets" : 0,
					"patching_rect" : [ 15.0, 50.0, 558.0, 33.0 ],
					"text" : "grainflow.freeze is designed to freeze a moment in time for the duration of a midi note.\nThe freeze starts with a small granulation area and expands to freezeDepth over the freezeExpandTime. "
				}

			}
, 			{
				"box" : 				{
					"bubble" : 1,
					"id" : "obj-51",
					"linecount" : 3,
					"maxclass" : "comment",
					"numinlets" : 1,
					"numoutlets" : 0,
					"patching_rect" : [ 164.5, 443.0, 148.0, 50.0 ],
					"text" : "The time it take for the freeze to reach its freeze depth"
				}

			}
, 			{
				"box" : 				{
					"format" : 6,
					"id" : "obj-48",
					"maxclass" : "flonum",
					"numinlets" : 1,
					"numoutlets" : 2,
					"outlettype" : [ "", "bang" ],
					"parameter_enable" : 1,
					"patching_rect" : [ 41.0, 426.5, 50.0, 22.0 ],
					"saved_attribute_attributes" : 					{
						"valueof" : 						{
							"parameter_initial" : [ 500 ],
							"parameter_initial_enable" : 1,
							"parameter_invisible" : 1,
							"parameter_longname" : "number",
							"parameter_shortname" : "number",
							"parameter_type" : 3
						}

					}
,
					"varname" : "number"
				}

			}
, 			{
				"box" : 				{
					"id" : "obj-49",
					"maxclass" : "message",
					"numinlets" : 2,
					"numoutlets" : 1,
					"outlettype" : [ "" ],
					"patching_rect" : [ 41.0, 463.5, 117.0, 22.0 ],
					"text" : "freezeExpandTime $1"
				}

			}
, 			{
				"box" : 				{
					"bubble" : 1,
					"id" : "obj-47",
					"linecount" : 4,
					"maxclass" : "comment",
					"numinlets" : 1,
					"numoutlets" : 0,
					"patching_rect" : [ 168.5, 513.0, 141.0, 63.0 ],
					"text" : "The maximum distance in ms the freeze will span after the freezeExpandTime"
				}

			}
, 			{
				"box" : 				{
					"format" : 6,
					"id" : "obj-43",
					"maxclass" : "flonum",
					"numinlets" : 1,
					"numoutlets" : 2,
					"outlettype" : [ "", "bang" ],
					"parameter_enable" : 1,
					"patching_rect" : [ 69.0, 491.5, 50.0, 22.0 ],
					"saved_attribute_attributes" : 					{
						"valueof" : 						{
							"parameter_initial" : [ 100 ],
							"parameter_initial_enable" : 1,
							"parameter_invisible" : 1,
							"parameter_longname" : "number[1]",
							"parameter_shortname" : "number[1]",
							"parameter_type" : 3
						}

					}
,
					"varname" : "number[1]"
				}

			}
, 			{
				"box" : 				{
					"id" : "obj-44",
					"maxclass" : "message",
					"numinlets" : 2,
					"numoutlets" : 1,
					"outlettype" : [ "" ],
					"patching_rect" : [ 69.0, 528.5, 86.0, 22.0 ],
					"text" : "freezeDepth $1"
				}

			}
, 			{
				"box" : 				{
					"bubble" : 1,
					"id" : "obj-42",
					"maxclass" : "comment",
					"numinlets" : 1,
					"numoutlets" : 0,
					"patching_rect" : [ 58.5, 370.0, 150.0, 24.0 ],
					"text" : "View the internal buffer"
				}

			}
, 			{
				"box" : 				{
					"bgmode" : 2,
					"border" : 0,
					"clickthrough" : 0,
					"embed" : 1,
					"enablehscroll" : 0,
					"enablevscroll" : 0,
					"id" : "obj-33",
					"lockeddragscroll" : 0,
					"maxclass" : "bpatcher",
					"name" : "ADSRControl.maxpat",
					"numinlets" : 1,
					"numoutlets" : 1,
					"offset" : [ 0.0, 0.0 ],
					"outlettype" : [ "" ],
					"patcher" : 					{
						"fileversion" : 1,
						"appversion" : 						{
							"major" : 8,
							"minor" : 1,
							"revision" : 8,
							"architecture" : "x64",
							"modernui" : 1
						}
,
						"classnamespace" : "box",
						"rect" : [ 1419.0, 728.0, 640.0, 631.0 ],
						"bglocked" : 0,
						"openinpresentation" : 0,
						"default_fontsize" : 12.0,
						"default_fontface" : 0,
						"default_fontname" : "Arial",
						"gridonopen" : 1,
						"gridsize" : [ 15.0, 15.0 ],
						"gridsnaponopen" : 1,
						"objectsnaponopen" : 1,
						"statusbarvisible" : 2,
						"toolbarvisible" : 1,
						"lefttoolbarpinned" : 0,
						"toptoolbarpinned" : 0,
						"righttoolbarpinned" : 0,
						"bottomtoolbarpinned" : 0,
						"toolbars_unpinned_last_save" : 0,
						"tallnewobj" : 0,
						"boxanimatetime" : 200,
						"enablehscroll" : 1,
						"enablevscroll" : 1,
						"devicewidth" : 0.0,
						"description" : "",
						"digest" : "",
						"tags" : "",
						"style" : "",
						"subpatcher_template" : "",
						"assistshowspatchername" : 0,
						"boxes" : [ 							{
								"box" : 								{
									"id" : "obj-3",
									"maxclass" : "newobj",
									"numinlets" : 1,
									"numoutlets" : 1,
									"outlettype" : [ "bang" ],
									"patching_rect" : [ 246.0, 114.0, 58.0, 22.0 ],
									"text" : "loadbang"
								}

							}
, 							{
								"box" : 								{
									"id" : "obj-2",
									"maxclass" : "newobj",
									"numinlets" : 1,
									"numoutlets" : 2,
									"outlettype" : [ "", "" ],
									"patching_rect" : [ 215.0, 235.0, 69.0, 22.0 ],
									"save" : [ "#N", "thispatcher", ";", "#Q", "end", ";" ],
									"text" : "thispatcher"
								}

							}
, 							{
								"box" : 								{
									"comment" : "",
									"id" : "obj-1",
									"index" : 1,
									"maxclass" : "inlet",
									"numinlets" : 0,
									"numoutlets" : 1,
									"outlettype" : [ "" ],
									"patching_rect" : [ 215.0, 194.0, 30.0, 30.0 ]
								}

							}
, 							{
								"box" : 								{
									"comment" : "",
									"id" : "obj-40",
									"index" : 1,
									"maxclass" : "outlet",
									"numinlets" : 1,
									"numoutlets" : 0,
									"patching_rect" : [ 7.0, 189.0, 30.0, 30.0 ]
								}

							}
, 							{
								"box" : 								{
									"id" : "obj-39",
									"maxclass" : "newobj",
									"numinlets" : 4,
									"numoutlets" : 1,
									"outlettype" : [ "" ],
									"patching_rect" : [ 7.0, 150.0, 110.0, 22.0 ],
									"text" : "pak 500. 0. 1. 500."
								}

							}
, 							{
								"box" : 								{
									"id" : "obj-38",
									"maxclass" : "live.dial",
									"numinlets" : 1,
									"numoutlets" : 2,
									"outlettype" : [ "", "float" ],
									"parameter_enable" : 1,
									"patching_rect" : [ 145.0, 5.0, 44.0, 48.0 ],
									"saved_attribute_attributes" : 									{
										"valueof" : 										{
											"parameter_initial" : [ 500 ],
											"parameter_initial_enable" : 1,
											"parameter_linknames" : 1,
											"parameter_longname" : "R",
											"parameter_mmax" : 5000.0,
											"parameter_mmin" : 10.0,
											"parameter_shortname" : "R",
											"parameter_type" : 0,
											"parameter_unitstyle" : 0
										}

									}
,
									"varname" : "R"
								}

							}
, 							{
								"box" : 								{
									"id" : "obj-37",
									"maxclass" : "live.dial",
									"numinlets" : 1,
									"numoutlets" : 2,
									"outlettype" : [ "", "float" ],
									"parameter_enable" : 1,
									"patching_rect" : [ 99.0, 5.0, 44.0, 48.0 ],
									"saved_attribute_attributes" : 									{
										"valueof" : 										{
											"parameter_initial" : [ 1 ],
											"parameter_initial_enable" : 1,
											"parameter_linknames" : 1,
											"parameter_longname" : "S",
											"parameter_mmax" : 1.0,
											"parameter_shortname" : "S",
											"parameter_type" : 0,
											"parameter_unitstyle" : 1
										}

									}
,
									"varname" : "S"
								}

							}
, 							{
								"box" : 								{
									"id" : "obj-36",
									"maxclass" : "live.dial",
									"numinlets" : 1,
									"numoutlets" : 2,
									"outlettype" : [ "", "float" ],
									"parameter_enable" : 1,
									"patching_rect" : [ 53.0, 5.0, 44.0, 48.0 ],
									"saved_attribute_attributes" : 									{
										"valueof" : 										{
											"parameter_linknames" : 1,
											"parameter_longname" : "D",
											"parameter_mmax" : 1000.0,
											"parameter_shortname" : "D",
											"parameter_type" : 0,
											"parameter_unitstyle" : 0
										}

									}
,
									"varname" : "D"
								}

							}
, 							{
								"box" : 								{
									"id" : "obj-35",
									"maxclass" : "live.dial",
									"numinlets" : 1,
									"numoutlets" : 2,
									"outlettype" : [ "", "float" ],
									"parameter_enable" : 1,
									"patching_rect" : [ 7.0, 5.0, 44.0, 48.0 ],
									"saved_attribute_attributes" : 									{
										"valueof" : 										{
											"parameter_initial" : [ 500 ],
											"parameter_initial_enable" : 1,
											"parameter_linknames" : 1,
											"parameter_longname" : "A",
											"parameter_mmax" : 5000.0,
											"parameter_mmin" : 10.0,
											"parameter_shortname" : "A",
											"parameter_type" : 0,
											"parameter_unitstyle" : 0
										}

									}
,
									"varname" : "A"
								}

							}
 ],
						"lines" : [ 							{
								"patchline" : 								{
									"destination" : [ "obj-2", 0 ],
									"source" : [ "obj-1", 0 ]
								}

							}
, 							{
								"patchline" : 								{
									"destination" : [ "obj-39", 0 ],
									"source" : [ "obj-3", 0 ]
								}

							}
, 							{
								"patchline" : 								{
									"destination" : [ "obj-39", 0 ],
									"hidden" : 1,
									"source" : [ "obj-35", 0 ]
								}

							}
, 							{
								"patchline" : 								{
									"destination" : [ "obj-39", 1 ],
									"hidden" : 1,
									"source" : [ "obj-36", 0 ]
								}

							}
, 							{
								"patchline" : 								{
									"destination" : [ "obj-39", 2 ],
									"hidden" : 1,
									"source" : [ "obj-37", 0 ]
								}

							}
, 							{
								"patchline" : 								{
									"destination" : [ "obj-39", 3 ],
									"hidden" : 1,
									"source" : [ "obj-38", 0 ]
								}

							}
, 							{
								"patchline" : 								{
									"destination" : [ "obj-40", 0 ],
									"source" : [ "obj-39", 0 ]
								}

							}
 ]
					}
,
					"patching_rect" : [ 340.0, 426.5, 205.0, 64.0 ],
					"viewvisibility" : 1
				}

			}
, 			{
				"box" : 				{
					"id" : "obj-32",
					"linecount" : 4,
					"maxclass" : "comment",
					"numinlets" : 1,
					"numoutlets" : 0,
					"patching_rect" : [ 374.0, 256.0, 153.0, 59.0 ],
					"text" : "Midi notes are used to mark voices.  The velocity will translate to loudness but pitch does not matter",
					"textcolor" : [ 0.392156862745098, 0.392156862745098, 0.392156862745098, 1.0 ]
				}

			}
, 			{
				"box" : 				{
					"format" : 6,
					"id" : "obj-29",
					"maxclass" : "flonum",
					"numinlets" : 1,
					"numoutlets" : 2,
					"outlettype" : [ "", "bang" ],
					"parameter_enable" : 0,
					"patching_rect" : [ 14.0, 252.5, 50.0, 22.0 ]
				}

			}
, 			{
				"box" : 				{
					"id" : "obj-27",
					"maxclass" : "message",
					"numinlets" : 2,
					"numoutlets" : 1,
					"outlettype" : [ "" ],
					"patching_rect" : [ 14.0, 289.5, 134.0, 22.0 ],
					"text" : "windowOffsetRandom $1"
				}

			}
, 			{
				"box" : 				{
					"bubble" : 1,
					"id" : "obj-25",
					"linecount" : 2,
					"maxclass" : "comment",
					"numinlets" : 1,
					"numoutlets" : 0,
					"patching_rect" : [ 83.0, 245.0, 150.0, 37.0 ],
					"text" : "most grainflow messages will work with the freeze."
				}

			}
, 			{
				"box" : 				{
					"bubble" : 1,
					"id" : "obj-21",
					"linecount" : 2,
					"maxclass" : "comment",
					"numinlets" : 1,
					"numoutlets" : 0,
					"patching_rect" : [ 96.0, 202.0, 191.0, 37.0 ],
					"text" : "transpose will apply a transposition to new voices"
				}

			}
, 			{
				"box" : 				{
					"id" : "obj-15",
					"maxclass" : "newobj",
					"numinlets" : 1,
					"numoutlets" : 1,
					"outlettype" : [ "" ],
					"patching_rect" : [ 340.0, 503.0, 75.0, 22.0 ],
					"text" : "prepend adsr"
				}

			}
, 			{
				"box" : 				{
					"id" : "obj-8",
					"maxclass" : "newobj",
					"numinlets" : 2,
					"numoutlets" : 1,
					"outlettype" : [ "" ],
					"patching_rect" : [ 345.0, 256.0, 29.5, 22.0 ],
					"text" : "join"
				}

			}
, 			{
				"box" : 				{
					"hkeycolor" : [ 1.0, 0.643137254901961, 0.643137254901961, 1.0 ],
					"id" : "obj-7",
					"maxclass" : "kslider",
					"mode" : 1,
					"numinlets" : 2,
					"numoutlets" : 2,
					"outlettype" : [ "int", "int" ],
					"parameter_enable" : 0,
					"patching_rect" : [ 345.0, 186.0, 336.0, 53.0 ]
				}

			}
, 			{
				"box" : 				{
					"elementcolor" : [ 0.847058823529412, 0.847058823529412, 0.847058823529412, 1.0 ],
					"id" : "obj-5",
					"local" : 1,
					"maxclass" : "ezdac~",
					"numinlets" : 2,
					"numoutlets" : 0,
					"patching_rect" : [ 17.5, 803.0, 45.0, 45.0 ]
				}

			}
, 			{
				"box" : 				{
					"fontsize" : 30.0,
					"id" : "obj-3",
					"maxclass" : "comment",
					"numinlets" : 1,
					"numoutlets" : 0,
					"patching_rect" : [ 15.0, 5.0, 423.0, 42.0 ],
					"text" : "grainflow.freeze~"
				}

			}
, 			{
				"box" : 				{
					"format" : 6,
					"id" : "obj-36",
					"maxclass" : "flonum",
					"numinlets" : 1,
					"numoutlets" : 2,
					"outlettype" : [ "", "bang" ],
					"parameter_enable" : 0,
					"patching_rect" : [ 14.0, 181.0, 50.0, 22.0 ]
				}

			}
, 			{
				"box" : 				{
					"id" : "obj-34",
					"maxclass" : "message",
					"numinlets" : 2,
					"numoutlets" : 1,
					"outlettype" : [ "" ],
					"patching_rect" : [ 14.0, 212.0, 74.0, 22.0 ],
					"text" : "transpose $1"
				}

			}
, 			{
				"box" : 				{
					"id" : "obj-22",
					"maxclass" : "message",
					"numinlets" : 2,
					"numoutlets" : 1,
					"outlettype" : [ "" ],
					"patching_rect" : [ 17.5, 370.0, 33.0, 22.0 ],
					"text" : "open"
				}

			}
, 			{
				"box" : 				{
					"basictuning" : 440,
					"data" : 					{
						"clips" : [ 							{
								"absolutepath" : "FemVoice.aif",
								"filename" : "FemVoice.aif",
								"filekind" : "audiofile",
								"id" : "u701005898",
								"selection" : [ 0.0, 1.0 ],
								"loop" : 1,
								"content_state" : 								{
									"loop" : 1
								}

							}
 ]
					}
,
					"followglobaltempo" : 0,
					"formantcorrection" : 0,
					"id" : "obj-14",
					"maxclass" : "playlist~",
					"mode" : "basic",
					"numinlets" : 1,
					"numoutlets" : 5,
					"originallength" : [ 0.0, "ticks" ],
					"originaltempo" : 120.0,
					"outlettype" : [ "signal", "signal", "signal", "", "dictionary" ],
					"parameter_enable" : 0,
					"patching_rect" : [ 14.0, 130.0, 150.0, 30.0 ],
					"pitchcorrection" : 0,
					"quality" : "basic",
					"timestretch" : [ 0 ]
				}

			}
, 			{
				"box" : 				{
					"id" : "obj-12",
					"maxclass" : "newobj",
					"numinlets" : 2,
					"numoutlets" : 1,
					"outlettype" : [ "multichannelsignal" ],
					"patching_rect" : [ 17.5, 689.0, 157.0, 22.0 ],
					"text" : "mc.mixdown~ 1 @autogain 1"
				}

			}
, 			{
				"box" : 				{
					"id" : "obj-10",
					"maxclass" : "newobj",
					"numinlets" : 2,
					"numoutlets" : 1,
					"outlettype" : [ "signal" ],
					"patching_rect" : [ 60.5, 597.0, 67.0, 22.0 ],
					"text" : "phasor~ 10"
				}

			}
, 			{
				"box" : 				{
					"id" : "obj-6",
					"maxclass" : "toggle",
					"numinlets" : 1,
					"numoutlets" : 1,
					"outlettype" : [ "int" ],
					"parameter_enable" : 0,
					"patching_rect" : [ 15.0, 95.0, 24.0, 24.0 ],
					"uncheckedcolor" : [ 0.847058823529412, 0.847058823529412, 0.847058823529412, 1.0 ]
				}

			}
, 			{
				"box" : 				{
					"id" : "obj-1",
					"maxclass" : "newobj",
					"numinlets" : 4,
					"numoutlets" : 1,
					"outlettype" : [ "multichannelsignal" ],
					"patching_rect" : [ 17.5, 644.0, 148.0, 22.0 ],
					"text" : "grainflow.freeze~ 600000 8"
				}

			}
 ],
		"lines" : [ 			{
				"patchline" : 				{
					"destination" : [ "obj-12", 0 ],
					"source" : [ "obj-1", 0 ]
				}

			}
, 			{
				"patchline" : 				{
					"destination" : [ "obj-1", 1 ],
					"source" : [ "obj-10", 0 ]
				}

			}
, 			{
				"patchline" : 				{
					"destination" : [ "obj-5", 1 ],
					"order" : 0,
					"source" : [ "obj-11", 0 ]
				}

			}
, 			{
				"patchline" : 				{
					"destination" : [ "obj-5", 0 ],
					"order" : 1,
					"source" : [ "obj-11", 0 ]
				}

			}
, 			{
				"patchline" : 				{
					"destination" : [ "obj-11", 0 ],
					"source" : [ "obj-12", 0 ]
				}

			}
, 			{
				"patchline" : 				{
					"destination" : [ "obj-1", 0 ],
					"source" : [ "obj-14", 0 ]
				}

			}
, 			{
				"patchline" : 				{
					"destination" : [ "obj-1", 0 ],
					"midpoints" : [ 349.5, 582.25, 27.0, 582.25 ],
					"source" : [ "obj-15", 0 ]
				}

			}
, 			{
				"patchline" : 				{
					"destination" : [ "obj-1", 0 ],
					"source" : [ "obj-22", 0 ]
				}

			}
, 			{
				"patchline" : 				{
					"destination" : [ "obj-1", 0 ],
					"source" : [ "obj-27", 0 ]
				}

			}
, 			{
				"patchline" : 				{
					"destination" : [ "obj-27", 0 ],
					"source" : [ "obj-29", 0 ]
				}

			}
, 			{
				"patchline" : 				{
					"destination" : [ "obj-15", 0 ],
					"source" : [ "obj-33", 0 ]
				}

			}
, 			{
				"patchline" : 				{
					"destination" : [ "obj-1", 0 ],
					"source" : [ "obj-34", 0 ]
				}

			}
, 			{
				"patchline" : 				{
					"destination" : [ "obj-34", 0 ],
					"source" : [ "obj-36", 0 ]
				}

			}
, 			{
				"patchline" : 				{
					"destination" : [ "obj-44", 0 ],
					"source" : [ "obj-43", 0 ]
				}

			}
, 			{
				"patchline" : 				{
					"destination" : [ "obj-1", 0 ],
					"midpoints" : [ 78.5, 567.75, 27.0, 567.75 ],
					"source" : [ "obj-44", 0 ]
				}

			}
, 			{
				"patchline" : 				{
					"destination" : [ "obj-49", 0 ],
					"source" : [ "obj-48", 0 ]
				}

			}
, 			{
				"patchline" : 				{
					"destination" : [ "obj-1", 0 ],
					"midpoints" : [ 50.5, 564.25, 27.0, 564.25 ],
					"source" : [ "obj-49", 0 ]
				}

			}
, 			{
				"patchline" : 				{
					"destination" : [ "obj-1", 0 ],
					"source" : [ "obj-6", 0 ]
				}

			}
, 			{
				"patchline" : 				{
					"destination" : [ "obj-8", 1 ],
					"source" : [ "obj-7", 1 ]
				}

			}
, 			{
				"patchline" : 				{
					"destination" : [ "obj-8", 0 ],
					"source" : [ "obj-7", 0 ]
				}

			}
, 			{
				"patchline" : 				{
					"color" : [ 0.0, 0.0, 0.0, 1.0 ],
					"destination" : [ "obj-1", 0 ],
					"midpoints" : [ 354.5, 415.5, 27.0, 415.5 ],
					"source" : [ "obj-8", 0 ]
				}

			}
 ],
		"parameters" : 		{
			"obj-11" : [ "live.gain~", "live.gain~", 0 ],
			"obj-33::obj-35" : [ "A", "A", 0 ],
			"obj-33::obj-36" : [ "D", "D", 0 ],
			"obj-33::obj-37" : [ "S", "S", 0 ],
			"obj-33::obj-38" : [ "R", "R", 0 ],
			"obj-43" : [ "number[1]", "number[1]", 0 ],
			"obj-48" : [ "number", "number", 0 ],
			"parameterbanks" : 			{

			}
,
			"inherited_shortname" : 1
		}
,
		"dependency_cache" : [ 			{
				"name" : "grainflow.freeze~.maxpat",
				"bootpath" : "D:/Documents/Max 8/Packages/grainflow/patchers",
				"patcherrelativepath" : "../patchers",
				"type" : "JSON",
				"implicit" : 1
			}
, 			{
				"name" : "_grainflow.poly.freezer.maxpat",
				"bootpath" : "D:/Documents/Max 8/Packages/grainflow/patchers",
				"patcherrelativepath" : "../patchers",
				"type" : "JSON",
				"implicit" : 1
			}
, 			{
				"name" : "grainFlow~.maxpat",
				"bootpath" : "D:/Documents/Max 8/Packages/grainflow/patchers",
				"patcherrelativepath" : "../patchers",
				"type" : "JSON",
				"implicit" : 1
			}
, 			{
				"name" : "_grainflow.poly.maxpat",
				"bootpath" : "D:/Documents/Max 8/Packages/grainflow/patchers",
				"patcherrelativepath" : "../patchers",
				"type" : "JSON",
				"implicit" : 1
			}
, 			{
				"name" : "grainflow.voice.gendsp",
				"bootpath" : "D:/Documents/Max 8/Packages/grainflow/code",
				"patcherrelativepath" : "../code",
				"type" : "gDSP",
				"implicit" : 1
			}
, 			{
				"name" : "grainflow.util.record~.maxpat",
				"bootpath" : "D:/Documents/Max 8/Packages/grainflow/patchers/util",
				"patcherrelativepath" : "../patchers/util",
				"type" : "JSON",
				"implicit" : 1
			}
, 			{
				"name" : "grainflow.record.gendsp",
				"bootpath" : "D:/Documents/Max 8/Packages/grainflow/code",
				"patcherrelativepath" : "../code",
				"type" : "gDSP",
				"implicit" : 1
			}
, 			{
				"name" : "FemVoice.aif",
				"bootpath" : "C74:/patchers/m4l/Pluggo for Live resources/samples",
				"type" : "AIFF",
				"implicit" : 1
			}
 ],
		"autosave" : 0,
		"boxgroups" : [ 			{
				"boxes" : [ "obj-39", "obj-38" ]
			}
, 			{
				"boxes" : [ "obj-24", "obj-35" ]
			}
, 			{
				"boxes" : [ "obj-31", "obj-30" ]
			}
 ],
		"styles" : [ 			{
				"name" : "Minimal",
				"default" : 				{
					"elementcolor" : [ 0.999999, 0.999974, 0.999991, 1.0 ],
					"color" : [ 0.0, 0.0, 0.0, 1.0 ],
					"fontsize" : [ 10.0 ],
					"textcolor_inverse" : [ 0.0, 0.0, 0.0, 1.0 ],
					"fontname" : [ "Futura Medium" ],
					"bgcolor" : [ 0.999999, 0.999974, 0.999991, 1.0 ],
					"bgfillcolor" : 					{
						"type" : "color",
						"color" : [ 0.65098, 0.666667, 0.662745, 1.0 ],
						"color1" : [ 0.65098, 0.666667, 0.662745, 1.0 ],
						"color2" : [ 0.290196, 0.309804, 0.301961, 1.0 ],
						"angle" : 270.0,
						"proportion" : 0.39,
						"autogradient" : 0.0
					}
,
					"fontface" : [ 0 ],
					"accentcolor" : [ 0.0, 0.0, 0.0, 1.0 ],
					"selectioncolor" : [ 0.0, 0.0, 0.0, 1.0 ]
				}
,
				"parentstyle" : "",
				"multi" : 0
			}
 ],
		"editing_bgcolor" : [ 0.956862745098039, 0.956862745098039, 0.956862745098039, 1.0 ]
	}

}
