{
	"patcher" : 	{
		"fileversion" : 1,
		"appversion" : 		{
			"major" : 8,
			"minor" : 1,
			"revision" : 8,
			"architecture" : "x64",
			"modernui" : 1
		}
,
		"classnamespace" : "box",
		"rect" : [ 68.0, 86.0, 1450.0, 953.0 ],
		"bglocked" : 0,
		"openinpresentation" : 0,
		"default_fontsize" : 10.0,
		"default_fontface" : 0,
		"default_fontname" : "Futura Medium",
		"gridonopen" : 1,
		"gridsize" : [ 15.0, 15.0 ],
		"gridsnaponopen" : 1,
		"objectsnaponopen" : 1,
		"statusbarvisible" : 2,
		"toolbarvisible" : 1,
		"lefttoolbarpinned" : 0,
		"toptoolbarpinned" : 0,
		"righttoolbarpinned" : 0,
		"bottomtoolbarpinned" : 0,
		"toolbars_unpinned_last_save" : 0,
		"tallnewobj" : 0,
		"boxanimatetime" : 200,
		"enablehscroll" : 1,
		"enablevscroll" : 1,
		"devicewidth" : 0.0,
		"description" : "",
		"digest" : "",
		"tags" : "",
		"style" : "Minimal",
		"subpatcher_template" : "minimal",
		"showrootpatcherontab" : 0,
		"showontab" : 0,
		"assistshowspatchername" : 0,
		"boxes" : [ 			{
				"box" : 				{
					"id" : "obj-106",
					"maxclass" : "newobj",
					"numinlets" : 0,
					"numoutlets" : 0,
					"patcher" : 					{
						"fileversion" : 1,
						"appversion" : 						{
							"major" : 8,
							"minor" : 1,
							"revision" : 8,
							"architecture" : "x64",
							"modernui" : 1
						}
,
						"classnamespace" : "box",
						"rect" : [ 0.0, 26.0, 1450.0, 927.0 ],
						"bglocked" : 0,
						"openinpresentation" : 0,
						"default_fontsize" : 10.0,
						"default_fontface" : 0,
						"default_fontname" : "Futura Medium",
						"gridonopen" : 1,
						"gridsize" : [ 15.0, 15.0 ],
						"gridsnaponopen" : 1,
						"objectsnaponopen" : 1,
						"statusbarvisible" : 2,
						"toolbarvisible" : 1,
						"lefttoolbarpinned" : 0,
						"toptoolbarpinned" : 0,
						"righttoolbarpinned" : 0,
						"bottomtoolbarpinned" : 0,
						"toolbars_unpinned_last_save" : 0,
						"tallnewobj" : 0,
						"boxanimatetime" : 200,
						"enablehscroll" : 1,
						"enablevscroll" : 1,
						"devicewidth" : 0.0,
						"description" : "",
						"digest" : "",
						"tags" : "",
						"style" : "Minimal",
						"subpatcher_template" : "minimal",
						"showontab" : 1,
						"assistshowspatchername" : 0,
						"title" : "Using Buffers",
						"boxes" : [ 							{
								"box" : 								{
									"border" : 0,
									"embedstate" : [ [ "dotScale", 1 ], [ "maxBufferDrawSamples", 1920 ], [ "bgColor", 1, 1, 1, 0 ], [ "buffername", "_help_grainBuf1" ], [ "dotColor", 1, 0, 0, 0.9 ], [ "dotVJitter", 0 ], [ "selection", 0, 1 ], [ "waveformColor", 0.1, 0.1, 0.1, 1 ], [ "dotColorSecondary", 0.5, 0, 0, 0.9 ], [ "selectColor", 1, 1, 1, 0.75 ], [ "mode", 0 ] ],
									"filename" : "grainFlow.waveform~.js",
									"id" : "obj-1",
									"maxclass" : "jsui",
									"numinlets" : 1,
									"numoutlets" : 2,
									"outlettype" : [ "", "" ],
									"parameter_enable" : 0,
									"patching_rect" : [ 186.5, 586.5, 471.0, 126.0 ]
								}

							}
, 							{
								"box" : 								{
									"id" : "obj-51",
									"maxclass" : "message",
									"numinlets" : 2,
									"numoutlets" : 1,
									"outlettype" : [ "" ],
									"patching_rect" : [ 275.0, 341.0, 29.5, 21.0 ],
									"text" : "2"
								}

							}
, 							{
								"box" : 								{
									"id" : "obj-49",
									"maxclass" : "number",
									"numinlets" : 1,
									"numoutlets" : 2,
									"outlettype" : [ "", "bang" ],
									"parameter_enable" : 0,
									"patching_rect" : [ 175.0, 346.0, 50.0, 21.0 ]
								}

							}
, 							{
								"box" : 								{
									"format" : 6,
									"id" : "obj-45",
									"maxclass" : "flonum",
									"numinlets" : 1,
									"numoutlets" : 2,
									"outlettype" : [ "", "bang" ],
									"parameter_enable" : 0,
									"patching_rect" : [ 636.5, 450.5, 50.0, 21.0 ]
								}

							}
, 							{
								"box" : 								{
									"id" : "obj-46",
									"maxclass" : "newobj",
									"numinlets" : 1,
									"numoutlets" : 0,
									"patching_rect" : [ 636.5, 536.0, 105.0, 21.0 ],
									"text" : "s _help_buf_grain1"
								}

							}
, 							{
								"box" : 								{
									"id" : "obj-47",
									"maxclass" : "message",
									"numinlets" : 2,
									"numoutlets" : 1,
									"outlettype" : [ "" ],
									"patching_rect" : [ 636.5, 494.0, 86.0, 21.0 ],
									"text" : "travRandom $1"
								}

							}
, 							{
								"box" : 								{
									"format" : 6,
									"id" : "obj-44",
									"maxclass" : "flonum",
									"numinlets" : 1,
									"numoutlets" : 2,
									"outlettype" : [ "", "bang" ],
									"parameter_enable" : 0,
									"patching_rect" : [ 379.0, 440.5, 50.0, 21.0 ]
								}

							}
, 							{
								"box" : 								{
									"id" : "obj-40",
									"maxclass" : "newobj",
									"numinlets" : 1,
									"numoutlets" : 0,
									"patching_rect" : [ 379.0, 526.0, 105.0, 21.0 ],
									"text" : "s _help_buf_grain1"
								}

							}
, 							{
								"box" : 								{
									"id" : "obj-39",
									"maxclass" : "message",
									"numinlets" : 2,
									"numoutlets" : 1,
									"outlettype" : [ "" ],
									"patching_rect" : [ 379.0, 484.0, 86.0, 21.0 ],
									"text" : "rateRandom $1"
								}

							}
, 							{
								"box" : 								{
									"id" : "obj-37",
									"maxclass" : "comment",
									"numinlets" : 1,
									"numoutlets" : 0,
									"patching_rect" : [ 379.0, 180.0, 150.0, 19.0 ],
									"text" : "Rate"
								}

							}
, 							{
								"box" : 								{
									"id" : "obj-36",
									"maxclass" : "comment",
									"numinlets" : 1,
									"numoutlets" : 0,
									"patching_rect" : [ 642.5, 184.0, 150.0, 19.0 ],
									"text" : "Traversal in ms"
								}

							}
, 							{
								"box" : 								{
									"id" : "obj-33",
									"maxclass" : "newobj",
									"numinlets" : 1,
									"numoutlets" : 1,
									"outlettype" : [ "" ],
									"patching_rect" : [ 640.0, 323.0, 105.0, 21.0 ],
									"text" : "vexpr $f1 * 10000."
								}

							}
, 							{
								"box" : 								{
									"id" : "obj-32",
									"maxclass" : "message",
									"numinlets" : 2,
									"numoutlets" : 1,
									"outlettype" : [ "" ],
									"patching_rect" : [ 175.0, 370.0, 141.0, 21.0 ],
									"text" : "travMode $1, rateMode $1"
								}

							}
, 							{
								"box" : 								{
									"id" : "obj-25",
									"maxclass" : "newobj",
									"numinlets" : 1,
									"numoutlets" : 1,
									"outlettype" : [ "list" ],
									"patching_rect" : [ 640.0, 351.0, 64.0, 21.0 ],
									"text" : "listfunnel 0"
								}

							}
, 							{
								"box" : 								{
									"id" : "obj-27",
									"maxclass" : "newobj",
									"numinlets" : 3,
									"numoutlets" : 1,
									"outlettype" : [ "float" ],
									"patching_rect" : [ 640.0, 383.0, 98.0, 21.0 ],
									"text" : "peek~ _help_trav"
								}

							}
, 							{
								"box" : 								{
									"id" : "obj-23",
									"maxclass" : "newobj",
									"numinlets" : 1,
									"numoutlets" : 1,
									"outlettype" : [ "list" ],
									"patching_rect" : [ 379.0, 316.0, 64.0, 21.0 ],
									"text" : "listfunnel 0"
								}

							}
, 							{
								"box" : 								{
									"id" : "obj-21",
									"maxclass" : "newobj",
									"numinlets" : 3,
									"numoutlets" : 1,
									"outlettype" : [ "float" ],
									"patching_rect" : [ 379.0, 351.0, 103.0, 21.0 ],
									"text" : "peek~ _help_rates"
								}

							}
, 							{
								"box" : 								{
									"contdata" : 1,
									"id" : "obj-19",
									"maxclass" : "multislider",
									"numinlets" : 1,
									"numoutlets" : 2,
									"outlettype" : [ "", "" ],
									"parameter_enable" : 0,
									"patching_rect" : [ 379.0, 207.0, 222.0, 98.0 ],
									"setminmax" : [ 1.0, 2.0 ],
									"size" : 5
								}

							}
, 							{
								"box" : 								{
									"contdata" : 1,
									"id" : "obj-18",
									"maxclass" : "multislider",
									"numinlets" : 1,
									"numoutlets" : 2,
									"outlettype" : [ "", "" ],
									"parameter_enable" : 0,
									"patching_rect" : [ 642.5, 207.0, 198.0, 102.0 ],
									"setminmax" : [ 0.0, 1.0 ],
									"size" : 5
								}

							}
, 							{
								"box" : 								{
									"id" : "obj-17",
									"maxclass" : "newobj",
									"numinlets" : 1,
									"numoutlets" : 1,
									"outlettype" : [ "bang" ],
									"patching_rect" : [ 148.169270833333258, 271.0, 54.0, 21.0 ],
									"text" : "loadbang"
								}

							}
, 							{
								"box" : 								{
									"id" : "obj-16",
									"maxclass" : "newobj",
									"numinlets" : 1,
									"numoutlets" : 2,
									"outlettype" : [ "float", "bang" ],
									"patching_rect" : [ 636.5, 412.0, 160.0, 21.0 ],
									"text" : "buffer~ _help_trav @samps 5"
								}

							}
, 							{
								"box" : 								{
									"id" : "obj-15",
									"maxclass" : "message",
									"numinlets" : 2,
									"numoutlets" : 1,
									"outlettype" : [ "" ],
									"patching_rect" : [ 247.0, 306.0, 121.0, 21.0 ],
									"text" : "travOffsets _help_trav"
								}

							}
, 							{
								"box" : 								{
									"id" : "obj-14",
									"maxclass" : "newobj",
									"numinlets" : 1,
									"numoutlets" : 2,
									"outlettype" : [ "float", "bang" ],
									"patching_rect" : [ 379.0, 381.0, 165.0, 21.0 ],
									"text" : "buffer~ _help_rates @samps 5"
								}

							}
, 							{
								"box" : 								{
									"id" : "obj-13",
									"maxclass" : "message",
									"numinlets" : 2,
									"numoutlets" : 1,
									"outlettype" : [ "" ],
									"patching_rect" : [ 148.169270833333258, 306.0, 96.0, 21.0 ],
									"text" : "rates _help_rates"
								}

							}
, 							{
								"box" : 								{
									"id" : "obj-35",
									"maxclass" : "newobj",
									"numinlets" : 0,
									"numoutlets" : 1,
									"outlettype" : [ "" ],
									"patching_rect" : [ 51.169270833333258, 370.0, 104.0, 21.0 ],
									"text" : "r _help_buf_grain1"
								}

							}
, 							{
								"box" : 								{
									"id" : "obj-31",
									"linecount" : 4,
									"maxclass" : "comment",
									"numinlets" : 1,
									"numoutlets" : 0,
									"patching_rect" : [ 18.0, 57.0, 561.0, 55.0 ],
									"text" : "Buffers can be used to set tables of paramters.  Buffers are read fomr 0-1 by voice/maxVoices with either no or linear interpolation.  Often a mode will need to be set to use buffers instead of the standard parameter.  For these modes mode 1 often deliniates random effecting the parameter value while mode 2 indicates that random values will effect the lookup position.  Mode 0 is the stndard mode with no buffer lookup."
								}

							}
, 							{
								"box" : 								{
									"fontsize" : 30.0,
									"id" : "obj-64",
									"maxclass" : "comment",
									"numinlets" : 1,
									"numoutlets" : 0,
									"patching_rect" : [ 18.0, 10.0, 487.0, 43.0 ],
									"text" : "grainFlow~ Using Buffers"
								}

							}
, 							{
								"box" : 								{
									"id" : "obj-26",
									"maxclass" : "comment",
									"numinlets" : 1,
									"numoutlets" : 0,
									"patching_rect" : [ 43.3359375, 347.0, 73.0, 19.0 ],
									"text" : "Grain Phasor"
								}

							}
, 							{
								"box" : 								{
									"id" : "obj-22",
									"maxclass" : "toggle",
									"numinlets" : 1,
									"numoutlets" : 1,
									"outlettype" : [ "int" ],
									"parameter_enable" : 0,
									"patching_rect" : [ 25.3359375, 149.0, 24.0, 24.0 ]
								}

							}
, 							{
								"box" : 								{
									"id" : "obj-20",
									"maxclass" : "message",
									"numinlets" : 2,
									"numoutlets" : 1,
									"outlettype" : [ "" ],
									"patching_rect" : [ 25.3359375, 207.0, 50.0, 21.0 ],
									"text" : "state $1"
								}

							}
, 							{
								"box" : 								{
									"id" : "obj-6",
									"maxclass" : "newobj",
									"numinlets" : 2,
									"numoutlets" : 1,
									"outlettype" : [ "signal" ],
									"patching_rect" : [ 30.169270833333258, 289.0, 67.0, 21.0 ],
									"text" : "phasor~ 10"
								}

							}
, 							{
								"box" : 								{
									"id" : "obj-4",
									"local" : 1,
									"maxclass" : "mc.ezdac~",
									"numinlets" : 1,
									"numoutlets" : 0,
									"patching_rect" : [ 25.3359375, 733.0, 45.0, 45.0 ]
								}

							}
, 							{
								"box" : 								{
									"id" : "obj-5",
									"linecount" : 4,
									"maxclass" : "comment",
									"numinlets" : 1,
									"numoutlets" : 0,
									"patching_rect" : [ 44.8359375, 437.0, 126.0, 55.0 ],
									"text" : "Each grain has its own channel.  This is convienent for bussing and panning."
								}

							}
, 							{
								"box" : 								{
									"id" : "obj-86",
									"maxclass" : "newobj",
									"numinlets" : 2,
									"numoutlets" : 1,
									"outlettype" : [ "multichannelsignal" ],
									"patching_rect" : [ 25.3359375, 680.0, 61.0, 21.0 ],
									"text" : "mc.*~ 0.5"
								}

							}
, 							{
								"box" : 								{
									"id" : "obj-52",
									"maxclass" : "newobj",
									"numinlets" : 4,
									"numoutlets" : 5,
									"outlettype" : [ "multichannelsignal", "", "multichannelsignal", "multichannelsignal", "multichannelsignal" ],
									"patching_rect" : [ 30.169270833333258, 414.0, 158.0, 21.0 ],
									"text" : "grainflow~ _help_grainBuf1 5"
								}

							}
, 							{
								"box" : 								{
									"id" : "obj-9",
									"lastchannelcount" : 5,
									"maxclass" : "mc.live.gain~",
									"numinlets" : 1,
									"numoutlets" : 4,
									"outlettype" : [ "multichannelsignal", "", "float", "list" ],
									"parameter_enable" : 1,
									"patching_rect" : [ 25.3359375, 507.5, 81.0, 123.0 ],
									"saved_attribute_attributes" : 									{
										"valueof" : 										{
											"parameter_longname" : "mc.live.gain~[2]",
											"parameter_mmax" : 6.0,
											"parameter_mmin" : -70.0,
											"parameter_shortname" : "grains",
											"parameter_type" : 0,
											"parameter_unitstyle" : 4
										}

									}
,
									"varname" : "mc.live.gain~"
								}

							}
, 							{
								"box" : 								{
									"id" : "obj-3",
									"maxclass" : "newobj",
									"numinlets" : 2,
									"numoutlets" : 1,
									"outlettype" : [ "multichannelsignal" ],
									"patching_rect" : [ 25.3359375, 649.0, 90.0, 21.0 ],
									"text" : "mc.mixdown~ 2"
								}

							}
 ],
						"lines" : [ 							{
								"patchline" : 								{
									"destination" : [ "obj-52", 0 ],
									"source" : [ "obj-13", 0 ]
								}

							}
, 							{
								"patchline" : 								{
									"destination" : [ "obj-52", 0 ],
									"source" : [ "obj-15", 0 ]
								}

							}
, 							{
								"patchline" : 								{
									"destination" : [ "obj-13", 0 ],
									"order" : 2,
									"source" : [ "obj-17", 0 ]
								}

							}
, 							{
								"patchline" : 								{
									"destination" : [ "obj-15", 0 ],
									"order" : 1,
									"source" : [ "obj-17", 0 ]
								}

							}
, 							{
								"patchline" : 								{
									"destination" : [ "obj-51", 0 ],
									"order" : 0,
									"source" : [ "obj-17", 0 ]
								}

							}
, 							{
								"patchline" : 								{
									"destination" : [ "obj-33", 0 ],
									"source" : [ "obj-18", 0 ]
								}

							}
, 							{
								"patchline" : 								{
									"destination" : [ "obj-23", 0 ],
									"source" : [ "obj-19", 0 ]
								}

							}
, 							{
								"patchline" : 								{
									"destination" : [ "obj-52", 0 ],
									"source" : [ "obj-20", 0 ]
								}

							}
, 							{
								"patchline" : 								{
									"destination" : [ "obj-20", 0 ],
									"source" : [ "obj-22", 0 ]
								}

							}
, 							{
								"patchline" : 								{
									"destination" : [ "obj-21", 0 ],
									"source" : [ "obj-23", 0 ]
								}

							}
, 							{
								"patchline" : 								{
									"destination" : [ "obj-27", 0 ],
									"source" : [ "obj-25", 0 ]
								}

							}
, 							{
								"patchline" : 								{
									"destination" : [ "obj-86", 0 ],
									"source" : [ "obj-3", 0 ]
								}

							}
, 							{
								"patchline" : 								{
									"destination" : [ "obj-52", 0 ],
									"source" : [ "obj-32", 0 ]
								}

							}
, 							{
								"patchline" : 								{
									"destination" : [ "obj-25", 0 ],
									"source" : [ "obj-33", 0 ]
								}

							}
, 							{
								"patchline" : 								{
									"destination" : [ "obj-52", 0 ],
									"source" : [ "obj-35", 0 ]
								}

							}
, 							{
								"patchline" : 								{
									"destination" : [ "obj-40", 0 ],
									"source" : [ "obj-39", 0 ]
								}

							}
, 							{
								"patchline" : 								{
									"destination" : [ "obj-39", 0 ],
									"source" : [ "obj-44", 0 ]
								}

							}
, 							{
								"patchline" : 								{
									"destination" : [ "obj-47", 0 ],
									"source" : [ "obj-45", 0 ]
								}

							}
, 							{
								"patchline" : 								{
									"destination" : [ "obj-46", 0 ],
									"source" : [ "obj-47", 0 ]
								}

							}
, 							{
								"patchline" : 								{
									"destination" : [ "obj-32", 0 ],
									"source" : [ "obj-49", 0 ]
								}

							}
, 							{
								"patchline" : 								{
									"destination" : [ "obj-49", 0 ],
									"source" : [ "obj-51", 0 ]
								}

							}
, 							{
								"patchline" : 								{
									"destination" : [ "obj-1", 0 ],
									"source" : [ "obj-52", 1 ]
								}

							}
, 							{
								"patchline" : 								{
									"destination" : [ "obj-9", 0 ],
									"source" : [ "obj-52", 0 ]
								}

							}
, 							{
								"patchline" : 								{
									"destination" : [ "obj-52", 0 ],
									"source" : [ "obj-6", 0 ]
								}

							}
, 							{
								"patchline" : 								{
									"destination" : [ "obj-4", 0 ],
									"source" : [ "obj-86", 0 ]
								}

							}
, 							{
								"patchline" : 								{
									"destination" : [ "obj-3", 0 ],
									"source" : [ "obj-9", 0 ]
								}

							}
 ],
						"styles" : [ 							{
								"name" : "Minimal",
								"default" : 								{
									"elementcolor" : [ 0.694117647058824, 0.694117647058824, 0.694117647058824, 1.0 ],
									"color" : [ 0.0, 0.0, 0.0, 1.0 ],
									"fontface" : [ 0 ],
									"editing_bgcolor" : [ 0.956862745098039, 0.956862745098039, 0.956862745098039, 1.0 ],
									"textcolor_inverse" : [ 0.0, 0.0, 0.0, 1.0 ],
									"clearcolor" : [ 1.0, 1.0, 1.0, 0.0 ],
									"bgfillcolor" : 									{
										"type" : "color",
										"color" : [ 0.65098, 0.666667, 0.662745, 1.0 ],
										"color1" : [ 0.65098, 0.666667, 0.662745, 1.0 ],
										"color2" : [ 0.290196, 0.309804, 0.301961, 1.0 ],
										"angle" : 270.0,
										"proportion" : 0.39,
										"autogradient" : 0.0
									}
,
									"fontsize" : [ 10.0 ],
									"bgcolor" : [ 0.999999, 0.999974, 0.999991, 1.0 ],
									"selectioncolor" : [ 0.0, 0.0, 0.0, 1.0 ],
									"accentcolor" : [ 0.0, 0.0, 0.0, 1.0 ],
									"fontname" : [ "Futura Medium" ]
								}
,
								"parentstyle" : "",
								"multi" : 0
							}
 ]
					}
,
					"patching_rect" : [ 284.0, 22.0, 82.0, 21.0 ],
					"saved_object_attributes" : 					{
						"description" : "",
						"digest" : "",
						"fontname" : "Futura Medium",
						"fontsize" : 10.0,
						"globalpatchername" : "",
						"style" : "Minimal",
						"tags" : ""
					}
,
					"text" : "p UsingBuffers"
				}

			}
, 			{
				"box" : 				{
					"id" : "obj-104",
					"maxclass" : "newobj",
					"numinlets" : 0,
					"numoutlets" : 0,
					"patcher" : 					{
						"fileversion" : 1,
						"appversion" : 						{
							"major" : 8,
							"minor" : 1,
							"revision" : 8,
							"architecture" : "x64",
							"modernui" : 1
						}
,
						"classnamespace" : "box",
						"rect" : [ 0.0, 26.0, 1450.0, 927.0 ],
						"bglocked" : 0,
						"openinpresentation" : 0,
						"default_fontsize" : 10.0,
						"default_fontface" : 0,
						"default_fontname" : "Futura Medium",
						"gridonopen" : 1,
						"gridsize" : [ 15.0, 15.0 ],
						"gridsnaponopen" : 1,
						"objectsnaponopen" : 1,
						"statusbarvisible" : 2,
						"toolbarvisible" : 1,
						"lefttoolbarpinned" : 0,
						"toptoolbarpinned" : 0,
						"righttoolbarpinned" : 0,
						"bottomtoolbarpinned" : 0,
						"toolbars_unpinned_last_save" : 0,
						"tallnewobj" : 0,
						"boxanimatetime" : 200,
						"enablehscroll" : 1,
						"enablevscroll" : 1,
						"devicewidth" : 0.0,
						"description" : "",
						"digest" : "",
						"tags" : "",
						"style" : "Minimal",
						"subpatcher_template" : "minimal",
						"showontab" : 1,
						"assistshowspatchername" : 0,
						"title" : "Mutichannel and Voices",
						"boxes" : [ 							{
								"box" : 								{
									"border" : 0,
									"embedstate" : [ [ "dotScale", 1 ], [ "maxBufferDrawSamples", 1920 ], [ "bgColor", 1, 1, 1, 0 ], [ "buffername", "_help_grainBuf1" ], [ "dotColor", 1, 0, 0, 0.9 ], [ "dotVJitter", 0 ], [ "selection", 0, 1 ], [ "waveformColor", 0.1, 0.1, 0.1, 1 ], [ "dotColorSecondary", 0.5, 0, 0, 0.9 ], [ "selectColor", 1, 1, 1, 0.75 ], [ "mode", 0 ] ],
									"filename" : "grainFlow.waveform~.js",
									"id" : "obj-1",
									"maxclass" : "jsui",
									"numinlets" : 1,
									"numoutlets" : 2,
									"outlettype" : [ "", "" ],
									"parameter_enable" : 0,
									"patching_rect" : [ 186.169270833333258, 476.5, 471.0, 126.0 ]
								}

							}
, 							{
								"box" : 								{
									"id" : "obj-46",
									"maxclass" : "newobj",
									"numinlets" : 1,
									"numoutlets" : 0,
									"patching_rect" : [ 25.3359375, 206.0, 104.0, 21.0 ],
									"text" : "s _help_mc_grain1"
								}

							}
, 							{
								"box" : 								{
									"id" : "obj-45",
									"linecount" : 5,
									"maxclass" : "comment",
									"numinlets" : 1,
									"numoutlets" : 0,
									"patching_rect" : [ 373.0, 132.0, 160.0, 67.0 ],
									"text" : "g followed by a voice number and a message will send that message just to that grain.\nThis changes the buffer of voice 1"
								}

							}
, 							{
								"box" : 								{
									"id" : "obj-43",
									"maxclass" : "message",
									"numinlets" : 2,
									"numoutlets" : 1,
									"outlettype" : [ "" ],
									"patching_rect" : [ 239.0, 132.0, 130.0, 21.0 ],
									"text" : "g 1 buf _help_grainBuf2"
								}

							}
, 							{
								"box" : 								{
									"id" : "obj-41",
									"maxclass" : "newobj",
									"numinlets" : 1,
									"numoutlets" : 0,
									"patching_rect" : [ 239.0, 181.0, 104.0, 21.0 ],
									"text" : "s _help_mc_grain1"
								}

							}
, 							{
								"box" : 								{
									"id" : "obj-35",
									"maxclass" : "newobj",
									"numinlets" : 0,
									"numoutlets" : 1,
									"outlettype" : [ "" ],
									"patching_rect" : [ 33.3359375, 378.0, 103.0, 21.0 ],
									"text" : "r _help_mc_grain1"
								}

							}
, 							{
								"box" : 								{
									"id" : "obj-31",
									"linecount" : 3,
									"maxclass" : "comment",
									"numinlets" : 1,
									"numoutlets" : 0,
									"patching_rect" : [ 18.0, 57.0, 487.0, 43.0 ],
									"text" : "Multichannel signals can be used along with the parameters set in the \"Basic Usage\" patch to modulate granulator at auid rate.  Channels will repicate is standard fashion is there are less mc channels than voices."
								}

							}
, 							{
								"box" : 								{
									"fontsize" : 30.0,
									"id" : "obj-64",
									"maxclass" : "comment",
									"numinlets" : 1,
									"numoutlets" : 0,
									"patching_rect" : [ 18.0, 10.0, 684.0, 43.0 ],
									"text" : "grainFlow~ Multichannel and Voices"
								}

							}
, 							{
								"box" : 								{
									"id" : "obj-29",
									"maxclass" : "comment",
									"numinlets" : 1,
									"numoutlets" : 0,
									"patching_rect" : [ 454.669270833333258, 384.0, 122.0, 19.0 ],
									"text" : "AM (subracts from 1)"
								}

							}
, 							{
								"box" : 								{
									"id" : "obj-28",
									"maxclass" : "comment",
									"numinlets" : 1,
									"numoutlets" : 0,
									"patching_rect" : [ 311.669270833333258, 384.0, 72.0, 19.0 ],
									"text" : "FM"
								}

							}
, 							{
								"box" : 								{
									"id" : "obj-27",
									"maxclass" : "comment",
									"numinlets" : 1,
									"numoutlets" : 0,
									"patching_rect" : [ 180.002604166666629, 347.0, 72.0, 19.0 ],
									"text" : "Traversal"
								}

							}
, 							{
								"box" : 								{
									"id" : "obj-26",
									"maxclass" : "comment",
									"numinlets" : 1,
									"numoutlets" : 0,
									"patching_rect" : [ 43.3359375, 347.0, 73.0, 19.0 ],
									"text" : "Grain Phasor"
								}

							}
, 							{
								"box" : 								{
									"id" : "obj-24",
									"maxclass" : "newobj",
									"numinlets" : 2,
									"numoutlets" : 1,
									"outlettype" : [ "bang" ],
									"patching_rect" : [ 80.3359375, 171.0, 67.0, 21.0 ],
									"text" : "qmetro 500"
								}

							}
, 							{
								"box" : 								{
									"id" : "obj-22",
									"maxclass" : "toggle",
									"numinlets" : 1,
									"numoutlets" : 1,
									"outlettype" : [ "int" ],
									"parameter_enable" : 0,
									"patching_rect" : [ 25.3359375, 113.0, 24.0, 24.0 ]
								}

							}
, 							{
								"box" : 								{
									"id" : "obj-20",
									"maxclass" : "message",
									"numinlets" : 2,
									"numoutlets" : 1,
									"outlettype" : [ "" ],
									"patching_rect" : [ 25.3359375, 171.0, 50.0, 21.0 ],
									"text" : "state $1"
								}

							}
, 							{
								"box" : 								{
									"id" : "obj-17",
									"maxclass" : "message",
									"numinlets" : 2,
									"numoutlets" : 1,
									"outlettype" : [ "" ],
									"patching_rect" : [ 429.669270833333258, 273.0, 84.0, 21.0 ],
									"text" : "deviate 50 100"
								}

							}
, 							{
								"box" : 								{
									"id" : "obj-16",
									"maxclass" : "newobj",
									"numinlets" : 6,
									"numoutlets" : 1,
									"outlettype" : [ "multichannelsignal" ],
									"patching_rect" : [ 429.669270833333258, 358.0, 114.0, 21.0 ],
									"text" : "mc.scale~ -1 1 0 0.9"
								}

							}
, 							{
								"box" : 								{
									"id" : "obj-15",
									"maxclass" : "newobj",
									"numinlets" : 6,
									"numoutlets" : 1,
									"outlettype" : [ "multichannelsignal" ],
									"patching_rect" : [ 296.669270833333258, 362.0, 121.0, 21.0 ],
									"text" : "mc.scale~ -1 1 0 0.25"
								}

							}
, 							{
								"box" : 								{
									"id" : "obj-14",
									"maxclass" : "message",
									"numinlets" : 2,
									"numoutlets" : 1,
									"outlettype" : [ "" ],
									"patching_rect" : [ 296.669270833333258, 268.0, 78.0, 21.0 ],
									"text" : "deviate 19 20"
								}

							}
, 							{
								"box" : 								{
									"id" : "obj-13",
									"maxclass" : "message",
									"numinlets" : 2,
									"numoutlets" : 1,
									"outlettype" : [ "" ],
									"patching_rect" : [ 161.002604166666629, 268.0, 91.0, 21.0 ],
									"text" : "deviate 0.15 0.2"
								}

							}
, 							{
								"box" : 								{
									"id" : "obj-12",
									"maxclass" : "message",
									"numinlets" : 2,
									"numoutlets" : 1,
									"outlettype" : [ "" ],
									"patching_rect" : [ 25.3359375, 268.0, 71.0, 21.0 ],
									"text" : "deviate 5 10"
								}

							}
, 							{
								"box" : 								{
									"id" : "obj-10",
									"maxclass" : "newobj",
									"numinlets" : 2,
									"numoutlets" : 1,
									"outlettype" : [ "multichannelsignal" ],
									"patching_rect" : [ 429.669270833333258, 322.0, 113.0, 21.0 ],
									"text" : "mc.cycle~ @chans 5"
								}

							}
, 							{
								"box" : 								{
									"id" : "obj-8",
									"maxclass" : "newobj",
									"numinlets" : 2,
									"numoutlets" : 1,
									"outlettype" : [ "multichannelsignal" ],
									"patching_rect" : [ 296.669270833333258, 322.0, 113.0, 21.0 ],
									"text" : "mc.cycle~ @chans 5"
								}

							}
, 							{
								"box" : 								{
									"id" : "obj-7",
									"maxclass" : "newobj",
									"numinlets" : 2,
									"numoutlets" : 1,
									"outlettype" : [ "multichannelsignal" ],
									"patching_rect" : [ 161.002604166666629, 322.0, 122.0, 21.0 ],
									"text" : "mc.phasor~ @chans 5"
								}

							}
, 							{
								"box" : 								{
									"id" : "obj-6",
									"maxclass" : "newobj",
									"numinlets" : 2,
									"numoutlets" : 1,
									"outlettype" : [ "multichannelsignal" ],
									"patching_rect" : [ 25.3359375, 324.0, 122.0, 21.0 ],
									"text" : "mc.phasor~ @chans 5"
								}

							}
, 							{
								"box" : 								{
									"id" : "obj-4",
									"local" : 1,
									"maxclass" : "mc.ezdac~",
									"numinlets" : 1,
									"numoutlets" : 0,
									"patching_rect" : [ 25.3359375, 733.0, 45.0, 45.0 ]
								}

							}
, 							{
								"box" : 								{
									"id" : "obj-5",
									"linecount" : 4,
									"maxclass" : "comment",
									"numinlets" : 1,
									"numoutlets" : 0,
									"patching_rect" : [ 44.8359375, 437.0, 126.0, 55.0 ],
									"text" : "Each grain has its own channel.  This is convienent for bussing and panning."
								}

							}
, 							{
								"box" : 								{
									"id" : "obj-86",
									"maxclass" : "newobj",
									"numinlets" : 2,
									"numoutlets" : 1,
									"outlettype" : [ "multichannelsignal" ],
									"patching_rect" : [ 25.3359375, 680.0, 61.0, 21.0 ],
									"text" : "mc.*~ 0.5"
								}

							}
, 							{
								"box" : 								{
									"id" : "obj-52",
									"maxclass" : "newobj",
									"numinlets" : 4,
									"numoutlets" : 5,
									"outlettype" : [ "multichannelsignal", "", "multichannelsignal", "multichannelsignal", "multichannelsignal" ],
									"patching_rect" : [ 25.3359375, 410.0, 158.0, 21.0 ],
									"text" : "grainflow~ _help_grainBuf1 5"
								}

							}
, 							{
								"box" : 								{
									"id" : "obj-9",
									"lastchannelcount" : 5,
									"maxclass" : "mc.live.gain~",
									"numinlets" : 1,
									"numoutlets" : 4,
									"outlettype" : [ "multichannelsignal", "", "float", "list" ],
									"parameter_enable" : 1,
									"patching_rect" : [ 25.3359375, 507.5, 81.0, 123.0 ],
									"saved_attribute_attributes" : 									{
										"valueof" : 										{
											"parameter_longname" : "mc.live.gain~[1]",
											"parameter_mmax" : 6.0,
											"parameter_mmin" : -70.0,
											"parameter_shortname" : "grains",
											"parameter_type" : 0,
											"parameter_unitstyle" : 4
										}

									}
,
									"varname" : "mc.live.gain~"
								}

							}
, 							{
								"box" : 								{
									"id" : "obj-3",
									"maxclass" : "newobj",
									"numinlets" : 2,
									"numoutlets" : 1,
									"outlettype" : [ "multichannelsignal" ],
									"patching_rect" : [ 25.3359375, 649.0, 90.0, 21.0 ],
									"text" : "mc.mixdown~ 2"
								}

							}
 ],
						"lines" : [ 							{
								"patchline" : 								{
									"destination" : [ "obj-16", 0 ],
									"source" : [ "obj-10", 0 ]
								}

							}
, 							{
								"patchline" : 								{
									"destination" : [ "obj-6", 0 ],
									"source" : [ "obj-12", 0 ]
								}

							}
, 							{
								"patchline" : 								{
									"destination" : [ "obj-7", 0 ],
									"source" : [ "obj-13", 0 ]
								}

							}
, 							{
								"patchline" : 								{
									"destination" : [ "obj-8", 0 ],
									"source" : [ "obj-14", 0 ]
								}

							}
, 							{
								"patchline" : 								{
									"destination" : [ "obj-52", 2 ],
									"source" : [ "obj-15", 0 ]
								}

							}
, 							{
								"patchline" : 								{
									"destination" : [ "obj-52", 3 ],
									"source" : [ "obj-16", 0 ]
								}

							}
, 							{
								"patchline" : 								{
									"destination" : [ "obj-10", 0 ],
									"source" : [ "obj-17", 0 ]
								}

							}
, 							{
								"patchline" : 								{
									"destination" : [ "obj-46", 0 ],
									"source" : [ "obj-20", 0 ]
								}

							}
, 							{
								"patchline" : 								{
									"destination" : [ "obj-20", 0 ],
									"order" : 1,
									"source" : [ "obj-22", 0 ]
								}

							}
, 							{
								"patchline" : 								{
									"destination" : [ "obj-24", 0 ],
									"order" : 0,
									"source" : [ "obj-22", 0 ]
								}

							}
, 							{
								"patchline" : 								{
									"destination" : [ "obj-12", 0 ],
									"order" : 3,
									"source" : [ "obj-24", 0 ]
								}

							}
, 							{
								"patchline" : 								{
									"destination" : [ "obj-13", 0 ],
									"order" : 2,
									"source" : [ "obj-24", 0 ]
								}

							}
, 							{
								"patchline" : 								{
									"destination" : [ "obj-14", 0 ],
									"order" : 1,
									"source" : [ "obj-24", 0 ]
								}

							}
, 							{
								"patchline" : 								{
									"destination" : [ "obj-17", 0 ],
									"order" : 0,
									"source" : [ "obj-24", 0 ]
								}

							}
, 							{
								"patchline" : 								{
									"destination" : [ "obj-86", 0 ],
									"source" : [ "obj-3", 0 ]
								}

							}
, 							{
								"patchline" : 								{
									"destination" : [ "obj-52", 0 ],
									"source" : [ "obj-35", 0 ]
								}

							}
, 							{
								"patchline" : 								{
									"destination" : [ "obj-41", 0 ],
									"source" : [ "obj-43", 0 ]
								}

							}
, 							{
								"patchline" : 								{
									"destination" : [ "obj-1", 0 ],
									"source" : [ "obj-52", 1 ]
								}

							}
, 							{
								"patchline" : 								{
									"destination" : [ "obj-9", 0 ],
									"source" : [ "obj-52", 0 ]
								}

							}
, 							{
								"patchline" : 								{
									"destination" : [ "obj-52", 0 ],
									"source" : [ "obj-6", 0 ]
								}

							}
, 							{
								"patchline" : 								{
									"destination" : [ "obj-52", 1 ],
									"source" : [ "obj-7", 0 ]
								}

							}
, 							{
								"patchline" : 								{
									"destination" : [ "obj-15", 0 ],
									"source" : [ "obj-8", 0 ]
								}

							}
, 							{
								"patchline" : 								{
									"destination" : [ "obj-4", 0 ],
									"source" : [ "obj-86", 0 ]
								}

							}
, 							{
								"patchline" : 								{
									"destination" : [ "obj-3", 0 ],
									"source" : [ "obj-9", 0 ]
								}

							}
 ],
						"styles" : [ 							{
								"name" : "Minimal",
								"default" : 								{
									"elementcolor" : [ 0.694117647058824, 0.694117647058824, 0.694117647058824, 1.0 ],
									"color" : [ 0.0, 0.0, 0.0, 1.0 ],
									"fontface" : [ 0 ],
									"editing_bgcolor" : [ 0.956862745098039, 0.956862745098039, 0.956862745098039, 1.0 ],
									"textcolor_inverse" : [ 0.0, 0.0, 0.0, 1.0 ],
									"clearcolor" : [ 1.0, 1.0, 1.0, 0.0 ],
									"bgfillcolor" : 									{
										"type" : "color",
										"color" : [ 0.65098, 0.666667, 0.662745, 1.0 ],
										"color1" : [ 0.65098, 0.666667, 0.662745, 1.0 ],
										"color2" : [ 0.290196, 0.309804, 0.301961, 1.0 ],
										"angle" : 270.0,
										"proportion" : 0.39,
										"autogradient" : 0.0
									}
,
									"fontsize" : [ 10.0 ],
									"bgcolor" : [ 0.999999, 0.999974, 0.999991, 1.0 ],
									"selectioncolor" : [ 0.0, 0.0, 0.0, 1.0 ],
									"accentcolor" : [ 0.0, 0.0, 0.0, 1.0 ],
									"fontname" : [ "Futura Medium" ]
								}
,
								"parentstyle" : "",
								"multi" : 0
							}
 ]
					}
,
					"patching_rect" : [ 175.0, 22.0, 81.0, 21.0 ],
					"saved_object_attributes" : 					{
						"description" : "",
						"digest" : "",
						"fontname" : "Futura Medium",
						"fontsize" : 10.0,
						"globalpatchername" : "",
						"style" : "Minimal",
						"tags" : ""
					}
,
					"text" : "p Multichannel"
				}

			}
, 			{
				"box" : 				{
					"id" : "obj-103",
					"maxclass" : "newobj",
					"numinlets" : 0,
					"numoutlets" : 0,
					"patcher" : 					{
						"fileversion" : 1,
						"appversion" : 						{
							"major" : 8,
							"minor" : 1,
							"revision" : 8,
							"architecture" : "x64",
							"modernui" : 1
						}
,
						"classnamespace" : "box",
						"rect" : [ 68.0, 112.0, 1450.0, 927.0 ],
						"bglocked" : 0,
						"openinpresentation" : 0,
						"default_fontsize" : 10.0,
						"default_fontface" : 0,
						"default_fontname" : "Futura Medium",
						"gridonopen" : 1,
						"gridsize" : [ 15.0, 15.0 ],
						"gridsnaponopen" : 1,
						"objectsnaponopen" : 1,
						"statusbarvisible" : 2,
						"toolbarvisible" : 1,
						"lefttoolbarpinned" : 0,
						"toptoolbarpinned" : 0,
						"righttoolbarpinned" : 0,
						"bottomtoolbarpinned" : 0,
						"toolbars_unpinned_last_save" : 0,
						"tallnewobj" : 0,
						"boxanimatetime" : 200,
						"enablehscroll" : 1,
						"enablevscroll" : 1,
						"devicewidth" : 0.0,
						"description" : "",
						"digest" : "",
						"tags" : "",
						"style" : "Minimal",
						"subpatcher_template" : "minimal",
						"showontab" : 1,
						"assistshowspatchername" : 0,
						"title" : "General Usage",
						"boxes" : [ 							{
								"box" : 								{
									"id" : "obj-62",
									"linecount" : 2,
									"maxclass" : "comment",
									"numinlets" : 1,
									"numoutlets" : 0,
									"patching_rect" : [ 528.0, 589.0, 150.0, 31.0 ],
									"text" : "Offsets all grains by an amount in ms"
								}

							}
, 							{
								"box" : 								{
									"format" : 6,
									"id" : "obj-1",
									"maxclass" : "flonum",
									"numinlets" : 1,
									"numoutlets" : 2,
									"outlettype" : [ "", "bang" ],
									"parameter_enable" : 0,
									"patching_rect" : [ 460.5, 589.0, 50.0, 21.0 ]
								}

							}
, 							{
								"box" : 								{
									"id" : "obj-33",
									"maxclass" : "newobj",
									"numinlets" : 1,
									"numoutlets" : 0,
									"patching_rect" : [ 460.5, 657.0, 126.0, 21.0 ],
									"text" : "s _help_basicGrainFlow"
								}

							}
, 							{
								"box" : 								{
									"id" : "obj-35",
									"maxclass" : "message",
									"numinlets" : 2,
									"numoutlets" : 1,
									"outlettype" : [ "" ],
									"patching_rect" : [ 460.5, 627.5, 109.0, 21.0 ],
									"text" : "gloabaTravOffset $1"
								}

							}
, 							{
								"box" : 								{
									"border" : 0,
									"embedstate" : [ [ "dotScale", 1 ], [ "maxBufferDrawSamples", 1920 ], [ "bgColor", 1, 1, 1, 0 ], [ "buffername", "_help_grainBuf1" ], [ "dotColor", 1, 0, 0, 0.9 ], [ "dotVJitter", 0 ], [ "selection", 0, 1 ], [ "waveformColor", 0.1, 0.1, 0.1, 1 ], [ "dotColorSecondary", 0.5, 0, 0, 0.9 ], [ "selectColor", 1, 1, 1, 0.75 ], [ "mode", 0 ] ],
									"filename" : "grainFlow.waveform~.js",
									"id" : "obj-7",
									"maxclass" : "jsui",
									"numinlets" : 1,
									"numoutlets" : 2,
									"outlettype" : [ "", "" ],
									"parameter_enable" : 0,
									"patching_rect" : [ 842.1640625, 470.5, 407.8359375, 103.0 ]
								}

							}
, 							{
								"box" : 								{
									"id" : "obj-51",
									"maxclass" : "newobj",
									"numinlets" : 1,
									"numoutlets" : 1,
									"outlettype" : [ "" ],
									"patching_rect" : [ 713.0, 131.5, 93.0, 21.0 ],
									"text" : "expr 1/$f1*1000"
								}

							}
, 							{
								"box" : 								{
									"id" : "obj-28",
									"linecount" : 2,
									"maxclass" : "comment",
									"numinlets" : 1,
									"numoutlets" : 0,
									"patching_rect" : [ 827.664062499999886, 181.5, 150.0, 31.0 ],
									"text" : "Determined how fast the buffer is traversed"
								}

							}
, 							{
								"box" : 								{
									"id" : "obj-15",
									"linecount" : 2,
									"maxclass" : "comment",
									"numinlets" : 1,
									"numoutlets" : 0,
									"patching_rect" : [ 768.0, 87.0, 150.0, 31.0 ],
									"text" : "This input phasor determines grain size"
								}

							}
, 							{
								"box" : 								{
									"id" : "obj-65",
									"linecount" : 2,
									"maxclass" : "comment",
									"numinlets" : 1,
									"numoutlets" : 0,
									"patching_rect" : [ 1022.6640625, 401.0, 150.0, 31.0 ],
									"text" : "change the sampling buffer with the buf message"
								}

							}
, 							{
								"box" : 								{
									"id" : "obj-58",
									"maxclass" : "message",
									"numinlets" : 2,
									"numoutlets" : 1,
									"outlettype" : [ "" ],
									"patching_rect" : [ 1000.41796875, 367.0, 111.0, 21.0 ],
									"text" : "buf _help_grainBuf1"
								}

							}
, 							{
								"box" : 								{
									"id" : "obj-56",
									"maxclass" : "newobj",
									"numinlets" : 1,
									"numoutlets" : 0,
									"patching_rect" : [ 893.6640625, 406.5, 126.0, 21.0 ],
									"text" : "s _help_basicGrainFlow"
								}

							}
, 							{
								"box" : 								{
									"id" : "obj-53",
									"maxclass" : "message",
									"numinlets" : 2,
									"numoutlets" : 1,
									"outlettype" : [ "" ],
									"patching_rect" : [ 893.6640625, 367.0, 111.0, 21.0 ],
									"text" : "buf _help_grainBuf2"
								}

							}
, 							{
								"box" : 								{
									"id" : "obj-49",
									"maxclass" : "newobj",
									"numinlets" : 1,
									"numoutlets" : 2,
									"outlettype" : [ "float", "bang" ],
									"patching_rect" : [ 764.3359375, 17.0, 181.0, 21.0 ],
									"text" : "buffer~ _help_grainBuf2 Anton.aif"
								}

							}
, 							{
								"box" : 								{
									"id" : "obj-48",
									"maxclass" : "comment",
									"numinlets" : 1,
									"numoutlets" : 0,
									"patching_rect" : [ 3.0, 98.0, 366.0, 19.0 ],
									"text" : "Creation arguments are the buffername and the max number of voices"
								}

							}
, 							{
								"box" : 								{
									"id" : "obj-43",
									"maxclass" : "comment",
									"numinlets" : 1,
									"numoutlets" : 0,
									"patching_rect" : [ 944.6640625, 222.0, 221.0, 19.0 ],
									"text" : "Change the window with the env message"
								}

							}
, 							{
								"box" : 								{
									"id" : "obj-32",
									"maxclass" : "newobj",
									"numinlets" : 1,
									"numoutlets" : 0,
									"patching_rect" : [ 944.6640625, 329.0, 126.0, 21.0 ],
									"text" : "s _help_basicGrainFlow"
								}

							}
, 							{
								"box" : 								{
									"id" : "obj-30",
									"maxclass" : "comment",
									"numinlets" : 1,
									"numoutlets" : 0,
									"patching_rect" : [ 1014.6640625, 290.0, 150.0, 19.0 ],
									"text" : "Default Hanning window"
								}

							}
, 							{
								"box" : 								{
									"id" : "obj-29",
									"maxclass" : "comment",
									"numinlets" : 1,
									"numoutlets" : 0,
									"patching_rect" : [ 1033.6640625, 255.0, 150.0, 19.0 ],
									"text" : "Weird custom window"
								}

							}
, 							{
								"box" : 								{
									"id" : "obj-24",
									"maxclass" : "message",
									"numinlets" : 2,
									"numoutlets" : 1,
									"outlettype" : [ "" ],
									"patching_rect" : [ 944.6640625, 290.0, 65.0, 21.0 ],
									"text" : "env default"
								}

							}
, 							{
								"box" : 								{
									"id" : "obj-20",
									"maxclass" : "message",
									"numinlets" : 2,
									"numoutlets" : 1,
									"outlettype" : [ "" ],
									"patching_rect" : [ 944.6640625, 254.0, 85.0, 21.0 ],
									"text" : "env myWindow"
								}

							}
, 							{
								"box" : 								{
									"id" : "obj-13",
									"maxclass" : "newobj",
									"numinlets" : 1,
									"numoutlets" : 1,
									"outlettype" : [ "bang" ],
									"patching_rect" : [ 989.0, 62.0, 54.0, 21.0 ],
									"text" : "loadbang"
								}

							}
, 							{
								"box" : 								{
									"id" : "obj-11",
									"maxclass" : "message",
									"numinlets" : 2,
									"numoutlets" : 1,
									"outlettype" : [ "" ],
									"patching_rect" : [ 989.0, 101.0, 69.0, 21.0 ],
									"text" : "fill sinc 20 0"
								}

							}
, 							{
								"box" : 								{
									"id" : "obj-6",
									"maxclass" : "newobj",
									"numinlets" : 1,
									"numoutlets" : 2,
									"outlettype" : [ "float", "bang" ],
									"patching_rect" : [ 989.0, 142.5, 180.0, 21.0 ],
									"text" : "buffer~ myWindow @samps 1024"
								}

							}
, 							{
								"box" : 								{
									"id" : "obj-4",
									"local" : 1,
									"maxclass" : "mc.ezdac~",
									"numinlets" : 1,
									"numoutlets" : 0,
									"patching_rect" : [ 712.0, 590.0, 45.0, 45.0 ]
								}

							}
, 							{
								"box" : 								{
									"format" : 6,
									"id" : "obj-102",
									"maxclass" : "flonum",
									"numinlets" : 1,
									"numoutlets" : 2,
									"outlettype" : [ "", "bang" ],
									"parameter_enable" : 0,
									"patching_rect" : [ 768.0, 198.5, 50.0, 21.0 ]
								}

							}
, 							{
								"box" : 								{
									"id" : "obj-97",
									"linecount" : 2,
									"maxclass" : "comment",
									"numinlets" : 1,
									"numoutlets" : 0,
									"patching_rect" : [ 523.5859375, 793.0, 292.171875, 31.0 ],
									"text" : "Quantizes rate changes to the semitone.  Used with rate random to build simple interval cycles."
								}

							}
, 							{
								"box" : 								{
									"format" : 6,
									"id" : "obj-98",
									"maxclass" : "flonum",
									"numinlets" : 1,
									"numoutlets" : 2,
									"outlettype" : [ "", "bang" ],
									"parameter_enable" : 0,
									"patching_rect" : [ 460.5, 798.5, 50.0, 21.0 ]
								}

							}
, 							{
								"box" : 								{
									"id" : "obj-99",
									"maxclass" : "newobj",
									"numinlets" : 1,
									"numoutlets" : 0,
									"patching_rect" : [ 460.5, 861.0, 126.0, 21.0 ],
									"text" : "s _help_basicGrainFlow"
								}

							}
, 							{
								"box" : 								{
									"id" : "obj-100",
									"maxclass" : "message",
									"numinlets" : 2,
									"numoutlets" : 1,
									"outlettype" : [ "" ],
									"patching_rect" : [ 460.5, 829.0, 114.0, 21.0 ],
									"text" : "rateQuantizeSemi $1"
								}

							}
, 							{
								"box" : 								{
									"id" : "obj-95",
									"linecount" : 2,
									"maxclass" : "comment",
									"numinlets" : 1,
									"numoutlets" : 0,
									"patching_rect" : [ 3.0, 53.0, 537.0, 31.0 ],
									"text" : "cp.grainFlow~ is a super flexible sample accurate granular engine built with mc and gen~.  This patcher show its most basic use as a simple soundfile granulator. "
								}

							}
, 							{
								"box" : 								{
									"format" : 6,
									"id" : "obj-91",
									"maxclass" : "flonum",
									"numinlets" : 1,
									"numoutlets" : 2,
									"outlettype" : [ "", "bang" ],
									"parameter_enable" : 0,
									"patching_rect" : [ 298.5, 798.5, 50.0, 21.0 ]
								}

							}
, 							{
								"box" : 								{
									"id" : "obj-92",
									"maxclass" : "newobj",
									"numinlets" : 1,
									"numoutlets" : 0,
									"patching_rect" : [ 298.5, 861.0, 126.0, 21.0 ],
									"text" : "s _help_basicGrainFlow"
								}

							}
, 							{
								"box" : 								{
									"id" : "obj-93",
									"maxclass" : "message",
									"numinlets" : 2,
									"numoutlets" : 1,
									"outlettype" : [ "" ],
									"patching_rect" : [ 298.5, 829.0, 100.0, 21.0 ],
									"text" : "glissonRandom $1"
								}

							}
, 							{
								"box" : 								{
									"id" : "obj-90",
									"linecount" : 3,
									"maxclass" : "comment",
									"numinlets" : 1,
									"numoutlets" : 0,
									"patching_rect" : [ 63.4140625, 802.5, 224.0, 43.0 ],
									"text" : "Linear glissando that progresses through each grain.  The end is the rate increment increase at the end of the grain. "
								}

							}
, 							{
								"box" : 								{
									"format" : 6,
									"id" : "obj-87",
									"maxclass" : "flonum",
									"numinlets" : 1,
									"numoutlets" : 2,
									"outlettype" : [ "", "bang" ],
									"parameter_enable" : 0,
									"patching_rect" : [ 8.328125, 802.5, 50.0, 21.0 ]
								}

							}
, 							{
								"box" : 								{
									"id" : "obj-88",
									"maxclass" : "newobj",
									"numinlets" : 1,
									"numoutlets" : 0,
									"patching_rect" : [ 8.328125, 865.0, 126.0, 21.0 ],
									"text" : "s _help_basicGrainFlow"
								}

							}
, 							{
								"box" : 								{
									"id" : "obj-89",
									"maxclass" : "message",
									"numinlets" : 2,
									"numoutlets" : 1,
									"outlettype" : [ "" ],
									"patching_rect" : [ 8.328125, 833.0, 59.0, 21.0 ],
									"text" : "glisson $1"
								}

							}
, 							{
								"box" : 								{
									"format" : 6,
									"id" : "obj-82",
									"maxclass" : "flonum",
									"numinlets" : 1,
									"numoutlets" : 2,
									"outlettype" : [ "", "bang" ],
									"parameter_enable" : 0,
									"patching_rect" : [ 460.5, 698.5, 50.0, 21.0 ]
								}

							}
, 							{
								"box" : 								{
									"id" : "obj-83",
									"maxclass" : "newobj",
									"numinlets" : 1,
									"numoutlets" : 0,
									"patching_rect" : [ 460.5, 761.0, 126.0, 21.0 ],
									"text" : "s _help_basicGrainFlow"
								}

							}
, 							{
								"box" : 								{
									"id" : "obj-84",
									"maxclass" : "message",
									"numinlets" : 2,
									"numoutlets" : 1,
									"outlettype" : [ "" ],
									"patching_rect" : [ 460.5, 729.0, 86.0, 21.0 ],
									"text" : "rateRandom $1"
								}

							}
, 							{
								"box" : 								{
									"format" : 6,
									"id" : "obj-79",
									"maxclass" : "flonum",
									"numinlets" : 1,
									"numoutlets" : 2,
									"outlettype" : [ "", "bang" ],
									"parameter_enable" : 0,
									"patching_rect" : [ 298.5, 698.5, 50.0, 21.0 ]
								}

							}
, 							{
								"box" : 								{
									"id" : "obj-80",
									"maxclass" : "newobj",
									"numinlets" : 1,
									"numoutlets" : 0,
									"patching_rect" : [ 298.5, 761.0, 126.0, 21.0 ],
									"text" : "s _help_basicGrainFlow"
								}

							}
, 							{
								"box" : 								{
									"id" : "obj-81",
									"maxclass" : "message",
									"numinlets" : 2,
									"numoutlets" : 1,
									"outlettype" : [ "" ],
									"patching_rect" : [ 298.5, 729.0, 75.0, 21.0 ],
									"text" : "rateOffset $1"
								}

							}
, 							{
								"box" : 								{
									"id" : "obj-78",
									"linecount" : 4,
									"maxclass" : "comment",
									"numinlets" : 1,
									"numoutlets" : 0,
									"patching_rect" : [ 60.328125, 693.0, 222.171875, 55.0 ],
									"text" : "This is the number of samples that are incremted per sample in max. Currently there is no correction mechanism for soundfiles of different sampling rates."
								}

							}
, 							{
								"box" : 								{
									"format" : 6,
									"id" : "obj-75",
									"maxclass" : "flonum",
									"numinlets" : 1,
									"numoutlets" : 2,
									"outlettype" : [ "", "bang" ],
									"parameter_enable" : 0,
									"patching_rect" : [ 8.328125, 698.5, 50.0, 21.0 ]
								}

							}
, 							{
								"box" : 								{
									"id" : "obj-76",
									"maxclass" : "newobj",
									"numinlets" : 1,
									"numoutlets" : 0,
									"patching_rect" : [ 8.328125, 761.0, 126.0, 21.0 ],
									"text" : "s _help_basicGrainFlow"
								}

							}
, 							{
								"box" : 								{
									"id" : "obj-77",
									"maxclass" : "message",
									"numinlets" : 2,
									"numoutlets" : 1,
									"outlettype" : [ "" ],
									"patching_rect" : [ 8.328125, 729.0, 45.0, 21.0 ],
									"text" : "rate $1"
								}

							}
, 							{
								"box" : 								{
									"format" : 6,
									"id" : "obj-74",
									"maxclass" : "flonum",
									"numinlets" : 1,
									"numoutlets" : 2,
									"outlettype" : [ "", "bang" ],
									"parameter_enable" : 0,
									"patching_rect" : [ 302.0, 582.0, 50.0, 21.0 ]
								}

							}
, 							{
								"box" : 								{
									"format" : 6,
									"id" : "obj-73",
									"maxclass" : "flonum",
									"numinlets" : 1,
									"numoutlets" : 2,
									"outlettype" : [ "", "bang" ],
									"parameter_enable" : 0,
									"patching_rect" : [ 8.328125, 587.5, 50.0, 21.0 ]
								}

							}
, 							{
								"box" : 								{
									"id" : "obj-69",
									"maxclass" : "newobj",
									"numinlets" : 2,
									"numoutlets" : 1,
									"outlettype" : [ "signal" ],
									"patching_rect" : [ 768.0, 221.5, 77.0, 21.0 ],
									"text" : "phasor~ 0.53"
								}

							}
, 							{
								"box" : 								{
									"id" : "obj-68",
									"linecount" : 2,
									"maxclass" : "comment",
									"numinlets" : 1,
									"numoutlets" : 0,
									"patching_rect" : [ 3.0, 133.5, 414.0, 31.0 ],
									"text" : "All random values are applied on each new grain.  Offset values are applied based on the voice number of that grain."
								}

							}
, 							{
								"box" : 								{
									"id" : "obj-67",
									"linecount" : 2,
									"maxclass" : "comment",
									"numinlets" : 1,
									"numoutlets" : 0,
									"patching_rect" : [ 67.5, 576.5, 239.0, 31.0 ],
									"text" : "Sets the offset applied to the traversal based on the voice number. In ms. (default = 0)"
								}

							}
, 							{
								"box" : 								{
									"id" : "obj-66",
									"linecount" : 2,
									"maxclass" : "comment",
									"numinlets" : 1,
									"numoutlets" : 0,
									"patching_rect" : [ 67.5, 464.5, 215.0, 31.0 ],
									"text" : "Sets the portion of the grain that is empty. (Default = 0)"
								}

							}
, 							{
								"box" : 								{
									"id" : "obj-63",
									"linecount" : 2,
									"maxclass" : "comment",
									"numinlets" : 1,
									"numoutlets" : 0,
									"patching_rect" : [ 67.5, 360.5, 226.0, 31.0 ],
									"text" : "Offsets the position of each voices window on the phasor.  (Default = 1/voices)"
								}

							}
, 							{
								"box" : 								{
									"id" : "obj-61",
									"linecount" : 2,
									"maxclass" : "comment",
									"numinlets" : 1,
									"numoutlets" : 0,
									"patching_rect" : [ 368.5, 180.5, 158.0, 31.0 ],
									"text" : "sets the number of grains playing. (default is all voices)"
								}

							}
, 							{
								"box" : 								{
									"id" : "obj-60",
									"linecount" : 2,
									"maxclass" : "comment",
									"numinlets" : 1,
									"numoutlets" : 0,
									"patching_rect" : [ 67.5, 273.0, 150.0, 31.0 ],
									"text" : "Sets and amp for all of the grains (default = 1)"
								}

							}
, 							{
								"box" : 								{
									"id" : "obj-59",
									"linecount" : 2,
									"maxclass" : "comment",
									"numinlets" : 1,
									"numoutlets" : 0,
									"patching_rect" : [ 40.5, 179.0, 150.0, 31.0 ],
									"text" : "Turns grains on and off (defaut: 0)"
								}

							}
, 							{
								"box" : 								{
									"id" : "obj-55",
									"maxclass" : "newobj",
									"numinlets" : 1,
									"numoutlets" : 0,
									"patching_rect" : [ 8.328125, 650.0, 126.0, 21.0 ],
									"text" : "s _help_basicGrainFlow"
								}

							}
, 							{
								"box" : 								{
									"id" : "obj-57",
									"maxclass" : "message",
									"numinlets" : 2,
									"numoutlets" : 1,
									"outlettype" : [ "" ],
									"patching_rect" : [ 8.328125, 618.0, 75.0, 21.0 ],
									"text" : "travOffset $1"
								}

							}
, 							{
								"box" : 								{
									"id" : "obj-54",
									"maxclass" : "newobj",
									"numinlets" : 1,
									"numoutlets" : 0,
									"patching_rect" : [ 302.0, 650.0, 126.0, 21.0 ],
									"text" : "s _help_basicGrainFlow"
								}

							}
, 							{
								"box" : 								{
									"id" : "obj-50",
									"maxclass" : "message",
									"numinlets" : 2,
									"numoutlets" : 1,
									"outlettype" : [ "" ],
									"patching_rect" : [ 302.0, 620.5, 86.0, 21.0 ],
									"text" : "travRandom $1"
								}

							}
, 							{
								"box" : 								{
									"format" : 6,
									"id" : "obj-44",
									"maxclass" : "flonum",
									"maximum" : 1.0,
									"minimum" : 0.0,
									"numinlets" : 1,
									"numoutlets" : 2,
									"outlettype" : [ "", "bang" ],
									"parameter_enable" : 0,
									"patching_rect" : [ 302.0, 472.5, 50.0, 21.0 ]
								}

							}
, 							{
								"box" : 								{
									"id" : "obj-45",
									"maxclass" : "newobj",
									"numinlets" : 1,
									"numoutlets" : 0,
									"patching_rect" : [ 302.0, 543.5, 126.0, 21.0 ],
									"text" : "s _help_basicGrainFlow"
								}

							}
, 							{
								"box" : 								{
									"id" : "obj-46",
									"maxclass" : "message",
									"numinlets" : 2,
									"numoutlets" : 1,
									"outlettype" : [ "" ],
									"patching_rect" : [ 302.0, 512.5, 94.0, 21.0 ],
									"text" : "spaceRandom $1"
								}

							}
, 							{
								"box" : 								{
									"format" : 6,
									"id" : "obj-40",
									"maxclass" : "flonum",
									"maximum" : 1.0,
									"minimum" : 0.0,
									"numinlets" : 1,
									"numoutlets" : 2,
									"outlettype" : [ "", "bang" ],
									"parameter_enable" : 0,
									"patching_rect" : [ 305.3359375, 368.5, 50.0, 21.0 ]
								}

							}
, 							{
								"box" : 								{
									"id" : "obj-41",
									"maxclass" : "newobj",
									"numinlets" : 1,
									"numoutlets" : 0,
									"patching_rect" : [ 305.3359375, 429.5, 126.0, 21.0 ],
									"text" : "s _help_basicGrainFlow"
								}

							}
, 							{
								"box" : 								{
									"id" : "obj-42",
									"maxclass" : "message",
									"numinlets" : 2,
									"numoutlets" : 1,
									"outlettype" : [ "" ],
									"patching_rect" : [ 305.3359375, 401.5, 134.0, 21.0 ],
									"text" : "windowOffsetRandom $1"
								}

							}
, 							{
								"box" : 								{
									"id" : "obj-37",
									"maxclass" : "newobj",
									"numinlets" : 1,
									"numoutlets" : 0,
									"patching_rect" : [ 7.1640625, 336.0, 126.0, 21.0 ],
									"text" : "s _help_basicGrainFlow"
								}

							}
, 							{
								"box" : 								{
									"format" : 6,
									"id" : "obj-38",
									"maxclass" : "flonum",
									"maximum" : 1.0,
									"minimum" : 0.0,
									"numinlets" : 1,
									"numoutlets" : 2,
									"outlettype" : [ "", "bang" ],
									"parameter_enable" : 1,
									"patching_rect" : [ 7.1640625, 273.0, 50.0, 21.0 ],
									"saved_attribute_attributes" : 									{
										"valueof" : 										{
											"parameter_initial" : [ 1 ],
											"parameter_initial_enable" : 1,
											"parameter_longname" : "number[1]",
											"parameter_mmax" : 1.0,
											"parameter_shortname" : "number[1]",
											"parameter_type" : 0
										}

									}
,
									"varname" : "number[1]"
								}

							}
, 							{
								"box" : 								{
									"id" : "obj-39",
									"maxclass" : "message",
									"numinlets" : 2,
									"numoutlets" : 1,
									"outlettype" : [ "" ],
									"patching_rect" : [ 7.1640625, 307.0, 47.0, 21.0 ],
									"text" : "amp $1"
								}

							}
, 							{
								"box" : 								{
									"id" : "obj-36",
									"maxclass" : "toggle",
									"numinlets" : 1,
									"numoutlets" : 1,
									"outlettype" : [ "int" ],
									"parameter_enable" : 0,
									"patching_rect" : [ 8.328125, 179.0, 24.0, 24.0 ]
								}

							}
, 							{
								"box" : 								{
									"id" : "obj-34",
									"maxclass" : "newobj",
									"numinlets" : 1,
									"numoutlets" : 0,
									"patching_rect" : [ 8.328125, 237.5, 126.0, 21.0 ],
									"text" : "s _help_basicGrainFlow"
								}

							}
, 							{
								"box" : 								{
									"format" : 6,
									"id" : "obj-31",
									"maxclass" : "flonum",
									"numinlets" : 1,
									"numoutlets" : 2,
									"outlettype" : [ "", "bang" ],
									"parameter_enable" : 0,
									"patching_rect" : [ 713.0, 92.0, 50.0, 21.0 ]
								}

							}
, 							{
								"box" : 								{
									"format" : 6,
									"id" : "obj-27",
									"maxclass" : "flonum",
									"maximum" : 1.0,
									"minimum" : 0.0,
									"numinlets" : 1,
									"numoutlets" : 2,
									"outlettype" : [ "", "bang" ],
									"parameter_enable" : 1,
									"patching_rect" : [ 8.328125, 366.0, 50.0, 21.0 ],
									"saved_attribute_attributes" : 									{
										"valueof" : 										{
											"parameter_initial" : [ 0.2 ],
											"parameter_initial_enable" : 1,
											"parameter_longname" : "number[2]",
											"parameter_mmax" : 1.0,
											"parameter_shortname" : "number[2]",
											"parameter_type" : 0
										}

									}
,
									"varname" : "number[2]"
								}

							}
, 							{
								"box" : 								{
									"id" : "obj-26",
									"maxclass" : "newobj",
									"numinlets" : 1,
									"numoutlets" : 0,
									"patching_rect" : [ 8.328125, 429.5, 126.0, 21.0 ],
									"text" : "s _help_basicGrainFlow"
								}

							}
, 							{
								"box" : 								{
									"id" : "obj-25",
									"maxclass" : "message",
									"numinlets" : 2,
									"numoutlets" : 1,
									"outlettype" : [ "" ],
									"patching_rect" : [ 8.328125, 401.5, 92.0, 21.0 ],
									"text" : "windowOffset $1"
								}

							}
, 							{
								"box" : 								{
									"format" : 6,
									"id" : "obj-23",
									"maxclass" : "flonum",
									"maximum" : 1.0,
									"minimum" : 0.0,
									"numinlets" : 1,
									"numoutlets" : 2,
									"outlettype" : [ "", "bang" ],
									"parameter_enable" : 1,
									"patching_rect" : [ 8.328125, 470.0, 50.0, 21.0 ],
									"saved_attribute_attributes" : 									{
										"valueof" : 										{
											"parameter_initial" : [ 0.01 ],
											"parameter_initial_enable" : 1,
											"parameter_longname" : "number[3]",
											"parameter_mmax" : 1.0,
											"parameter_shortname" : "number[3]",
											"parameter_type" : 0
										}

									}
,
									"varname" : "number[3]"
								}

							}
, 							{
								"box" : 								{
									"id" : "obj-22",
									"maxclass" : "newobj",
									"numinlets" : 1,
									"numoutlets" : 0,
									"patching_rect" : [ 8.328125, 541.0, 126.0, 21.0 ],
									"text" : "s _help_basicGrainFlow"
								}

							}
, 							{
								"box" : 								{
									"id" : "obj-21",
									"maxclass" : "message",
									"numinlets" : 2,
									"numoutlets" : 1,
									"outlettype" : [ "" ],
									"patching_rect" : [ 8.328125, 510.0, 53.0, 21.0 ],
									"text" : "space $1"
								}

							}
, 							{
								"box" : 								{
									"id" : "obj-19",
									"maxclass" : "newobj",
									"numinlets" : 0,
									"numoutlets" : 1,
									"outlettype" : [ "" ],
									"patching_rect" : [ 712.0, 245.0, 125.0, 21.0 ],
									"text" : "r _help_basicGrainFlow"
								}

							}
, 							{
								"box" : 								{
									"id" : "obj-18",
									"maxclass" : "newobj",
									"numinlets" : 1,
									"numoutlets" : 0,
									"patching_rect" : [ 302.0, 338.5, 126.0, 21.0 ],
									"text" : "s _help_basicGrainFlow"
								}

							}
, 							{
								"box" : 								{
									"id" : "obj-17",
									"maxclass" : "newobj",
									"numinlets" : 1,
									"numoutlets" : 0,
									"patching_rect" : [ 298.5, 237.5, 126.0, 21.0 ],
									"text" : "s _help_basicGrainFlow"
								}

							}
, 							{
								"box" : 								{
									"format" : 6,
									"id" : "obj-16",
									"maxclass" : "flonum",
									"maximum" : 1.0,
									"minimum" : 0.0,
									"numinlets" : 1,
									"numoutlets" : 2,
									"outlettype" : [ "", "bang" ],
									"parameter_enable" : 0,
									"patching_rect" : [ 302.0, 275.5, 50.0, 21.0 ]
								}

							}
, 							{
								"box" : 								{
									"id" : "obj-14",
									"maxclass" : "message",
									"numinlets" : 2,
									"numoutlets" : 1,
									"outlettype" : [ "" ],
									"patching_rect" : [ 302.0, 309.5, 88.0, 21.0 ],
									"text" : "ampRandom $1"
								}

							}
, 							{
								"box" : 								{
									"id" : "obj-12",
									"maxclass" : "number",
									"maximum" : 5,
									"minimum" : 0,
									"numinlets" : 1,
									"numoutlets" : 2,
									"outlettype" : [ "", "bang" ],
									"parameter_enable" : 1,
									"patching_rect" : [ 298.5, 180.5, 50.0, 21.0 ],
									"saved_attribute_attributes" : 									{
										"valueof" : 										{
											"parameter_initial" : [ 5 ],
											"parameter_initial_enable" : 1,
											"parameter_longname" : "number",
											"parameter_mmax" : 5.0,
											"parameter_shortname" : "number",
											"parameter_type" : 0
										}

									}
,
									"varname" : "number"
								}

							}
, 							{
								"box" : 								{
									"id" : "obj-10",
									"maxclass" : "message",
									"numinlets" : 2,
									"numoutlets" : 1,
									"outlettype" : [ "" ],
									"patching_rect" : [ 298.5, 208.5, 62.0, 21.0 ],
									"text" : "ngrains $1"
								}

							}
, 							{
								"box" : 								{
									"id" : "obj-5",
									"linecount" : 4,
									"maxclass" : "comment",
									"numinlets" : 1,
									"numoutlets" : 0,
									"patching_rect" : [ 731.5, 300.0, 126.0, 55.0 ],
									"text" : "Each grain has its own channel.  This is convienent for bussing and panning."
								}

							}
, 							{
								"box" : 								{
									"id" : "obj-2",
									"maxclass" : "newobj",
									"numinlets" : 2,
									"numoutlets" : 1,
									"outlettype" : [ "signal" ],
									"patching_rect" : [ 713.0, 181.5, 67.0, 21.0 ],
									"text" : "phasor~ 10"
								}

							}
, 							{
								"box" : 								{
									"id" : "obj-86",
									"maxclass" : "newobj",
									"numinlets" : 2,
									"numoutlets" : 1,
									"outlettype" : [ "multichannelsignal" ],
									"patching_rect" : [ 712.0, 543.0, 61.0, 21.0 ],
									"text" : "mc.*~ 0.5"
								}

							}
, 							{
								"box" : 								{
									"fontsize" : 30.0,
									"id" : "obj-64",
									"maxclass" : "comment",
									"numinlets" : 1,
									"numoutlets" : 0,
									"patching_rect" : [ 3.0, 3.0, 503.0, 43.0 ],
									"text" : "grainflow~ General Usage"
								}

							}
, 							{
								"box" : 								{
									"id" : "obj-52",
									"maxclass" : "newobj",
									"numinlets" : 4,
									"numoutlets" : 5,
									"outlettype" : [ "multichannelsignal", "", "multichannelsignal", "multichannelsignal", "multichannelsignal" ],
									"patching_rect" : [ 712.0, 273.0, 158.0, 21.0 ],
									"text" : "grainflow~ _help_grainBuf1 5"
								}

							}
, 							{
								"box" : 								{
									"id" : "obj-9",
									"lastchannelcount" : 5,
									"maxclass" : "mc.live.gain~",
									"numinlets" : 1,
									"numoutlets" : 4,
									"outlettype" : [ "multichannelsignal", "", "float", "list" ],
									"parameter_enable" : 1,
									"patching_rect" : [ 712.0, 370.5, 81.0, 123.0 ],
									"saved_attribute_attributes" : 									{
										"valueof" : 										{
											"parameter_longname" : "mc.live.gain~",
											"parameter_mmax" : 6.0,
											"parameter_mmin" : -70.0,
											"parameter_shortname" : "grains",
											"parameter_type" : 0,
											"parameter_unitstyle" : 4
										}

									}
,
									"varname" : "mc.live.gain~"
								}

							}
, 							{
								"box" : 								{
									"id" : "obj-3",
									"maxclass" : "newobj",
									"numinlets" : 2,
									"numoutlets" : 1,
									"outlettype" : [ "multichannelsignal" ],
									"patching_rect" : [ 712.0, 512.0, 90.0, 21.0 ],
									"text" : "mc.mixdown~ 2"
								}

							}
, 							{
								"box" : 								{
									"id" : "obj-85",
									"maxclass" : "message",
									"numinlets" : 2,
									"numoutlets" : 1,
									"outlettype" : [ "" ],
									"patching_rect" : [ 708.3359375, 17.0, 45.0, 21.0 ],
									"text" : "replace"
								}

							}
, 							{
								"box" : 								{
									"id" : "obj-8",
									"maxclass" : "newobj",
									"numinlets" : 1,
									"numoutlets" : 2,
									"outlettype" : [ "float", "bang" ],
									"patching_rect" : [ 708.3359375, 56.0, 199.0, 21.0 ],
									"text" : "buffer~ _help_grainBuf1 FemVoice.aif"
								}

							}
 ],
						"lines" : [ 							{
								"patchline" : 								{
									"destination" : [ "obj-35", 0 ],
									"source" : [ "obj-1", 0 ]
								}

							}
, 							{
								"patchline" : 								{
									"destination" : [ "obj-17", 0 ],
									"source" : [ "obj-10", 0 ]
								}

							}
, 							{
								"patchline" : 								{
									"destination" : [ "obj-99", 0 ],
									"source" : [ "obj-100", 0 ]
								}

							}
, 							{
								"patchline" : 								{
									"destination" : [ "obj-69", 0 ],
									"source" : [ "obj-102", 0 ]
								}

							}
, 							{
								"patchline" : 								{
									"destination" : [ "obj-6", 0 ],
									"source" : [ "obj-11", 0 ]
								}

							}
, 							{
								"patchline" : 								{
									"destination" : [ "obj-10", 0 ],
									"source" : [ "obj-12", 0 ]
								}

							}
, 							{
								"patchline" : 								{
									"destination" : [ "obj-11", 0 ],
									"source" : [ "obj-13", 0 ]
								}

							}
, 							{
								"patchline" : 								{
									"destination" : [ "obj-18", 0 ],
									"source" : [ "obj-14", 0 ]
								}

							}
, 							{
								"patchline" : 								{
									"destination" : [ "obj-14", 0 ],
									"source" : [ "obj-16", 0 ]
								}

							}
, 							{
								"patchline" : 								{
									"destination" : [ "obj-52", 0 ],
									"source" : [ "obj-19", 0 ]
								}

							}
, 							{
								"patchline" : 								{
									"destination" : [ "obj-52", 0 ],
									"source" : [ "obj-2", 0 ]
								}

							}
, 							{
								"patchline" : 								{
									"destination" : [ "obj-32", 0 ],
									"source" : [ "obj-20", 0 ]
								}

							}
, 							{
								"patchline" : 								{
									"destination" : [ "obj-22", 0 ],
									"source" : [ "obj-21", 0 ]
								}

							}
, 							{
								"patchline" : 								{
									"destination" : [ "obj-21", 0 ],
									"source" : [ "obj-23", 0 ]
								}

							}
, 							{
								"patchline" : 								{
									"destination" : [ "obj-32", 0 ],
									"source" : [ "obj-24", 0 ]
								}

							}
, 							{
								"patchline" : 								{
									"destination" : [ "obj-26", 0 ],
									"source" : [ "obj-25", 0 ]
								}

							}
, 							{
								"patchline" : 								{
									"destination" : [ "obj-25", 0 ],
									"source" : [ "obj-27", 0 ]
								}

							}
, 							{
								"patchline" : 								{
									"destination" : [ "obj-86", 0 ],
									"source" : [ "obj-3", 0 ]
								}

							}
, 							{
								"patchline" : 								{
									"destination" : [ "obj-51", 0 ],
									"source" : [ "obj-31", 0 ]
								}

							}
, 							{
								"patchline" : 								{
									"destination" : [ "obj-33", 0 ],
									"source" : [ "obj-35", 0 ]
								}

							}
, 							{
								"patchline" : 								{
									"destination" : [ "obj-34", 0 ],
									"source" : [ "obj-36", 0 ]
								}

							}
, 							{
								"patchline" : 								{
									"destination" : [ "obj-39", 0 ],
									"source" : [ "obj-38", 0 ]
								}

							}
, 							{
								"patchline" : 								{
									"destination" : [ "obj-37", 0 ],
									"source" : [ "obj-39", 0 ]
								}

							}
, 							{
								"patchline" : 								{
									"destination" : [ "obj-42", 0 ],
									"source" : [ "obj-40", 0 ]
								}

							}
, 							{
								"patchline" : 								{
									"destination" : [ "obj-41", 0 ],
									"source" : [ "obj-42", 0 ]
								}

							}
, 							{
								"patchline" : 								{
									"destination" : [ "obj-46", 0 ],
									"source" : [ "obj-44", 0 ]
								}

							}
, 							{
								"patchline" : 								{
									"destination" : [ "obj-45", 0 ],
									"source" : [ "obj-46", 0 ]
								}

							}
, 							{
								"patchline" : 								{
									"destination" : [ "obj-54", 0 ],
									"source" : [ "obj-50", 0 ]
								}

							}
, 							{
								"patchline" : 								{
									"destination" : [ "obj-2", 0 ],
									"source" : [ "obj-51", 0 ]
								}

							}
, 							{
								"patchline" : 								{
									"destination" : [ "obj-7", 0 ],
									"source" : [ "obj-52", 1 ]
								}

							}
, 							{
								"patchline" : 								{
									"destination" : [ "obj-9", 0 ],
									"source" : [ "obj-52", 0 ]
								}

							}
, 							{
								"patchline" : 								{
									"destination" : [ "obj-56", 0 ],
									"order" : 0,
									"source" : [ "obj-53", 0 ]
								}

							}
, 							{
								"patchline" : 								{
									"destination" : [ "obj-7", 0 ],
									"order" : 1,
									"source" : [ "obj-53", 0 ]
								}

							}
, 							{
								"patchline" : 								{
									"destination" : [ "obj-55", 0 ],
									"source" : [ "obj-57", 0 ]
								}

							}
, 							{
								"patchline" : 								{
									"destination" : [ "obj-56", 0 ],
									"order" : 0,
									"source" : [ "obj-58", 0 ]
								}

							}
, 							{
								"patchline" : 								{
									"destination" : [ "obj-7", 0 ],
									"order" : 1,
									"source" : [ "obj-58", 0 ]
								}

							}
, 							{
								"patchline" : 								{
									"destination" : [ "obj-52", 1 ],
									"source" : [ "obj-69", 0 ]
								}

							}
, 							{
								"patchline" : 								{
									"destination" : [ "obj-57", 0 ],
									"source" : [ "obj-73", 0 ]
								}

							}
, 							{
								"patchline" : 								{
									"destination" : [ "obj-50", 0 ],
									"source" : [ "obj-74", 0 ]
								}

							}
, 							{
								"patchline" : 								{
									"destination" : [ "obj-77", 0 ],
									"source" : [ "obj-75", 0 ]
								}

							}
, 							{
								"patchline" : 								{
									"destination" : [ "obj-76", 0 ],
									"source" : [ "obj-77", 0 ]
								}

							}
, 							{
								"patchline" : 								{
									"destination" : [ "obj-81", 0 ],
									"source" : [ "obj-79", 0 ]
								}

							}
, 							{
								"patchline" : 								{
									"destination" : [ "obj-80", 0 ],
									"source" : [ "obj-81", 0 ]
								}

							}
, 							{
								"patchline" : 								{
									"destination" : [ "obj-84", 0 ],
									"source" : [ "obj-82", 0 ]
								}

							}
, 							{
								"patchline" : 								{
									"destination" : [ "obj-83", 0 ],
									"source" : [ "obj-84", 0 ]
								}

							}
, 							{
								"patchline" : 								{
									"destination" : [ "obj-8", 0 ],
									"source" : [ "obj-85", 0 ]
								}

							}
, 							{
								"patchline" : 								{
									"destination" : [ "obj-4", 0 ],
									"source" : [ "obj-86", 0 ]
								}

							}
, 							{
								"patchline" : 								{
									"destination" : [ "obj-89", 0 ],
									"source" : [ "obj-87", 0 ]
								}

							}
, 							{
								"patchline" : 								{
									"destination" : [ "obj-88", 0 ],
									"source" : [ "obj-89", 0 ]
								}

							}
, 							{
								"patchline" : 								{
									"destination" : [ "obj-3", 0 ],
									"source" : [ "obj-9", 0 ]
								}

							}
, 							{
								"patchline" : 								{
									"destination" : [ "obj-93", 0 ],
									"source" : [ "obj-91", 0 ]
								}

							}
, 							{
								"patchline" : 								{
									"destination" : [ "obj-92", 0 ],
									"source" : [ "obj-93", 0 ]
								}

							}
, 							{
								"patchline" : 								{
									"destination" : [ "obj-100", 0 ],
									"source" : [ "obj-98", 0 ]
								}

							}
 ],
						"styles" : [ 							{
								"name" : "Minimal",
								"default" : 								{
									"elementcolor" : [ 0.694117647058824, 0.694117647058824, 0.694117647058824, 1.0 ],
									"color" : [ 0.0, 0.0, 0.0, 1.0 ],
									"fontface" : [ 0 ],
									"editing_bgcolor" : [ 0.956862745098039, 0.956862745098039, 0.956862745098039, 1.0 ],
									"textcolor_inverse" : [ 0.0, 0.0, 0.0, 1.0 ],
									"clearcolor" : [ 1.0, 1.0, 1.0, 0.0 ],
									"bgfillcolor" : 									{
										"type" : "color",
										"color" : [ 0.65098, 0.666667, 0.662745, 1.0 ],
										"color1" : [ 0.65098, 0.666667, 0.662745, 1.0 ],
										"color2" : [ 0.290196, 0.309804, 0.301961, 1.0 ],
										"angle" : 270.0,
										"proportion" : 0.39,
										"autogradient" : 0.0
									}
,
									"fontsize" : [ 10.0 ],
									"bgcolor" : [ 0.999999, 0.999974, 0.999991, 1.0 ],
									"selectioncolor" : [ 0.0, 0.0, 0.0, 1.0 ],
									"accentcolor" : [ 0.0, 0.0, 0.0, 1.0 ],
									"fontname" : [ "Futura Medium" ]
								}
,
								"parentstyle" : "",
								"multi" : 0
							}
 ]
					}
,
					"patching_rect" : [ 107.164062000000001, 26.0, 73.0, 21.0 ],
					"saved_object_attributes" : 					{
						"description" : "",
						"digest" : "",
						"fontname" : "Futura Medium",
						"fontsize" : 10.0,
						"globalpatchername" : "",
						"style" : "Minimal",
						"tags" : ""
					}
,
					"text" : "p generaluse"
				}

			}
 ],
		"lines" : [  ],
		"parameters" : 		{
			"obj-103::obj-12" : [ "number", "number", 0 ],
			"obj-103::obj-23" : [ "number[3]", "number[3]", 0 ],
			"obj-103::obj-27" : [ "number[2]", "number[2]", 0 ],
			"obj-103::obj-38" : [ "number[1]", "number[1]", 0 ],
			"obj-103::obj-9" : [ "mc.live.gain~", "grains", 0 ],
			"obj-104::obj-9" : [ "mc.live.gain~[1]", "grains", 0 ],
			"obj-106::obj-9" : [ "mc.live.gain~[2]", "grains", 0 ],
			"parameterbanks" : 			{

			}
,
			"inherited_shortname" : 1
		}
,
		"dependency_cache" : [ 			{
				"name" : "grainflow~.maxpat",
				"bootpath" : "D:/Documents/Max 8/Packages/grainflow/patchers",
				"patcherrelativepath" : "../patchers",
				"type" : "JSON",
				"implicit" : 1
			}
, 			{
				"name" : "_grainflow.poly.maxpat",
				"bootpath" : "D:/Documents/Max 8/Packages/grainflow/patchers",
				"patcherrelativepath" : "../patchers",
				"type" : "JSON",
				"implicit" : 1
			}
, 			{
				"name" : "grainflow.voice.gendsp",
				"bootpath" : "D:/Documents/Max 8/Packages/grainflow/code",
				"patcherrelativepath" : "../code",
				"type" : "gDSP",
				"implicit" : 1
			}
, 			{
				"name" : "grainFlow.waveform~.js",
				"bootpath" : "D:/Documents/Max 8/Packages/grainflow/jsui",
				"patcherrelativepath" : "../jsui",
				"type" : "TEXT",
				"implicit" : 1
			}
 ],
		"autosave" : 0,
		"styles" : [ 			{
				"name" : "Minimal",
				"default" : 				{
					"elementcolor" : [ 0.694117647058824, 0.694117647058824, 0.694117647058824, 1.0 ],
					"color" : [ 0.0, 0.0, 0.0, 1.0 ],
					"fontface" : [ 0 ],
					"editing_bgcolor" : [ 0.956862745098039, 0.956862745098039, 0.956862745098039, 1.0 ],
					"textcolor_inverse" : [ 0.0, 0.0, 0.0, 1.0 ],
					"clearcolor" : [ 1.0, 1.0, 1.0, 0.0 ],
					"bgfillcolor" : 					{
						"type" : "color",
						"color" : [ 0.65098, 0.666667, 0.662745, 1.0 ],
						"color1" : [ 0.65098, 0.666667, 0.662745, 1.0 ],
						"color2" : [ 0.290196, 0.309804, 0.301961, 1.0 ],
						"angle" : 270.0,
						"proportion" : 0.39,
						"autogradient" : 0.0
					}
,
					"fontsize" : [ 10.0 ],
					"bgcolor" : [ 0.999999, 0.999974, 0.999991, 1.0 ],
					"selectioncolor" : [ 0.0, 0.0, 0.0, 1.0 ],
					"accentcolor" : [ 0.0, 0.0, 0.0, 1.0 ],
					"fontname" : [ "Futura Medium" ]
				}
,
				"parentstyle" : "",
				"multi" : 0
			}
 ]
	}

}
