{
	"patcher" : 	{
		"fileversion" : 1,
		"appversion" : 		{
			"major" : 8,
			"minor" : 5,
			"revision" : 5,
			"architecture" : "x64",
			"modernui" : 1
		}
,
		"classnamespace" : "box",
		"rect" : [ 1541.0, 290.0, 1343.0, 902.0 ],
		"bglocked" : 0,
		"openinpresentation" : 0,
		"default_fontsize" : 11.0,
		"default_fontface" : 0,
		"default_fontname" : "Lato",
		"gridonopen" : 1,
		"gridsize" : [ 15.0, 15.0 ],
		"gridsnaponopen" : 1,
		"objectsnaponopen" : 1,
		"statusbarvisible" : 2,
		"toolbarvisible" : 1,
		"lefttoolbarpinned" : 0,
		"toptoolbarpinned" : 0,
		"righttoolbarpinned" : 0,
		"bottomtoolbarpinned" : 0,
		"toolbars_unpinned_last_save" : 0,
		"tallnewobj" : 0,
		"boxanimatetime" : 200,
		"enablehscroll" : 1,
		"enablevscroll" : 1,
		"devicewidth" : 0.0,
		"description" : "",
		"digest" : "",
		"tags" : "",
		"style" : "Minimal",
		"subpatcher_template" : "minimal",
		"assistshowspatchername" : 0,
		"boxes" : [ 			{
				"box" : 				{
					"id" : "obj-40",
					"maxclass" : "newobj",
					"numinlets" : 3,
					"numoutlets" : 1,
					"outlettype" : [ "signal" ],
					"patching_rect" : [ 347.0, 451.0, 55.0, 22.0 ],
					"text" : "clip~ 0. 1."
				}

			}
, 			{
				"box" : 				{
					"id" : "obj-37",
					"maxclass" : "newobj",
					"numinlets" : 2,
					"numoutlets" : 1,
					"outlettype" : [ "float" ],
					"patching_rect" : [ 248.333333333333371, 204.0, 48.0, 22.0 ],
					"text" : "pow 0.5"
				}

			}
, 			{
				"box" : 				{
					"id" : "obj-33",
					"maxclass" : "newobj",
					"numinlets" : 5,
					"numoutlets" : 1,
					"outlettype" : [ "" ],
					"patching_rect" : [ 248.333333333333371, 240.0, 88.0, 22.0 ],
					"text" : "zmap 0. 1. 0.8 1."
				}

			}
, 			{
				"box" : 				{
					"id" : "obj-69",
					"maxclass" : "newobj",
					"numinlets" : 1,
					"numoutlets" : 1,
					"outlettype" : [ "multichannelsignal" ],
					"patching_rect" : [ 814.166666666666742, 430.0, 207.0, 22.0 ],
					"text" : "mc.gen~ @expr out1 = fastpow(2\\,in1/12)"
				}

			}
, 			{
				"box" : 				{
					"id" : "obj-28",
					"maxclass" : "newobj",
					"numinlets" : 2,
					"numoutlets" : 1,
					"outlettype" : [ "multichannelsignal" ],
					"patching_rect" : [ 129.666666666666686, 586.0, 36.0, 22.0 ],
					"text" : "mc.*~"
				}

			}
, 			{
				"box" : 				{
					"id" : "obj-27",
					"maxclass" : "newobj",
					"numinlets" : 2,
					"numoutlets" : 1,
					"outlettype" : [ "multichannelsignal" ],
					"patching_rect" : [ 489.666666666666686, 649.0, 36.0, 22.0 ],
					"text" : "mc.*~"
				}

			}
, 			{
				"box" : 				{
					"comment" : "",
					"id" : "obj-25",
					"index" : 4,
					"maxclass" : "inlet",
					"numinlets" : 0,
					"numoutlets" : 1,
					"outlettype" : [ "multichannelsignal" ],
					"patching_rect" : [ 814.166666666666742, 387.0, 30.0, 30.0 ]
				}

			}
, 			{
				"box" : 				{
					"id" : "obj-24",
					"maxclass" : "newobj",
					"numinlets" : 2,
					"numoutlets" : 1,
					"outlettype" : [ "multichannelsignal" ],
					"patching_rect" : [ 581.333333333333371, 586.0, 66.0, 22.0 ],
					"text" : "mc.sah~ 0.5"
				}

			}
, 			{
				"box" : 				{
					"id" : "obj-21",
					"maxclass" : "newobj",
					"numinlets" : 1,
					"numoutlets" : 1,
					"outlettype" : [ "signal" ],
					"patching_rect" : [ 347.0, 375.0, 40.0, 22.0 ],
					"text" : "noise~"
				}

			}
, 			{
				"box" : 				{
					"id" : "obj-20",
					"maxclass" : "newobj",
					"numinlets" : 2,
					"numoutlets" : 1,
					"outlettype" : [ "multichannelsignal" ],
					"patching_rect" : [ 243.0, 451.0, 66.0, 22.0 ],
					"text" : "mc.sah~ 0.5"
				}

			}
, 			{
				"box" : 				{
					"id" : "obj-19",
					"maxclass" : "newobj",
					"numinlets" : 2,
					"numoutlets" : 1,
					"outlettype" : [ "multichannelsignal" ],
					"patching_rect" : [ 347.0, 413.0, 149.0, 22.0 ],
					"text" : "grainflow.util.list~ 0.1 0.2 0.3"
				}

			}
, 			{
				"box" : 				{
					"id" : "obj-15",
					"maxclass" : "newobj",
					"numinlets" : 1,
					"numoutlets" : 1,
					"outlettype" : [ "" ],
					"patching_rect" : [ 292.0, 204.0, 43.0, 22.0 ],
					"text" : "mtof 0."
				}

			}
, 			{
				"box" : 				{
					"id" : "obj-14",
					"maxclass" : "newobj",
					"numinlets" : 5,
					"numoutlets" : 5,
					"outlettype" : [ "", "", "", "", "" ],
					"patching_rect" : [ 204.0, 163.0, 195.0, 22.0 ],
					"text" : "route freqs resonance pitches stiffness"
				}

			}
, 			{
				"box" : 				{
					"id" : "obj-66",
					"maxclass" : "newobj",
					"numinlets" : 2,
					"numoutlets" : 1,
					"outlettype" : [ "multichannelsignal" ],
					"patching_rect" : [ 221.0, 379.0, 54.0, 22.0 ],
					"text" : "mc.<=~ 0"
				}

			}
, 			{
				"box" : 				{
					"id" : "obj-46",
					"maxclass" : "newobj",
					"numinlets" : 2,
					"numoutlets" : 1,
					"outlettype" : [ "multichannelsignal" ],
					"patching_rect" : [ 292.0, 316.0, 54.0, 22.0 ],
					"text" : "mc.==~ 1"
				}

			}
, 			{
				"box" : 				{
					"id" : "obj-43",
					"maxclass" : "newobj",
					"numinlets" : 2,
					"numoutlets" : 1,
					"outlettype" : [ "multichannelsignal" ],
					"patching_rect" : [ 588.0, 368.0, 54.0, 22.0 ],
					"text" : "mc.<=~ 0"
				}

			}
, 			{
				"box" : 				{
					"id" : "obj-30",
					"maxclass" : "newobj",
					"numinlets" : 2,
					"numoutlets" : 1,
					"outlettype" : [ "multichannelsignal" ],
					"patching_rect" : [ 535.0, 526.0, 66.0, 22.0 ],
					"text" : "mc.sah~ 0.5"
				}

			}
, 			{
				"box" : 				{
					"id" : "obj-52",
					"maxclass" : "newobj",
					"numinlets" : 1,
					"numoutlets" : 1,
					"outlettype" : [ "signal" ],
					"patching_rect" : [ 86.0, 281.0, 40.0, 22.0 ],
					"text" : "noise~"
				}

			}
, 			{
				"box" : 				{
					"id" : "obj-51",
					"maxclass" : "newobj",
					"numinlets" : 2,
					"numoutlets" : 1,
					"outlettype" : [ "multichannelsignal" ],
					"patching_rect" : [ 28.0, 334.0, 226.0, 22.0 ],
					"text" : "grainflow.util.list~ 100 200 300 600 800 500"
				}

			}
, 			{
				"box" : 				{
					"id" : "obj-44",
					"maxclass" : "newobj",
					"numinlets" : 2,
					"numoutlets" : 1,
					"outlettype" : [ "multichannelsignal" ],
					"patching_rect" : [ 152.0, 379.0, 66.0, 22.0 ],
					"text" : "mc.sah~ 0.5"
				}

			}
, 			{
				"box" : 				{
					"data" : 					{
						"patcher" : 						{
							"fileversion" : 1,
							"appversion" : 							{
								"major" : 8,
								"minor" : 5,
								"revision" : 5,
								"architecture" : "x64",
								"modernui" : 1
							}
,
							"classnamespace" : "dsp.gen",
							"rect" : [ 985.0, 586.0, 1082.0, 597.0 ],
							"bglocked" : 0,
							"openinpresentation" : 0,
							"default_fontsize" : 12.0,
							"default_fontface" : 0,
							"default_fontname" : "Lato",
							"gridonopen" : 1,
							"gridsize" : [ 15.0, 15.0 ],
							"gridsnaponopen" : 1,
							"objectsnaponopen" : 1,
							"statusbarvisible" : 2,
							"toolbarvisible" : 1,
							"lefttoolbarpinned" : 0,
							"toptoolbarpinned" : 0,
							"righttoolbarpinned" : 0,
							"bottomtoolbarpinned" : 0,
							"toolbars_unpinned_last_save" : 0,
							"tallnewobj" : 0,
							"boxanimatetime" : 200,
							"enablehscroll" : 1,
							"enablevscroll" : 1,
							"devicewidth" : 0.0,
							"description" : "",
							"digest" : "",
							"tags" : "",
							"style" : "Minimal-1",
							"subpatcher_template" : "minimal",
							"assistshowspatchername" : 0,
							"boxes" : [ 								{
									"box" : 									{
										"maxclass" : "newobj",
										"text" : "dcblock",
										"id" : "obj-2",
										"numoutlets" : 1,
										"outlettype" : [ "" ],
										"patching_rect" : [ 176.0, 350.0, 49.0, 23.0 ],
										"numinlets" : 1
									}

								}
, 								{
									"box" : 									{
										"maxclass" : "newobj",
										"text" : "in 3 @comment timbre @min 0 @max 1",
										"id" : "obj-16",
										"numoutlets" : 1,
										"outlettype" : [ "" ],
										"patching_rect" : [ 201.0, 248.0, 216.0, 23.0 ],
										"numinlets" : 0
									}

								}
, 								{
									"box" : 									{
										"maxclass" : "newobj",
										"text" : "* samplerate",
										"id" : "obj-15",
										"numoutlets" : 1,
										"outlettype" : [ "" ],
										"patching_rect" : [ 381.0, 196.0, 75.0, 23.0 ],
										"numinlets" : 1
									}

								}
, 								{
									"box" : 									{
										"maxclass" : "newobj",
										"text" : "!/ 1",
										"id" : "obj-14",
										"numoutlets" : 1,
										"outlettype" : [ "" ],
										"patching_rect" : [ 381.0, 163.0, 27.0, 23.0 ],
										"numinlets" : 1
									}

								}
, 								{
									"box" : 									{
										"maxclass" : "newobj",
										"text" : "in 2 @comment freq",
										"id" : "obj-12",
										"numoutlets" : 1,
										"outlettype" : [ "" ],
										"patching_rect" : [ 381.0, 125.0, 116.0, 23.0 ],
										"numinlets" : 0
									}

								}
, 								{
									"box" : 									{
										"maxclass" : "newobj",
										"text" : "in 4 @comment fb @min -1 @max 1",
										"id" : "obj-11",
										"numoutlets" : 1,
										"outlettype" : [ "" ],
										"patching_rect" : [ 118.5, 46.0, 197.0, 23.0 ],
										"numinlets" : 0
									}

								}
, 								{
									"box" : 									{
										"maxclass" : "newobj",
										"text" : "*",
										"id" : "obj-9",
										"numoutlets" : 1,
										"outlettype" : [ "" ],
										"patching_rect" : [ 108.0, 136.0, 29.5, 23.0 ],
										"numinlets" : 2
									}

								}
, 								{
									"box" : 									{
										"maxclass" : "newobj",
										"text" : "history",
										"id" : "obj-8",
										"numoutlets" : 1,
										"outlettype" : [ "" ],
										"patching_rect" : [ 242.0, 286.0, 45.0, 23.0 ],
										"numinlets" : 1
									}

								}
, 								{
									"box" : 									{
										"maxclass" : "newobj",
										"text" : "mix",
										"id" : "obj-7",
										"numoutlets" : 1,
										"outlettype" : [ "" ],
										"patching_rect" : [ 180.0, 286.0, 40.0, 23.0 ],
										"numinlets" : 3
									}

								}
, 								{
									"box" : 									{
										"maxclass" : "newobj",
										"text" : "* -1",
										"id" : "obj-6",
										"numoutlets" : 1,
										"outlettype" : [ "" ],
										"patching_rect" : [ 108.0, 101.0, 28.0, 23.0 ],
										"numinlets" : 1
									}

								}
, 								{
									"box" : 									{
										"maxclass" : "newobj",
										"text" : "delay samplerate/10",
										"id" : "obj-5",
										"numoutlets" : 1,
										"outlettype" : [ "" ],
										"patching_rect" : [ 180.0, 192.0, 117.0, 23.0 ],
										"numinlets" : 2
									}

								}
, 								{
									"box" : 									{
										"maxclass" : "newobj",
										"text" : "in 1 @comment impulse",
										"id" : "obj-1",
										"numoutlets" : 1,
										"outlettype" : [ "" ],
										"patching_rect" : [ 180.0, 136.0, 134.0, 23.0 ],
										"numinlets" : 0
									}

								}
, 								{
									"box" : 									{
										"maxclass" : "newobj",
										"text" : "out 1",
										"id" : "obj-4",
										"numoutlets" : 0,
										"patching_rect" : [ 176.0, 418.0, 36.0, 23.0 ],
										"numinlets" : 1
									}

								}
 ],
							"lines" : [ 								{
									"patchline" : 									{
										"source" : [ "obj-11", 0 ],
										"destination" : [ "obj-9", 1 ]
									}

								}
, 								{
									"patchline" : 									{
										"source" : [ "obj-5", 0 ],
										"destination" : [ "obj-7", 0 ]
									}

								}
, 								{
									"patchline" : 									{
										"source" : [ "obj-7", 0 ],
										"destination" : [ "obj-8", 0 ],
										"order" : 0
									}

								}
, 								{
									"patchline" : 									{
										"source" : [ "obj-8", 0 ],
										"destination" : [ "obj-7", 1 ]
									}

								}
, 								{
									"patchline" : 									{
										"source" : [ "obj-6", 0 ],
										"destination" : [ "obj-9", 0 ]
									}

								}
, 								{
									"patchline" : 									{
										"source" : [ "obj-9", 0 ],
										"destination" : [ "obj-5", 0 ]
									}

								}
, 								{
									"patchline" : 									{
										"source" : [ "obj-1", 0 ],
										"destination" : [ "obj-5", 0 ]
									}

								}
, 								{
									"patchline" : 									{
										"source" : [ "obj-12", 0 ],
										"destination" : [ "obj-14", 0 ]
									}

								}
, 								{
									"patchline" : 									{
										"source" : [ "obj-14", 0 ],
										"destination" : [ "obj-15", 0 ]
									}

								}
, 								{
									"patchline" : 									{
										"source" : [ "obj-15", 0 ],
										"destination" : [ "obj-5", 1 ]
									}

								}
, 								{
									"patchline" : 									{
										"source" : [ "obj-16", 0 ],
										"destination" : [ "obj-7", 2 ]
									}

								}
, 								{
									"patchline" : 									{
										"source" : [ "obj-2", 0 ],
										"destination" : [ "obj-4", 0 ],
										"order" : 0
									}

								}
, 								{
									"patchline" : 									{
										"source" : [ "obj-2", 0 ],
										"destination" : [ "obj-6", 0 ],
										"midpoints" : [ 185.5, 381.0, 82.5, 381.0, 82.5, 90.0, 117.5, 90.0 ],
										"order" : 1
									}

								}
, 								{
									"patchline" : 									{
										"source" : [ "obj-7", 0 ],
										"destination" : [ "obj-2", 0 ],
										"order" : 1
									}

								}
 ],
							"styles" : [ 								{
									"name" : "Minimal",
									"default" : 									{
										"accentcolor" : [ 0.0, 0.0, 0.0, 1.0 ],
										"bgcolor" : [ 0.999999, 0.999974, 0.999991, 1.0 ],
										"bgfillcolor" : 										{
											"angle" : 270.0,
											"autogradient" : 0.0,
											"color" : [ 0.65098, 0.666667, 0.662745, 1.0 ],
											"color1" : [ 0.65098, 0.666667, 0.662745, 1.0 ],
											"color2" : [ 0.290196, 0.309804, 0.301961, 1.0 ],
											"proportion" : 0.39,
											"type" : "color"
										}
,
										"color" : [ 0.0, 0.0, 0.0, 1.0 ],
										"editing_bgcolor" : [ 0.956862745098039, 0.956862745098039, 0.956862745098039, 1.0 ],
										"elementcolor" : [ 0.647058823529412, 0.647058823529412, 0.647058823529412, 1.0 ],
										"fontface" : [ 0 ],
										"fontname" : [ "Futura Medium" ],
										"fontsize" : [ 10.0 ],
										"selectioncolor" : [ 0.0, 0.0, 0.0, 1.0 ],
										"textcolor_inverse" : [ 0.0, 0.0, 0.0, 1.0 ]
									}
,
									"parentstyle" : "",
									"multi" : 0
								}
, 								{
									"name" : "Minimal-1",
									"default" : 									{
										"accentcolor" : [ 0.0, 0.0, 0.0, 1.0 ],
										"bgcolor" : [ 0.999999, 0.999974, 0.999991, 1.0 ],
										"bgfillcolor" : 										{
											"angle" : 270.0,
											"autogradient" : 0.0,
											"color" : [ 0.65098, 0.666667, 0.662745, 1.0 ],
											"color1" : [ 0.65098, 0.666667, 0.662745, 1.0 ],
											"color2" : [ 0.290196, 0.309804, 0.301961, 1.0 ],
											"proportion" : 0.39,
											"type" : "color"
										}
,
										"color" : [ 0.0, 0.0, 0.0, 1.0 ],
										"editing_bgcolor" : [ 0.956862745098039, 0.956862745098039, 0.956862745098039, 1.0 ],
										"elementcolor" : [ 0.741176470588235, 0.741176470588235, 0.741176470588235, 1.0 ],
										"fontface" : [ 0 ],
										"fontname" : [ "Lato" ],
										"fontsize" : [ 12.0 ],
										"selectioncolor" : [ 0.0, 0.0, 0.0, 1.0 ],
										"textcolor_inverse" : [ 0.0, 0.0, 0.0, 1.0 ]
									}
,
									"parentstyle" : "",
									"multi" : 0
								}
 ]
						}

					}
,
					"id" : "obj-17",
					"maxclass" : "newobj",
					"numinlets" : 4,
					"numoutlets" : 1,
					"outlettype" : [ "multichannelsignal" ],
					"patching_rect" : [ 398.0, 709.0, 294.0, 22.0 ],
					"text" : "mc.gen~",
					"wrapper_uniquekey" : "u814000977"
				}

			}
, 			{
				"box" : 				{
					"id" : "obj-56",
					"maxclass" : "newobj",
					"numinlets" : 1,
					"numoutlets" : 1,
					"outlettype" : [ "signal" ],
					"patching_rect" : [ 680.0, 636.0, 53.0, 22.0 ],
					"text" : "sig~ 0.94"
				}

			}
, 			{
				"box" : 				{
					"id" : "obj-55",
					"maxclass" : "newobj",
					"numinlets" : 1,
					"numoutlets" : 1,
					"outlettype" : [ "signal" ],
					"patching_rect" : [ 314.666666666666629, 522.0, 53.0, 22.0 ],
					"text" : "sig~ 0.94"
				}

			}
, 			{
				"box" : 				{
					"id" : "obj-50",
					"maxclass" : "newobj",
					"numinlets" : 2,
					"numoutlets" : 1,
					"outlettype" : [ "multichannelsignal" ],
					"patching_rect" : [ 584.0, 338.0, 54.0, 22.0 ],
					"text" : "mc.==~ 2"
				}

			}
, 			{
				"box" : 				{
					"data" : 					{
						"patcher" : 						{
							"fileversion" : 1,
							"appversion" : 							{
								"major" : 8,
								"minor" : 5,
								"revision" : 5,
								"architecture" : "x64",
								"modernui" : 1
							}
,
							"classnamespace" : "dsp.gen",
							"rect" : [ 481.0, 634.0, 1082.0, 598.0 ],
							"bglocked" : 0,
							"openinpresentation" : 0,
							"default_fontsize" : 12.0,
							"default_fontface" : 0,
							"default_fontname" : "Lato",
							"gridonopen" : 1,
							"gridsize" : [ 15.0, 15.0 ],
							"gridsnaponopen" : 1,
							"objectsnaponopen" : 1,
							"statusbarvisible" : 2,
							"toolbarvisible" : 1,
							"lefttoolbarpinned" : 0,
							"toptoolbarpinned" : 0,
							"righttoolbarpinned" : 0,
							"bottomtoolbarpinned" : 0,
							"toolbars_unpinned_last_save" : 0,
							"tallnewobj" : 0,
							"boxanimatetime" : 200,
							"enablehscroll" : 1,
							"enablevscroll" : 1,
							"devicewidth" : 0.0,
							"description" : "",
							"digest" : "",
							"tags" : "",
							"style" : "Minimal-1",
							"subpatcher_template" : "minimal",
							"assistshowspatchername" : 0,
							"boxes" : [ 								{
									"box" : 									{
										"maxclass" : "newobj",
										"text" : "% 2",
										"id" : "obj-14",
										"numoutlets" : 1,
										"outlettype" : [ "" ],
										"patching_rect" : [ 209.0, 263.0, 28.0, 23.0 ],
										"numinlets" : 1
									}

								}
, 								{
									"box" : 									{
										"maxclass" : "newobj",
										"text" : "+ 1",
										"id" : "obj-10",
										"numoutlets" : 1,
										"outlettype" : [ "" ],
										"patching_rect" : [ 205.0, 296.0, 25.0, 23.0 ],
										"numinlets" : 1
									}

								}
, 								{
									"box" : 									{
										"maxclass" : "newobj",
										"text" : "+=",
										"id" : "obj-8",
										"numoutlets" : 1,
										"outlettype" : [ "" ],
										"patching_rect" : [ 202.75, 219.0, 29.5, 23.0 ],
										"numinlets" : 2
									}

								}
, 								{
									"box" : 									{
										"maxclass" : "newobj",
										"text" : "== -1",
										"id" : "obj-7",
										"numoutlets" : 1,
										"outlettype" : [ "" ],
										"patching_rect" : [ 202.75, 191.0, 37.0, 23.0 ],
										"numinlets" : 1
									}

								}
, 								{
									"box" : 									{
										"maxclass" : "newobj",
										"text" : "change",
										"id" : "obj-5",
										"numoutlets" : 1,
										"outlettype" : [ "" ],
										"patching_rect" : [ 202.75, 126.0, 46.0, 23.0 ],
										"numinlets" : 1
									}

								}
, 								{
									"box" : 									{
										"maxclass" : "newobj",
										"text" : "in 1",
										"id" : "obj-1",
										"numoutlets" : 1,
										"outlettype" : [ "" ],
										"patching_rect" : [ 202.75, 66.0, 28.0, 23.0 ],
										"numinlets" : 0
									}

								}
, 								{
									"box" : 									{
										"maxclass" : "newobj",
										"text" : "out 1",
										"id" : "obj-4",
										"numoutlets" : 0,
										"patching_rect" : [ 322.0, 404.0, 36.0, 23.0 ],
										"numinlets" : 1
									}

								}
 ],
							"lines" : [ 								{
									"patchline" : 									{
										"source" : [ "obj-10", 0 ],
										"destination" : [ "obj-4", 0 ]
									}

								}
, 								{
									"patchline" : 									{
										"source" : [ "obj-1", 0 ],
										"destination" : [ "obj-5", 0 ]
									}

								}
, 								{
									"patchline" : 									{
										"source" : [ "obj-8", 0 ],
										"destination" : [ "obj-14", 0 ]
									}

								}
, 								{
									"patchline" : 									{
										"source" : [ "obj-14", 0 ],
										"destination" : [ "obj-10", 0 ]
									}

								}
, 								{
									"patchline" : 									{
										"source" : [ "obj-7", 0 ],
										"destination" : [ "obj-8", 0 ]
									}

								}
, 								{
									"patchline" : 									{
										"source" : [ "obj-5", 0 ],
										"destination" : [ "obj-7", 0 ]
									}

								}
 ],
							"styles" : [ 								{
									"name" : "Minimal",
									"default" : 									{
										"accentcolor" : [ 0.0, 0.0, 0.0, 1.0 ],
										"bgcolor" : [ 0.999999, 0.999974, 0.999991, 1.0 ],
										"bgfillcolor" : 										{
											"angle" : 270.0,
											"autogradient" : 0.0,
											"color" : [ 0.65098, 0.666667, 0.662745, 1.0 ],
											"color1" : [ 0.65098, 0.666667, 0.662745, 1.0 ],
											"color2" : [ 0.290196, 0.309804, 0.301961, 1.0 ],
											"proportion" : 0.39,
											"type" : "color"
										}
,
										"color" : [ 0.0, 0.0, 0.0, 1.0 ],
										"editing_bgcolor" : [ 0.956862745098039, 0.956862745098039, 0.956862745098039, 1.0 ],
										"elementcolor" : [ 0.647058823529412, 0.647058823529412, 0.647058823529412, 1.0 ],
										"fontface" : [ 0 ],
										"fontname" : [ "Futura Medium" ],
										"fontsize" : [ 10.0 ],
										"selectioncolor" : [ 0.0, 0.0, 0.0, 1.0 ],
										"textcolor_inverse" : [ 0.0, 0.0, 0.0, 1.0 ]
									}
,
									"parentstyle" : "",
									"multi" : 0
								}
, 								{
									"name" : "Minimal-1",
									"default" : 									{
										"accentcolor" : [ 0.0, 0.0, 0.0, 1.0 ],
										"bgcolor" : [ 0.999999, 0.999974, 0.999991, 1.0 ],
										"bgfillcolor" : 										{
											"angle" : 270.0,
											"autogradient" : 0.0,
											"color" : [ 0.65098, 0.666667, 0.662745, 1.0 ],
											"color1" : [ 0.65098, 0.666667, 0.662745, 1.0 ],
											"color2" : [ 0.290196, 0.309804, 0.301961, 1.0 ],
											"proportion" : 0.39,
											"type" : "color"
										}
,
										"color" : [ 0.0, 0.0, 0.0, 1.0 ],
										"editing_bgcolor" : [ 0.956862745098039, 0.956862745098039, 0.956862745098039, 1.0 ],
										"elementcolor" : [ 0.741176470588235, 0.741176470588235, 0.741176470588235, 1.0 ],
										"fontface" : [ 0 ],
										"fontname" : [ "Lato" ],
										"fontsize" : [ 12.0 ],
										"selectioncolor" : [ 0.0, 0.0, 0.0, 1.0 ],
										"textcolor_inverse" : [ 0.0, 0.0, 0.0, 1.0 ]
									}
,
									"parentstyle" : "",
									"multi" : 0
								}
 ]
						}

					}
,
					"id" : "obj-45",
					"maxclass" : "newobj",
					"numinlets" : 1,
					"numoutlets" : 1,
					"outlettype" : [ "multichannelsignal" ],
					"patching_rect" : [ 413.666666666666629, 185.0, 49.0, 22.0 ],
					"text" : "mc.gen~",
					"wrapper_uniquekey" : "u436000987"
				}

			}
, 			{
				"box" : 				{
					"id" : "obj-18",
					"linecount" : 2,
					"maxclass" : "comment",
					"numinlets" : 1,
					"numoutlets" : 0,
					"patching_rect" : [ 961.0, 566.0, 150.0, 33.0 ],
					"text" : "Runs so the decay can be faeded out decay"
				}

			}
, 			{
				"box" : 				{
					"id" : "obj-16",
					"maxclass" : "newobj",
					"numinlets" : 2,
					"numoutlets" : 1,
					"outlettype" : [ "multichannelsignal" ],
					"patching_rect" : [ 38.0, 781.0, 38.0, 22.0 ],
					"text" : "mc.+~"
				}

			}
, 			{
				"box" : 				{
					"id" : "obj-12",
					"maxclass" : "comment",
					"numinlets" : 1,
					"numoutlets" : 0,
					"patching_rect" : [ 961.0, 523.0, 150.0, 20.0 ],
					"text" : "Basic Karplus Strong "
				}

			}
, 			{
				"box" : 				{
					"data" : 					{
						"patcher" : 						{
							"fileversion" : 1,
							"appversion" : 							{
								"major" : 8,
								"minor" : 5,
								"revision" : 5,
								"architecture" : "x64",
								"modernui" : 1
							}
,
							"classnamespace" : "dsp.gen",
							"rect" : [ 985.0, 586.0, 1082.0, 597.0 ],
							"bglocked" : 0,
							"openinpresentation" : 0,
							"default_fontsize" : 12.0,
							"default_fontface" : 0,
							"default_fontname" : "Lato",
							"gridonopen" : 1,
							"gridsize" : [ 15.0, 15.0 ],
							"gridsnaponopen" : 1,
							"objectsnaponopen" : 1,
							"statusbarvisible" : 2,
							"toolbarvisible" : 1,
							"lefttoolbarpinned" : 0,
							"toptoolbarpinned" : 0,
							"righttoolbarpinned" : 0,
							"bottomtoolbarpinned" : 0,
							"toolbars_unpinned_last_save" : 0,
							"tallnewobj" : 0,
							"boxanimatetime" : 200,
							"enablehscroll" : 1,
							"enablevscroll" : 1,
							"devicewidth" : 0.0,
							"description" : "",
							"digest" : "",
							"tags" : "",
							"style" : "Minimal-1",
							"subpatcher_template" : "minimal",
							"assistshowspatchername" : 0,
							"boxes" : [ 								{
									"box" : 									{
										"maxclass" : "newobj",
										"text" : "dcblock",
										"id" : "obj-2",
										"numoutlets" : 1,
										"outlettype" : [ "" ],
										"patching_rect" : [ 180.0, 326.0, 49.0, 23.0 ],
										"numinlets" : 1
									}

								}
, 								{
									"box" : 									{
										"maxclass" : "newobj",
										"text" : "in 3 @comment timbre @min 0 @max 1",
										"id" : "obj-16",
										"numoutlets" : 1,
										"outlettype" : [ "" ],
										"patching_rect" : [ 201.0, 248.0, 216.0, 23.0 ],
										"numinlets" : 0
									}

								}
, 								{
									"box" : 									{
										"maxclass" : "newobj",
										"text" : "* samplerate",
										"id" : "obj-15",
										"numoutlets" : 1,
										"outlettype" : [ "" ],
										"patching_rect" : [ 381.0, 196.0, 75.0, 23.0 ],
										"numinlets" : 1
									}

								}
, 								{
									"box" : 									{
										"maxclass" : "newobj",
										"text" : "!/ 1",
										"id" : "obj-14",
										"numoutlets" : 1,
										"outlettype" : [ "" ],
										"patching_rect" : [ 381.0, 163.0, 27.0, 23.0 ],
										"numinlets" : 1
									}

								}
, 								{
									"box" : 									{
										"maxclass" : "newobj",
										"text" : "in 2 @comment freq",
										"id" : "obj-12",
										"numoutlets" : 1,
										"outlettype" : [ "" ],
										"patching_rect" : [ 381.0, 125.0, 116.0, 23.0 ],
										"numinlets" : 0
									}

								}
, 								{
									"box" : 									{
										"maxclass" : "newobj",
										"text" : "in 4 @comment fb @min -1 @max 1",
										"id" : "obj-11",
										"numoutlets" : 1,
										"outlettype" : [ "" ],
										"patching_rect" : [ 118.5, 46.0, 197.0, 23.0 ],
										"numinlets" : 0
									}

								}
, 								{
									"box" : 									{
										"maxclass" : "newobj",
										"text" : "*",
										"id" : "obj-9",
										"numoutlets" : 1,
										"outlettype" : [ "" ],
										"patching_rect" : [ 108.0, 136.0, 29.5, 23.0 ],
										"numinlets" : 2
									}

								}
, 								{
									"box" : 									{
										"maxclass" : "newobj",
										"text" : "history",
										"id" : "obj-8",
										"numoutlets" : 1,
										"outlettype" : [ "" ],
										"patching_rect" : [ 242.0, 286.0, 45.0, 23.0 ],
										"numinlets" : 1
									}

								}
, 								{
									"box" : 									{
										"maxclass" : "newobj",
										"text" : "mix",
										"id" : "obj-7",
										"numoutlets" : 1,
										"outlettype" : [ "" ],
										"patching_rect" : [ 180.0, 286.0, 40.0, 23.0 ],
										"numinlets" : 3
									}

								}
, 								{
									"box" : 									{
										"maxclass" : "newobj",
										"text" : "* -1",
										"id" : "obj-6",
										"numoutlets" : 1,
										"outlettype" : [ "" ],
										"patching_rect" : [ 108.0, 101.0, 28.0, 23.0 ],
										"numinlets" : 1
									}

								}
, 								{
									"box" : 									{
										"maxclass" : "newobj",
										"text" : "delay samplerate/10",
										"id" : "obj-5",
										"numoutlets" : 1,
										"outlettype" : [ "" ],
										"patching_rect" : [ 180.0, 192.0, 117.0, 23.0 ],
										"numinlets" : 2
									}

								}
, 								{
									"box" : 									{
										"maxclass" : "newobj",
										"text" : "in 1 @comment impulse",
										"id" : "obj-1",
										"numoutlets" : 1,
										"outlettype" : [ "" ],
										"patching_rect" : [ 180.0, 136.0, 134.0, 23.0 ],
										"numinlets" : 0
									}

								}
, 								{
									"box" : 									{
										"maxclass" : "newobj",
										"text" : "out 1",
										"id" : "obj-4",
										"numoutlets" : 0,
										"patching_rect" : [ 176.0, 418.0, 36.0, 23.0 ],
										"numinlets" : 1
									}

								}
 ],
							"lines" : [ 								{
									"patchline" : 									{
										"source" : [ "obj-11", 0 ],
										"destination" : [ "obj-9", 1 ]
									}

								}
, 								{
									"patchline" : 									{
										"source" : [ "obj-7", 0 ],
										"destination" : [ "obj-2", 0 ],
										"order" : 1
									}

								}
, 								{
									"patchline" : 									{
										"source" : [ "obj-2", 0 ],
										"destination" : [ "obj-6", 0 ],
										"midpoints" : [ 189.5, 319.0, 82.5, 319.0, 82.5, 90.0, 117.5, 90.0 ],
										"order" : 1
									}

								}
, 								{
									"patchline" : 									{
										"source" : [ "obj-2", 0 ],
										"destination" : [ "obj-4", 0 ],
										"order" : 0
									}

								}
, 								{
									"patchline" : 									{
										"source" : [ "obj-16", 0 ],
										"destination" : [ "obj-7", 2 ]
									}

								}
, 								{
									"patchline" : 									{
										"source" : [ "obj-15", 0 ],
										"destination" : [ "obj-5", 1 ]
									}

								}
, 								{
									"patchline" : 									{
										"source" : [ "obj-14", 0 ],
										"destination" : [ "obj-15", 0 ]
									}

								}
, 								{
									"patchline" : 									{
										"source" : [ "obj-12", 0 ],
										"destination" : [ "obj-14", 0 ]
									}

								}
, 								{
									"patchline" : 									{
										"source" : [ "obj-1", 0 ],
										"destination" : [ "obj-5", 0 ]
									}

								}
, 								{
									"patchline" : 									{
										"source" : [ "obj-9", 0 ],
										"destination" : [ "obj-5", 0 ]
									}

								}
, 								{
									"patchline" : 									{
										"source" : [ "obj-6", 0 ],
										"destination" : [ "obj-9", 0 ]
									}

								}
, 								{
									"patchline" : 									{
										"source" : [ "obj-8", 0 ],
										"destination" : [ "obj-7", 1 ]
									}

								}
, 								{
									"patchline" : 									{
										"source" : [ "obj-7", 0 ],
										"destination" : [ "obj-8", 0 ],
										"order" : 0
									}

								}
, 								{
									"patchline" : 									{
										"source" : [ "obj-5", 0 ],
										"destination" : [ "obj-7", 0 ]
									}

								}
 ],
							"styles" : [ 								{
									"name" : "Minimal",
									"default" : 									{
										"accentcolor" : [ 0.0, 0.0, 0.0, 1.0 ],
										"bgcolor" : [ 0.999999, 0.999974, 0.999991, 1.0 ],
										"bgfillcolor" : 										{
											"angle" : 270.0,
											"autogradient" : 0.0,
											"color" : [ 0.65098, 0.666667, 0.662745, 1.0 ],
											"color1" : [ 0.65098, 0.666667, 0.662745, 1.0 ],
											"color2" : [ 0.290196, 0.309804, 0.301961, 1.0 ],
											"proportion" : 0.39,
											"type" : "color"
										}
,
										"color" : [ 0.0, 0.0, 0.0, 1.0 ],
										"editing_bgcolor" : [ 0.956862745098039, 0.956862745098039, 0.956862745098039, 1.0 ],
										"elementcolor" : [ 0.647058823529412, 0.647058823529412, 0.647058823529412, 1.0 ],
										"fontface" : [ 0 ],
										"fontname" : [ "Futura Medium" ],
										"fontsize" : [ 10.0 ],
										"selectioncolor" : [ 0.0, 0.0, 0.0, 1.0 ],
										"textcolor_inverse" : [ 0.0, 0.0, 0.0, 1.0 ]
									}
,
									"parentstyle" : "",
									"multi" : 0
								}
, 								{
									"name" : "Minimal-1",
									"default" : 									{
										"accentcolor" : [ 0.0, 0.0, 0.0, 1.0 ],
										"bgcolor" : [ 0.999999, 0.999974, 0.999991, 1.0 ],
										"bgfillcolor" : 										{
											"angle" : 270.0,
											"autogradient" : 0.0,
											"color" : [ 0.65098, 0.666667, 0.662745, 1.0 ],
											"color1" : [ 0.65098, 0.666667, 0.662745, 1.0 ],
											"color2" : [ 0.290196, 0.309804, 0.301961, 1.0 ],
											"proportion" : 0.39,
											"type" : "color"
										}
,
										"color" : [ 0.0, 0.0, 0.0, 1.0 ],
										"editing_bgcolor" : [ 0.956862745098039, 0.956862745098039, 0.956862745098039, 1.0 ],
										"elementcolor" : [ 0.741176470588235, 0.741176470588235, 0.741176470588235, 1.0 ],
										"fontface" : [ 0 ],
										"fontname" : [ "Lato" ],
										"fontsize" : [ 12.0 ],
										"selectioncolor" : [ 0.0, 0.0, 0.0, 1.0 ],
										"textcolor_inverse" : [ 0.0, 0.0, 0.0, 1.0 ]
									}
,
									"parentstyle" : "",
									"multi" : 0
								}
 ]
						}

					}
,
					"id" : "obj-5",
					"maxclass" : "newobj",
					"numinlets" : 4,
					"numoutlets" : 1,
					"outlettype" : [ "multichannelsignal" ],
					"patching_rect" : [ 38.0, 631.0, 294.0, 22.0 ],
					"text" : "mc.gen~",
					"wrapper_uniquekey" : "u282000997"
				}

			}
, 			{
				"box" : 				{
					"id" : "obj-36",
					"maxclass" : "newobj",
					"numinlets" : 2,
					"numoutlets" : 1,
					"outlettype" : [ "multichannelsignal" ],
					"patching_rect" : [ 314.666666666666629, 77.0, 38.0, 22.0 ],
					"text" : "mc.+~"
				}

			}
, 			{
				"box" : 				{
					"id" : "obj-35",
					"maxclass" : "newobj",
					"numinlets" : 2,
					"numoutlets" : 1,
					"outlettype" : [ "multichannelsignal" ],
					"patching_rect" : [ 751.0, 124.0, 38.0, 22.0 ],
					"text" : "mc.+~"
				}

			}
, 			{
				"box" : 				{
					"id" : "obj-34",
					"maxclass" : "newobj",
					"numinlets" : 2,
					"numoutlets" : 2,
					"outlettype" : [ "", "" ],
					"patching_rect" : [ 751.0, 96.0, 148.0, 22.0 ],
					"text" : "routepass multichannelsignal"
				}

			}
, 			{
				"box" : 				{
					"id" : "obj-31",
					"maxclass" : "newobj",
					"numinlets" : 2,
					"numoutlets" : 2,
					"outlettype" : [ "", "" ],
					"patching_rect" : [ 314.666666666666629, 51.0, 148.0, 22.0 ],
					"text" : "routepass multichannelsignal"
				}

			}
, 			{
				"box" : 				{
					"comment" : "",
					"id" : "obj-23",
					"index" : 2,
					"maxclass" : "outlet",
					"numinlets" : 1,
					"numoutlets" : 0,
					"patching_rect" : [ 314.666666666666629, 139.0, 30.0, 30.0 ]
				}

			}
, 			{
				"box" : 				{
					"comment" : "",
					"id" : "obj-22",
					"index" : 3,
					"maxclass" : "outlet",
					"numinlets" : 1,
					"numoutlets" : 0,
					"patching_rect" : [ 751.0, 165.0, 30.0, 30.0 ]
				}

			}
, 			{
				"box" : 				{
					"id" : "obj-13",
					"maxclass" : "message",
					"numinlets" : 2,
					"numoutlets" : 1,
					"outlettype" : [ "" ],
					"patching_rect" : [ -3.0, 163.0, 52.0, 22.0 ],
					"text" : "chans $1"
				}

			}
, 			{
				"box" : 				{
					"id" : "obj-11",
					"maxclass" : "newobj",
					"numinlets" : 2,
					"numoutlets" : 2,
					"outlettype" : [ "bang", "" ],
					"patching_rect" : [ 9.0, 87.0, 31.0, 22.0 ],
					"text" : "sel 1"
				}

			}
, 			{
				"box" : 				{
					"id" : "obj-10",
					"maxclass" : "newobj",
					"numinlets" : 1,
					"numoutlets" : 4,
					"outlettype" : [ "int", "float", "int", "int" ],
					"patching_rect" : [ 9.0, 63.0, 56.0, 22.0 ],
					"text" : "dspstate~"
				}

			}
, 			{
				"box" : 				{
					"id" : "obj-9",
					"maxclass" : "newobj",
					"numinlets" : 1,
					"numoutlets" : 2,
					"outlettype" : [ "int", "signal" ],
					"patching_rect" : [ -3.0, 139.0, 97.0, 22.0 ],
					"text" : "mc.channelcount~"
				}

			}
, 			{
				"box" : 				{
					"id" : "obj-7",
					"maxclass" : "newobj",
					"numinlets" : 2,
					"numoutlets" : 1,
					"outlettype" : [ "multichannelsignal" ],
					"patching_rect" : [ 87.0, 115.0, 38.0, 22.0 ],
					"text" : "mc.+~"
				}

			}
, 			{
				"box" : 				{
					"id" : "obj-6",
					"maxclass" : "newobj",
					"numinlets" : 2,
					"numoutlets" : 2,
					"outlettype" : [ "", "" ],
					"patching_rect" : [ 87.0, 77.0, 148.0, 22.0 ],
					"text" : "routepass multichannelsignal"
				}

			}
, 			{
				"box" : 				{
					"comment" : "",
					"id" : "obj-4",
					"index" : 3,
					"maxclass" : "inlet",
					"numinlets" : 0,
					"numoutlets" : 1,
					"outlettype" : [ "multichannelsignal" ],
					"patching_rect" : [ 751.0, 50.0, 30.0, 30.0 ]
				}

			}
, 			{
				"box" : 				{
					"comment" : "",
					"id" : "obj-3",
					"index" : 2,
					"maxclass" : "inlet",
					"numinlets" : 0,
					"numoutlets" : 1,
					"outlettype" : [ "multichannelsignal" ],
					"patching_rect" : [ 304.233333333333348, 19.0, 30.0, 30.0 ]
				}

			}
, 			{
				"box" : 				{
					"comment" : "",
					"id" : "obj-2",
					"index" : 1,
					"maxclass" : "outlet",
					"numinlets" : 1,
					"numoutlets" : 0,
					"patching_rect" : [ 38.0, 817.0, 30.0, 30.0 ]
				}

			}
, 			{
				"box" : 				{
					"comment" : "",
					"id" : "obj-1",
					"index" : 1,
					"maxclass" : "inlet",
					"numinlets" : 0,
					"numoutlets" : 1,
					"outlettype" : [ "multichannelsignal" ],
					"patching_rect" : [ 87.0, 39.0, 30.0, 30.0 ]
				}

			}
 ],
		"lines" : [ 			{
				"patchline" : 				{
					"destination" : [ "obj-6", 0 ],
					"source" : [ "obj-1", 0 ]
				}

			}
, 			{
				"patchline" : 				{
					"destination" : [ "obj-11", 0 ],
					"source" : [ "obj-10", 0 ]
				}

			}
, 			{
				"patchline" : 				{
					"destination" : [ "obj-9", 0 ],
					"source" : [ "obj-11", 0 ]
				}

			}
, 			{
				"patchline" : 				{
					"destination" : [ "obj-15", 0 ],
					"source" : [ "obj-14", 2 ]
				}

			}
, 			{
				"patchline" : 				{
					"destination" : [ "obj-19", 1 ],
					"source" : [ "obj-14", 3 ]
				}

			}
, 			{
				"patchline" : 				{
					"destination" : [ "obj-37", 0 ],
					"source" : [ "obj-14", 1 ]
				}

			}
, 			{
				"patchline" : 				{
					"destination" : [ "obj-51", 1 ],
					"source" : [ "obj-14", 0 ]
				}

			}
, 			{
				"patchline" : 				{
					"destination" : [ "obj-51", 1 ],
					"source" : [ "obj-15", 0 ]
				}

			}
, 			{
				"patchline" : 				{
					"destination" : [ "obj-2", 0 ],
					"source" : [ "obj-16", 0 ]
				}

			}
, 			{
				"patchline" : 				{
					"destination" : [ "obj-16", 0 ],
					"source" : [ "obj-17", 0 ]
				}

			}
, 			{
				"patchline" : 				{
					"destination" : [ "obj-40", 0 ],
					"source" : [ "obj-19", 0 ]
				}

			}
, 			{
				"patchline" : 				{
					"destination" : [ "obj-5", 2 ],
					"source" : [ "obj-20", 0 ]
				}

			}
, 			{
				"patchline" : 				{
					"destination" : [ "obj-19", 0 ],
					"source" : [ "obj-21", 0 ]
				}

			}
, 			{
				"patchline" : 				{
					"destination" : [ "obj-17", 2 ],
					"source" : [ "obj-24", 0 ]
				}

			}
, 			{
				"patchline" : 				{
					"destination" : [ "obj-69", 0 ],
					"source" : [ "obj-25", 0 ]
				}

			}
, 			{
				"patchline" : 				{
					"destination" : [ "obj-17", 1 ],
					"source" : [ "obj-27", 0 ]
				}

			}
, 			{
				"patchline" : 				{
					"destination" : [ "obj-5", 1 ],
					"source" : [ "obj-28", 0 ]
				}

			}
, 			{
				"patchline" : 				{
					"destination" : [ "obj-31", 0 ],
					"source" : [ "obj-3", 0 ]
				}

			}
, 			{
				"patchline" : 				{
					"destination" : [ "obj-27", 0 ],
					"source" : [ "obj-30", 0 ]
				}

			}
, 			{
				"patchline" : 				{
					"destination" : [ "obj-36", 0 ],
					"source" : [ "obj-31", 0 ]
				}

			}
, 			{
				"patchline" : 				{
					"destination" : [ "obj-55", 0 ],
					"order" : 1,
					"source" : [ "obj-33", 0 ]
				}

			}
, 			{
				"patchline" : 				{
					"destination" : [ "obj-56", 0 ],
					"order" : 0,
					"source" : [ "obj-33", 0 ]
				}

			}
, 			{
				"patchline" : 				{
					"destination" : [ "obj-35", 0 ],
					"source" : [ "obj-34", 0 ]
				}

			}
, 			{
				"patchline" : 				{
					"destination" : [ "obj-22", 0 ],
					"source" : [ "obj-35", 0 ]
				}

			}
, 			{
				"patchline" : 				{
					"destination" : [ "obj-23", 0 ],
					"order" : 1,
					"source" : [ "obj-36", 0 ]
				}

			}
, 			{
				"patchline" : 				{
					"destination" : [ "obj-45", 0 ],
					"order" : 0,
					"source" : [ "obj-36", 0 ]
				}

			}
, 			{
				"patchline" : 				{
					"destination" : [ "obj-33", 0 ],
					"source" : [ "obj-37", 0 ]
				}

			}
, 			{
				"patchline" : 				{
					"destination" : [ "obj-34", 0 ],
					"source" : [ "obj-4", 0 ]
				}

			}
, 			{
				"patchline" : 				{
					"destination" : [ "obj-20", 0 ],
					"order" : 1,
					"source" : [ "obj-40", 0 ]
				}

			}
, 			{
				"patchline" : 				{
					"destination" : [ "obj-24", 0 ],
					"order" : 0,
					"source" : [ "obj-40", 0 ]
				}

			}
, 			{
				"patchline" : 				{
					"destination" : [ "obj-24", 1 ],
					"order" : 0,
					"source" : [ "obj-43", 0 ]
				}

			}
, 			{
				"patchline" : 				{
					"destination" : [ "obj-30", 1 ],
					"order" : 1,
					"source" : [ "obj-43", 0 ]
				}

			}
, 			{
				"patchline" : 				{
					"destination" : [ "obj-28", 0 ],
					"source" : [ "obj-44", 0 ]
				}

			}
, 			{
				"patchline" : 				{
					"destination" : [ "obj-46", 0 ],
					"order" : 1,
					"source" : [ "obj-45", 0 ]
				}

			}
, 			{
				"patchline" : 				{
					"destination" : [ "obj-50", 0 ],
					"order" : 0,
					"source" : [ "obj-45", 0 ]
				}

			}
, 			{
				"patchline" : 				{
					"destination" : [ "obj-66", 0 ],
					"source" : [ "obj-46", 0 ]
				}

			}
, 			{
				"patchline" : 				{
					"destination" : [ "obj-16", 0 ],
					"source" : [ "obj-5", 0 ]
				}

			}
, 			{
				"patchline" : 				{
					"destination" : [ "obj-43", 0 ],
					"source" : [ "obj-50", 0 ]
				}

			}
, 			{
				"patchline" : 				{
					"destination" : [ "obj-30", 0 ],
					"order" : 0,
					"source" : [ "obj-51", 0 ]
				}

			}
, 			{
				"patchline" : 				{
					"destination" : [ "obj-44", 0 ],
					"order" : 1,
					"source" : [ "obj-51", 0 ]
				}

			}
, 			{
				"patchline" : 				{
					"destination" : [ "obj-51", 0 ],
					"source" : [ "obj-52", 0 ]
				}

			}
, 			{
				"patchline" : 				{
					"destination" : [ "obj-5", 3 ],
					"source" : [ "obj-55", 0 ]
				}

			}
, 			{
				"patchline" : 				{
					"destination" : [ "obj-17", 3 ],
					"source" : [ "obj-56", 0 ]
				}

			}
, 			{
				"patchline" : 				{
					"destination" : [ "obj-14", 0 ],
					"source" : [ "obj-6", 1 ]
				}

			}
, 			{
				"patchline" : 				{
					"destination" : [ "obj-7", 0 ],
					"source" : [ "obj-6", 0 ]
				}

			}
, 			{
				"patchline" : 				{
					"destination" : [ "obj-20", 1 ],
					"order" : 0,
					"source" : [ "obj-66", 0 ]
				}

			}
, 			{
				"patchline" : 				{
					"destination" : [ "obj-44", 1 ],
					"order" : 1,
					"source" : [ "obj-66", 0 ]
				}

			}
, 			{
				"patchline" : 				{
					"destination" : [ "obj-27", 1 ],
					"order" : 0,
					"source" : [ "obj-69", 0 ]
				}

			}
, 			{
				"patchline" : 				{
					"destination" : [ "obj-28", 1 ],
					"order" : 1,
					"source" : [ "obj-69", 0 ]
				}

			}
, 			{
				"patchline" : 				{
					"destination" : [ "obj-17", 0 ],
					"order" : 0,
					"source" : [ "obj-7", 0 ]
				}

			}
, 			{
				"patchline" : 				{
					"destination" : [ "obj-5", 0 ],
					"order" : 1,
					"source" : [ "obj-7", 0 ]
				}

			}
, 			{
				"patchline" : 				{
					"destination" : [ "obj-9", 0 ],
					"order" : 2,
					"source" : [ "obj-7", 0 ]
				}

			}
, 			{
				"patchline" : 				{
					"destination" : [ "obj-13", 0 ],
					"source" : [ "obj-9", 0 ]
				}

			}
 ],
		"styles" : [ 			{
				"name" : "Minimal",
				"default" : 				{
					"accentcolor" : [ 0.0, 0.0, 0.0, 1.0 ],
					"bgcolor" : [ 0.999999, 0.999974, 0.999991, 1.0 ],
					"bgfillcolor" : 					{
						"angle" : 270.0,
						"autogradient" : 0.0,
						"color" : [ 0.65098, 0.666667, 0.662745, 1.0 ],
						"color1" : [ 0.65098, 0.666667, 0.662745, 1.0 ],
						"color2" : [ 0.290196, 0.309804, 0.301961, 1.0 ],
						"proportion" : 0.39,
						"type" : "color"
					}
,
					"color" : [ 0.0, 0.0, 0.0, 1.0 ],
					"editing_bgcolor" : [ 0.956862745098039, 0.956862745098039, 0.956862745098039, 1.0 ],
					"elementcolor" : [ 0.694117647058824, 0.694117647058824, 0.694117647058824, 1.0 ],
					"fontface" : [ 0 ],
					"fontname" : [ "Lato" ],
					"fontsize" : [ 11.0 ],
					"selectioncolor" : [ 0.0, 0.0, 0.0, 1.0 ],
					"textcolor_inverse" : [ 0.0, 0.0, 0.0, 1.0 ]
				}
,
				"parentstyle" : "",
				"multi" : 0
			}
 ]
	}

}
