{
	"patcher" : 	{
		"fileversion" : 1,
		"appversion" : 		{
			"major" : 9,
			"minor" : 0,
			"revision" : 0,
			"architecture" : "x64",
			"modernui" : 1
		}
,
		"classnamespace" : "box",
		"rect" : [ 100.0, 100.0, 942.0, 616.0 ],
		"gridsize" : [ 15.0, 15.0 ],
		"style" : "Grainflow",
		"boxes" : [ 			{
				"box" : 				{
					"id" : "obj-5",
					"maxclass" : "grainflow.spatview~",
					"numinlets" : 1,
					"numoutlets" : 1,
					"outlettype" : [ "" ],
					"patching_rect" : [ 187.0, 296.0, 510.0, 204.0 ],
					"speakerPositions" : [ -0.4, 1.0, 0.0, 0.4, 1.0, 0.0, -1.0, 0.4, 0.0, 1.0, 0.4, 0.0, -1.0, -0.4, 0.0, 1.0, -0.4, 0.0, -0.4, -1.0, 0.0, 0.4, -1.0, 0.0 ]
				}

			}
, 			{
				"box" : 				{
					"id" : "obj-22",
					"maxclass" : "comment",
					"numinlets" : 1,
					"numoutlets" : 0,
					"patching_rect" : [ 631.0, 206.0, 177.0, 21.0 ],
					"text" : "example json file"
				}

			}
, 			{
				"box" : 				{
					"id" : "obj-21",
					"maxclass" : "comment",
					"numinlets" : 1,
					"numoutlets" : 0,
					"patching_rect" : [ 555.0, 133.0, 177.0, 21.0 ],
					"text" : "example text file"
				}

			}
, 			{
				"box" : 				{
					"bubble" : 1,
					"id" : "obj-19",
					"linecount" : 2,
					"maxclass" : "comment",
					"numinlets" : 1,
					"numoutlets" : 0,
					"patching_rect" : [ 108.0, 178.0, 199.0, 39.0 ],
					"text" : "Refresh the list of premade setups"
				}

			}
, 			{
				"box" : 				{
					"bubble" : 1,
					"id" : "obj-18",
					"linecount" : 3,
					"maxclass" : "comment",
					"numinlets" : 1,
					"numoutlets" : 0,
					"patching_rect" : [ 208.0, 116.5, 106.0, 54.0 ],
					"text" : "Select a premade speaker setup"
				}

			}
, 			{
				"box" : 				{
					"id" : "obj-17",
					"maxclass" : "newobj",
					"numinlets" : 2,
					"numoutlets" : 5,
					"outlettype" : [ "dictionary", "", "", "", "" ],
					"patching_rect" : [ 348.0, 205.0, 269.0, 23.0 ],
					"saved_object_attributes" : 					{
						"embed" : 0,
						"legacy" : 1,
						"parameter_enable" : 0,
						"parameter_mappable" : 0
					}
,
					"text" : "dict examplejson grainflow.speakerExample.json"
				}

			}
, 			{
				"box" : 				{
					"id" : "obj-16",
					"maxclass" : "newobj",
					"numinlets" : 1,
					"numoutlets" : 3,
					"outlettype" : [ "", "bang", "int" ],
					"patching_rect" : [ 344.0, 132.0, 201.0, 23.0 ],
					"text" : "text grainflow.speakerExample.txt"
				}

			}
, 			{
				"box" : 				{
					"bubble" : 1,
					"id" : "obj-15",
					"maxclass" : "comment",
					"numinlets" : 1,
					"numoutlets" : 0,
					"patching_rect" : [ 560.0, 165.0, 199.0, 25.0 ],
					"text" : "Read a json file from the disk"
				}

			}
, 			{
				"box" : 				{
					"bubble" : 1,
					"id" : "obj-14",
					"maxclass" : "comment",
					"numinlets" : 1,
					"numoutlets" : 0,
					"patching_rect" : [ 555.0, 110.0, 199.0, 25.0 ],
					"text" : "Read a text file from the disk"
				}

			}
, 			{
				"box" : 				{
					"id" : "obj-9",
					"maxclass" : "message",
					"numinlets" : 2,
					"numoutlets" : 1,
					"outlettype" : [ "" ],
					"patching_rect" : [ 326.0, 166.0, 229.0, 23.0 ],
					"text" : "readjson grainflow.speakerExample.json"
				}

			}
, 			{
				"box" : 				{
					"id" : "obj-8",
					"maxclass" : "message",
					"numinlets" : 2,
					"numoutlets" : 1,
					"outlettype" : [ "" ],
					"patching_rect" : [ 326.0, 106.0, 216.0, 23.0 ],
					"text" : "readtxt grainflow.speakerExample.txt"
				}

			}
, 			{
				"box" : 				{
					"id" : "obj-6",
					"maxclass" : "message",
					"numinlets" : 2,
					"numoutlets" : 1,
					"outlettype" : [ "" ],
					"patching_rect" : [ 23.0, 186.0, 89.0, 23.0 ],
					"text" : "getspeakers"
				}

			}
, 			{
				"box" : 				{
					"id" : "obj-39",
					"items" : [ "8ch stereo pairs", ",", "8ch double diamond", ",", "stereo", ",", "quad", ",", "5ch surround", ",", "7ch surround", ",", "16ch Stacked Stereo Pairs" ],
					"maxclass" : "umenu",
					"numinlets" : 1,
					"numoutlets" : 3,
					"outlettype" : [ "int", "", "" ],
					"parameter_enable" : 0,
					"patching_rect" : [ 31.0, 142.0, 172.0, 23.0 ]
				}

			}
, 			{
				"box" : 				{
					"id" : "obj-3",
					"maxclass" : "newobj",
					"numinlets" : 1,
					"numoutlets" : 1,
					"outlettype" : [ "bang" ],
					"patching_rect" : [ 31.0, 111.0, 85.0, 23.0 ],
					"text" : "loadbang"
				}

			}
, 			{
				"box" : 				{
					"id" : "obj-1",
					"maxclass" : "newobj",
					"numinlets" : 1,
					"numoutlets" : 2,
					"outlettype" : [ "", "clear" ],
					"patching_rect" : [ 94.0, 228.0, 149.0, 23.0 ],
					"text" : "grainflow.spat.speakers"
				}

			}
, 			{
				"box" : 				{
					"id" : "obj-107",
					"maxclass" : "comment",
					"numinlets" : 1,
					"numoutlets" : 0,
					"patching_rect" : [ 23.0, 59.0, 320.833333333333258, 19.0 ],
					"text" : "Sets up speakers with preset configurations"
				}

			}
, 			{
				"box" : 				{
					"fontsize" : 30.0,
					"id" : "obj-12",
					"maxclass" : "comment",
					"numinlets" : 1,
					"numoutlets" : 0,
					"patching_rect" : [ 23.0, 15.0, 355.0, 41.0 ],
					"text" : "grainflow.spat.speakers"
				}

			}
, 			{
				"box" : 				{
					"id" : "obj-2",
					"maxclass" : "newobj",
					"numinlets" : 1,
					"numoutlets" : 2,
					"outlettype" : [ "multichannelsignal", "grainReset" ],
					"patching_rect" : [ 94.0, 261.5, 139.0, 23.0 ],
					"text" : "grainflow.spat.pan~"
				}

			}
 ],
		"lines" : [ 			{
				"patchline" : 				{
					"destination" : [ "obj-2", 0 ],
					"source" : [ "obj-1", 0 ]
				}

			}
, 			{
				"patchline" : 				{
					"destination" : [ "obj-39", 0 ],
					"midpoints" : [ 233.5, 213.0, 284.5, 213.0, 284.5, 131.0, 40.5, 131.0 ],
					"source" : [ "obj-1", 1 ]
				}

			}
, 			{
				"patchline" : 				{
					"destination" : [ "obj-5", 0 ],
					"source" : [ "obj-2", 1 ]
				}

			}
, 			{
				"patchline" : 				{
					"destination" : [ "obj-39", 0 ],
					"source" : [ "obj-3", 0 ]
				}

			}
, 			{
				"patchline" : 				{
					"destination" : [ "obj-1", 0 ],
					"source" : [ "obj-39", 1 ]
				}

			}
, 			{
				"patchline" : 				{
					"destination" : [ "obj-1", 0 ],
					"source" : [ "obj-6", 0 ]
				}

			}
, 			{
				"patchline" : 				{
					"destination" : [ "obj-1", 0 ],
					"midpoints" : [ 335.5, 208.5, 103.5, 208.5 ],
					"source" : [ "obj-8", 0 ]
				}

			}
, 			{
				"patchline" : 				{
					"destination" : [ "obj-1", 0 ],
					"midpoints" : [ 335.5, 216.5, 103.5, 216.5 ],
					"source" : [ "obj-9", 0 ]
				}

			}
 ],
		"originid" : "pat-2881",
		"dependency_cache" : [ 			{
				"name" : "_grainflow.aed2xyz.maxpat",
				"bootpath" : "~/Documents/Max 9/Packages/Grainflow/patchers/_private",
				"patcherrelativepath" : "../../patchers/_private",
				"type" : "JSON",
				"implicit" : 1
			}
, 			{
				"name" : "grainflow.spat.pan~.maxpat",
				"bootpath" : "~/Documents/Max 9/Packages/Grainflow/patchers/spat",
				"patcherrelativepath" : "../../patchers/spat",
				"type" : "JSON",
				"implicit" : 1
			}
, 			{
				"name" : "grainflow.spat.speakers.maxpat",
				"bootpath" : "~/Documents/Max 9/Packages/Grainflow/patchers/spat",
				"patcherrelativepath" : "../../patchers/spat",
				"type" : "JSON",
				"implicit" : 1
			}
, 			{
				"name" : "grainflow.spatview~.mxe64",
				"type" : "mx64"
			}
 ],
		"autosave" : 0,
		"styles" : [ 			{
				"name" : "Grainflow",
				"default" : 				{
					"bgcolor" : [ 0.0, 0.0, 0.0, 1.0 ],
					"color" : [ 0.470588235294118, 1.0, 0.403921568627451, 1.0 ],
					"editing_bgcolor" : [ 0.333333333333333, 0.333333333333333, 0.333333333333333, 1.0 ],
					"fontname" : [ "Lato Medium" ],
					"fontsize" : [ 12.0 ],
					"locked_bgcolor" : [ 0.313725490196078, 0.313725490196078, 0.313725490196078, 1.0 ],
					"syntax_attrargcolor" : [ 1.0, 1.0, 1.0, 1.0 ],
					"syntax_attributecolor" : [ 0.807843137254902, 1.0, 0.784313725490196, 1.0 ],
					"syntax_objectcolor" : [ 0.470588235294118, 1.0, 0.403921568627451, 1.0 ]
				}
,
				"parentstyle" : "",
				"multi" : 0
			}
 ]
	}

}
